<svg width="20" height="21" viewBox="0 0 20 21" fill="none" xmlns="http://www.w3.org/2000/svg">
<path d="M3.463 3.09903C5.27756 1.52669 7.59899 0.662676 10 0.666025C15.523 0.666025 20 5.14303 20 10.666C20 12.802 19.33 14.782 18.19 16.406L15 10.666H18C18.0001 9.09765 17.5392 7.56383 16.6747 6.25528C15.8101 4.94673 14.5799 3.92118 13.1372 3.30615C11.6944 2.69111 10.1027 2.51373 8.55996 2.79604C7.0172 3.07836 5.59145 3.80792 4.46 4.89403L3.463 3.09903ZM16.537 18.233C14.7224 19.8054 12.401 20.6694 10 20.666C4.477 20.666 0 16.189 0 10.666C0 8.53003 0.67 6.55003 1.81 4.92603L5 10.666H2C1.99987 12.2344 2.46075 13.7682 3.32534 15.0768C4.18992 16.3853 5.42007 17.4109 6.86282 18.0259C8.30557 18.6409 9.89729 18.8183 11.44 18.536C12.9828 18.2537 14.4085 17.5241 15.54 16.438L16.537 18.233Z" fill="#2CB48E"/>
</svg>
