<svg width="16" height="12" viewBox="0 0 16 12" fill="none" xmlns="http://www.w3.org/2000/svg">
    <path d="M14.4402 1.41032L15.6923 0.253263V0H11.3547L8.26331 7.43242L4.74627 0H0.198115V0.253263L1.66077 1.95411C1.80331 2.07979 1.87785 2.26358 1.85888 2.44863V9.13263C1.904 9.37326 1.82292 9.62084 1.64769 9.79579L0 11.7246V11.9747H4.67173V11.7215L3.02404 9.79579C2.84554 9.62021 2.76119 9.37705 2.79715 9.13263V3.35116L6.89808 11.9779H7.37473L10.9009 3.35116V10.2234C10.9009 10.4046 10.9009 10.4419 10.778 10.5606L9.50954 11.7461V12H15.6635V11.7467L14.4408 10.5903C14.3336 10.512 14.278 10.3806 14.3009 10.2531V1.74758C14.278 1.61937 14.333 1.488 14.4402 1.41032Z"
          fill="white"></path>
</svg>