<svg width="15" height="14" viewBox="0 0 15 14" fill="none" xmlns="http://www.w3.org/2000/svg">
    <path fill-rule="evenodd" clip-rule="evenodd"
          d="M3.55972 7.94202L0.253444 6.68218C-0.0823684 6.55371 -0.085286 6.0697 0.24957 5.93786L13.8186 0.593774C14.1063 0.480194 14.4031 0.737483 14.3405 1.0459L11.9054 13.0041C11.848 13.2864 11.5238 13.4145 11.2949 13.2446L7.97082 10.7808C7.76894 10.6312 7.49377 10.6392 7.30059 10.7999L5.45761 12.3338C5.24367 12.5123 4.92134 12.4129 4.83946 12.1438L3.55972 7.94202ZM11.0958 3.20827L4.63412 7.27133C4.38646 7.42739 4.26985 7.73273 4.34987 8.01859L5.04852 10.5248C5.09812 10.7024 5.35061 10.6842 5.37467 10.5007L5.55633 9.12631C5.59058 8.86756 5.71149 8.62917 5.89893 8.45103L11.2317 3.39022C11.3314 3.29578 11.212 3.13547 11.0958 3.20827Z"
          fill="white"></path>
</svg>