<svg width="18" height="12" viewBox="0 0 18 12" fill="none" xmlns="http://www.w3.org/2000/svg">
<path d="M4.85156 11.5371C5.15625 11.5371 5.44922 11.4316 5.73047 11.2207C6.05859 10.9277 6.22266 10.5645 6.22266 10.1309C6.22266 9.82617 6.11719 9.53906 5.90625 9.26953L4.3418 7.38867H16.6113C16.998 7.38867 17.3262 7.25391 17.5957 6.98438C17.8652 6.71484 18 6.38672 18 6C18 5.61328 17.8652 5.28516 17.5957 5.01562C17.3262 4.74609 16.998 4.61133 16.6113 4.61133H4.3418L5.90625 2.73047C6.11719 2.46094 6.22266 2.17383 6.22266 1.86914C6.22266 1.82227 6.21387 1.69336 6.19629 1.48242C6.17871 1.27148 6.02344 1.03711 5.73047 0.779297C5.46094 0.568359 5.17383 0.462891 4.86914 0.462891C4.82227 0.462891 4.69336 0.47168 4.48242 0.489258C4.27148 0.506836 4.03711 0.662109 3.7793 0.955078L0.316406 5.12109C0.105469 5.37891 0 5.67188 0 6C0 6.31641 0.105469 6.60938 0.316406 6.87891L3.7793 11.0449C4.0957 11.373 4.45312 11.5371 4.85156 11.5371Z" fill="white"/>
</svg>
