<svg width="25" height="25" viewBox="0 0 25 25" fill="none" xmlns="http://www.w3.org/2000/svg">
<g clip-path="url(#clip0_76_102686)">
<path d="M11.3076 2.94434C16.2756 2.94434 20.3076 6.97634 20.3076 11.9443C20.3076 16.9123 16.2756 20.9443 11.3076 20.9443C6.33962 20.9443 2.30762 16.9123 2.30762 11.9443C2.30762 6.97634 6.33962 2.94434 11.3076 2.94434ZM11.3076 18.9443C15.1746 18.9443 18.3076 15.8113 18.3076 11.9443C18.3076 8.07634 15.1746 4.94434 11.3076 4.94434C7.43962 4.94434 4.30762 8.07634 4.30762 11.9443C4.30762 15.8113 7.43962 18.9443 11.3076 18.9443ZM19.7926 19.0153L22.6216 21.8433L21.2066 23.2583L18.3786 20.4293L19.7926 19.0153Z" fill="#0BBF8D"/>
</g>
<defs>
<clipPath id="clip0_76_102686">
<rect width="24" height="24" fill="white" transform="translate(0.307617 0.944336)"/>
</clipPath>
</defs>
</svg>
