<svg width="24" height="25" viewBox="0 0 24 25" fill="none" xmlns="http://www.w3.org/2000/svg">
<path fill-rule="evenodd" clip-rule="evenodd" d="M12.3747 2.31476C14.6307 2.31476 16.6447 3.74776 17.3837 5.88176C17.5197 6.27276 17.3117 6.69976 16.9197 6.83576C16.5287 6.97276 16.1017 6.76376 15.9657 6.37176C15.4367 4.84276 13.9917 3.81476 12.3717 3.81476H12.3577C10.2657 3.81476 8.5617 5.50876 8.5527 7.59876L8.552 8.94076L16.184 8.94146C18.688 8.94146 20.726 10.9795 20.726 13.4845V17.7725C20.726 20.2775 18.688 22.3155 16.184 22.3155H8.542C6.037 22.3155 4 20.2775 4 17.7725V13.4845C4 11.5011 5.277 9.81044 7.05221 9.19237L7.0527 7.61576C7.0657 4.67776 9.4417 2.31476 12.3547 2.31476H12.3747ZM16.184 10.4415H8.542C6.864 10.4415 5.5 11.8065 5.5 13.4845V17.7725C5.5 19.4505 6.864 20.8155 8.542 20.8155H16.184C17.861 20.8155 19.226 19.4505 19.226 17.7725V13.4845C19.226 11.8065 17.861 10.4415 16.184 10.4415ZM12.3633 13.7673C12.7773 13.7673 13.1133 14.1033 13.1133 14.5173V16.7393C13.1133 17.1533 12.7773 17.4893 12.3633 17.4893C11.9493 17.4893 11.6133 17.1533 11.6133 16.7393V14.5173C11.6133 14.1033 11.9493 13.7673 12.3633 13.7673Z" fill="#2CB48E"/>
</svg>
