<svg width="96" height="90" viewBox="0 0 96 90" fill="none" xmlns="http://www.w3.org/2000/svg">
    <g opacity="0.5" filter="url(#filter0_f_406_757)">
        <path d="M72.3356 20.5V68.3333H67.6689V25.6427L57.1689 28.4567V23.6243L68.8356 20.5H72.3356Z" fill="#2CB48E"/>
        <path d="M35.6691 20.5C38.7514 20.5 41.4651 21.312 43.7121 22.8193C45.9591 24.3243 47.7394 26.5247 48.9598 29.3013C50.1778 32.078 50.8358 35.4263 50.8358 39.2343V50.7657C50.8358 54.5737 50.1778 57.9243 48.9598 60.6987C47.7394 63.4753 45.9591 65.6757 43.7098 67.1807C41.4651 68.688 38.7514 69.5 35.6691 69.5C32.5868 69.5 29.8731 68.688 27.6261 67.1807C25.3791 65.6757 23.5988 63.4753 22.3784 60.6987C21.1604 57.922 20.5024 54.5737 20.5024 50.7657V39.2343C20.5024 35.4263 21.1604 32.0757 22.3784 29.3013C23.5988 26.5247 25.3791 24.3243 27.6284 22.8193C29.8708 21.312 32.5844 20.5 35.6691 20.5ZM35.6691 25.1667C33.5318 25.1667 31.7164 25.694 30.2254 26.695C28.7391 27.6913 27.5234 29.1917 26.6508 31.175C25.6894 33.3683 25.1691 36.0937 25.1691 39.2343V50.7657C25.1691 53.9063 25.6894 56.6317 26.6508 58.8227C27.5234 60.8083 28.7391 62.3087 30.2254 63.305C31.7164 64.306 33.5318 64.8333 35.6691 64.8333C37.8064 64.8333 39.6218 64.306 41.1128 63.305C42.5991 62.3087 43.8148 60.8083 44.6874 58.825C45.6488 56.6317 46.1691 53.9063 46.1691 50.7657V39.2343C46.1691 36.0937 45.6488 33.3683 44.6874 31.1773C43.8148 29.1917 42.5991 27.6913 41.1128 26.695C39.6218 25.694 37.8064 25.1667 35.6691 25.1667Z" fill="#2CB48E"/>
        <path d="M35.6691 20.5C38.7514 20.5 41.4651 21.312 43.7121 22.8193C45.9591 24.3243 47.7394 26.5247 48.9598 29.3013C50.1778 32.078 50.8358 35.4263 50.8358 39.2343V50.7657C50.8358 54.5737 50.1778 57.9243 48.9598 60.6987C47.7394 63.4753 45.9591 65.6757 43.7098 67.1807C41.4651 68.688 38.7514 69.5 35.6691 69.5C32.5868 69.5 29.8731 68.688 27.6261 67.1807C25.3791 65.6757 23.5988 63.4753 22.3784 60.6987C21.1604 57.922 20.5024 54.5737 20.5024 50.7657V39.2343C20.5024 35.4263 21.1604 32.0757 22.3784 29.3013C23.5988 26.5247 25.3791 24.3243 27.6284 22.8193C29.8708 21.312 32.5844 20.5 35.6691 20.5ZM35.6691 25.1667C33.5318 25.1667 31.7164 25.694 30.2254 26.695C28.7391 27.6913 27.5234 29.1917 26.6508 31.175C25.6894 33.3683 25.1691 36.0937 25.1691 39.2343V50.7657C25.1691 53.9063 25.6894 56.6317 26.6508 58.8227C27.5234 60.8083 28.7391 62.3087 30.2254 63.305C31.7164 64.306 33.5318 64.8333 35.6691 64.8333C37.8064 64.8333 39.6218 64.306 41.1128 63.305C42.5991 62.3087 43.8148 60.8083 44.6874 58.825C45.6488 56.6317 46.1691 53.9063 46.1691 50.7657V39.2343C46.1691 36.0937 45.6488 33.3683 44.6874 31.1773C43.8148 29.1917 42.5991 27.6913 41.1128 26.695C39.6218 25.694 37.8064 25.1667 35.6691 25.1667Z" fill="#2CB48E"/>
    </g>
    <path d="M72.3356 21.3335V69.1668H67.6689V26.4762L57.1689 29.2902V24.4578L68.8356 21.3335H72.3356Z" fill="#2CB48E"/>
    <path d="M35.6691 20.5C38.7514 20.5 41.4651 21.312 43.7121 22.8193C45.9591 24.3243 47.7394 26.5247 48.9598 29.3013C50.1778 32.078 50.8358 35.4263 50.8358 39.2343V50.7657C50.8358 54.5737 50.1778 57.9243 48.9598 60.6987C47.7394 63.4753 45.9591 65.6757 43.7098 67.1807C41.4651 68.688 38.7514 69.5 35.6691 69.5C32.5868 69.5 29.8731 68.688 27.6261 67.1807C25.3791 65.6757 23.5988 63.4753 22.3784 60.6987C21.1604 57.922 20.5024 54.5737 20.5024 50.7657V39.2343C20.5024 35.4263 21.1604 32.0757 22.3784 29.3013C23.5988 26.5247 25.3791 24.3243 27.6284 22.8193C29.8708 21.312 32.5844 20.5 35.6691 20.5ZM35.6691 25.1667C33.5318 25.1667 31.7164 25.694 30.2254 26.695C28.7391 27.6913 27.5234 29.1917 26.6508 31.175C25.6894 33.3683 25.1691 36.0937 25.1691 39.2343V50.7657C25.1691 53.9063 25.6894 56.6317 26.6508 58.8227C27.5234 60.8083 28.7391 62.3087 30.2254 63.305C31.7164 64.306 33.5318 64.8333 35.6691 64.8333C37.8064 64.8333 39.6218 64.306 41.1128 63.305C42.5991 62.3087 43.8148 60.8083 44.6874 58.825C45.6488 56.6317 46.1691 53.9063 46.1691 50.7657V39.2343C46.1691 36.0937 45.6488 33.3683 44.6874 31.1773C43.8148 29.1917 42.5991 27.6913 41.1128 26.695C39.6218 25.694 37.8064 25.1667 35.6691 25.1667Z" fill="#2CB48E"/>
    <path d="M35.6691 20.5C38.7514 20.5 41.4651 21.312 43.7121 22.8193C45.9591 24.3243 47.7394 26.5247 48.9598 29.3013C50.1778 32.078 50.8358 35.4263 50.8358 39.2343V50.7657C50.8358 54.5737 50.1778 57.9243 48.9598 60.6987C47.7394 63.4753 45.9591 65.6757 43.7098 67.1807C41.4651 68.688 38.7514 69.5 35.6691 69.5C32.5868 69.5 29.8731 68.688 27.6261 67.1807C25.3791 65.6757 23.5988 63.4753 22.3784 60.6987C21.1604 57.922 20.5024 54.5737 20.5024 50.7657V39.2343C20.5024 35.4263 21.1604 32.0757 22.3784 29.3013C23.5988 26.5247 25.3791 24.3243 27.6284 22.8193C29.8708 21.312 32.5844 20.5 35.6691 20.5ZM35.6691 25.1667C33.5318 25.1667 31.7164 25.694 30.2254 26.695C28.7391 27.6913 27.5234 29.1917 26.6508 31.175C25.6894 33.3683 25.1691 36.0937 25.1691 39.2343V50.7657C25.1691 53.9063 25.6894 56.6317 26.6508 58.8227C27.5234 60.8083 28.7391 62.3087 30.2254 63.305C31.7164 64.306 33.5318 64.8333 35.6691 64.8333C37.8064 64.8333 39.6218 64.306 41.1128 63.305C42.5991 62.3087 43.8148 60.8083 44.6874 58.825C45.6488 56.6317 46.1691 53.9063 46.1691 50.7657V39.2343C46.1691 36.0937 45.6488 33.3683 44.6874 31.1773C43.8148 29.1917 42.5991 27.6913 41.1128 26.695C39.6218 25.694 37.8064 25.1667 35.6691 25.1667Z" fill="#2CB48E"/>
    <defs>
        <filter id="filter0_f_406_757" x="0.502441" y="0.5" width="91.8332" height="89" filterUnits="userSpaceOnUse" color-interpolation-filters="sRGB">
            <feFlood flood-opacity="0" result="BackgroundImageFix"/>
            <feBlend mode="normal" in="SourceGraphic" in2="BackgroundImageFix" result="shape"/>
            <feGaussianBlur stdDeviation="10" result="effect1_foregroundBlur_406_757"/>
        </filter>
    </defs>
</svg>