<svg width="104" height="90" viewBox="0 0 104 90" fill="none" xmlns="http://www.w3.org/2000/svg">
    <g opacity="0.4" filter="url(#filter0_f_406_802)">
        <path d="M82.1602 21.667V24.845L70.0478 39.2837C72.788 39.6275 75.3822 40.7127 77.5509 42.4225C79.7196 44.1323 81.3803 46.4016 82.3541 48.9858C83.3279 51.57 83.5777 54.371 83.0767 57.0868C82.5757 59.8025 81.3428 62.33 79.5109 64.3966C77.6791 66.4632 75.3179 67.9905 72.6819 68.8138C70.0459 69.6371 67.2351 69.7253 64.5527 69.0686C61.8703 68.412 59.4181 67.0356 57.4604 65.0878C55.5028 63.14 54.114 60.6947 53.4438 58.0157L57.9705 56.8817C58.5971 59.3633 60.1083 61.5309 62.2201 62.9771C64.3319 64.4234 66.8991 65.0488 69.4395 64.7359C71.9799 64.4231 74.3187 63.1935 76.0165 61.278C77.7143 59.3626 78.6544 56.8932 78.6602 54.3337C78.6607 52.5452 78.2045 50.7863 77.3346 49.2237C76.4648 47.661 75.2103 46.3465 73.69 45.4046C72.1697 44.4627 70.434 43.9248 68.6475 43.8418C66.861 43.7588 65.0829 44.1335 63.4818 44.9303L62.9498 45.215L61.3398 42.3987L74.8218 26.3337H55.3268V21.667H82.1602Z" fill="#2CB48E"/>
        <path d="M36.1603 20.5C39.2426 20.5 41.9563 21.312 44.2033 22.8193C46.4503 24.3243 48.2306 26.5247 49.451 29.3013C50.669 32.078 51.327 35.4263 51.327 39.2343V50.7657C51.327 54.5737 50.669 57.9243 49.451 60.6987C48.2306 63.4753 46.4503 65.6757 44.201 67.1807C41.9563 68.688 39.2426 69.5 36.1603 69.5C33.078 69.5 30.3643 68.688 28.1173 67.1807C25.8703 65.6757 24.09 63.4753 22.8697 60.6987C21.6517 57.922 20.9937 54.5737 20.9937 50.7657V39.2343C20.9937 35.4263 21.6517 32.0757 22.8697 29.3013C24.09 26.5247 25.8703 24.3243 28.1197 22.8193C30.362 21.312 33.0757 20.5 36.1603 20.5ZM36.1603 25.1667C34.023 25.1667 32.2077 25.694 30.7167 26.695C29.2303 27.6913 28.0147 29.1917 27.142 31.175C26.1807 33.3683 25.6603 36.0937 25.6603 39.2343V50.7657C25.6603 53.9063 26.1807 56.6317 27.142 58.8227C28.0147 60.8083 29.2303 62.3087 30.7167 63.305C32.2077 64.306 34.023 64.8333 36.1603 64.8333C38.2976 64.8333 40.113 64.306 41.604 63.305C43.0903 62.3087 44.306 60.8083 45.1786 58.825C46.14 56.6317 46.6603 53.9063 46.6603 50.7657V39.2343C46.6603 36.0937 46.14 33.3683 45.1786 31.1773C44.306 29.1917 43.0903 27.6913 41.604 26.695C40.113 25.694 38.2976 25.1667 36.1603 25.1667Z" fill="#2CB48E"/>
        <path d="M36.1603 20.5C39.2426 20.5 41.9563 21.312 44.2033 22.8193C46.4503 24.3243 48.2306 26.5247 49.451 29.3013C50.669 32.078 51.327 35.4263 51.327 39.2343V50.7657C51.327 54.5737 50.669 57.9243 49.451 60.6987C48.2306 63.4753 46.4503 65.6757 44.201 67.1807C41.9563 68.688 39.2426 69.5 36.1603 69.5C33.078 69.5 30.3643 68.688 28.1173 67.1807C25.8703 65.6757 24.09 63.4753 22.8697 60.6987C21.6517 57.922 20.9937 54.5737 20.9937 50.7657V39.2343C20.9937 35.4263 21.6517 32.0757 22.8697 29.3013C24.09 26.5247 25.8703 24.3243 28.1197 22.8193C30.362 21.312 33.0757 20.5 36.1603 20.5ZM36.1603 25.1667C34.023 25.1667 32.2077 25.694 30.7167 26.695C29.2303 27.6913 28.0147 29.1917 27.142 31.175C26.1807 33.3683 25.6603 36.0937 25.6603 39.2343V50.7657C25.6603 53.9063 26.1807 56.6317 27.142 58.8227C28.0147 60.8083 29.2303 62.3087 30.7167 63.305C32.2077 64.306 34.023 64.8333 36.1603 64.8333C38.2976 64.8333 40.113 64.306 41.604 63.305C43.0903 62.3087 44.306 60.8083 45.1786 58.825C46.14 56.6317 46.6603 53.9063 46.6603 50.7657V39.2343C46.6603 36.0937 46.14 33.3683 45.1786 31.1773C44.306 29.1917 43.0903 27.6913 41.604 26.695C40.113 25.694 38.2976 25.1667 36.1603 25.1667Z" fill="#2CB48E"/>
    </g>
    <path d="M82.1602 21.667V24.845L70.0478 39.2837C72.788 39.6275 75.3822 40.7127 77.5509 42.4225C79.7196 44.1323 81.3803 46.4016 82.3541 48.9858C83.3279 51.57 83.5777 54.371 83.0767 57.0868C82.5757 59.8025 81.3428 62.33 79.5109 64.3966C77.6791 66.4632 75.3179 67.9905 72.6819 68.8138C70.0459 69.6371 67.2351 69.7253 64.5527 69.0686C61.8703 68.412 59.4181 67.0356 57.4604 65.0878C55.5028 63.14 54.114 60.6947 53.4438 58.0157L57.9705 56.8817C58.5971 59.3633 60.1083 61.5309 62.2201 62.9771C64.3319 64.4234 66.8991 65.0488 69.4395 64.7359C71.9799 64.4231 74.3187 63.1935 76.0165 61.278C77.7143 59.3626 78.6544 56.8932 78.6602 54.3337C78.6607 52.5452 78.2045 50.7863 77.3346 49.2237C76.4648 47.661 75.2103 46.3465 73.69 45.4046C72.1697 44.4627 70.434 43.9248 68.6475 43.8418C66.861 43.7588 65.0829 44.1335 63.4818 44.9303L62.9498 45.215L61.3398 42.3987L74.8218 26.3337H55.3268V21.667H82.1602Z" fill="#2CB48E"/>
    <path d="M36.1603 20.5C39.2426 20.5 41.9563 21.312 44.2033 22.8193C46.4503 24.3243 48.2306 26.5247 49.451 29.3013C50.669 32.078 51.327 35.4263 51.327 39.2343V50.7657C51.327 54.5737 50.669 57.9243 49.451 60.6987C48.2306 63.4753 46.4503 65.6757 44.201 67.1807C41.9563 68.688 39.2426 69.5 36.1603 69.5C33.078 69.5 30.3643 68.688 28.1173 67.1807C25.8703 65.6757 24.09 63.4753 22.8697 60.6987C21.6517 57.922 20.9937 54.5737 20.9937 50.7657V39.2343C20.9937 35.4263 21.6517 32.0757 22.8697 29.3013C24.09 26.5247 25.8703 24.3243 28.1197 22.8193C30.362 21.312 33.0757 20.5 36.1603 20.5ZM36.1603 25.1667C34.023 25.1667 32.2077 25.694 30.7167 26.695C29.2303 27.6913 28.0147 29.1917 27.142 31.175C26.1807 33.3683 25.6603 36.0937 25.6603 39.2343V50.7657C25.6603 53.9063 26.1807 56.6317 27.142 58.8227C28.0147 60.8083 29.2303 62.3087 30.7167 63.305C32.2077 64.306 34.023 64.8333 36.1603 64.8333C38.2976 64.8333 40.113 64.306 41.604 63.305C43.0903 62.3087 44.306 60.8083 45.1786 58.825C46.14 56.6317 46.6603 53.9063 46.6603 50.7657V39.2343C46.6603 36.0937 46.14 33.3683 45.1786 31.1773C44.306 29.1917 43.0903 27.6913 41.604 26.695C40.113 25.694 38.2976 25.1667 36.1603 25.1667Z" fill="#2CB48E"/>
    <path d="M36.1603 20.5C39.2426 20.5 41.9563 21.312 44.2033 22.8193C46.4503 24.3243 48.2306 26.5247 49.451 29.3013C50.669 32.078 51.327 35.4263 51.327 39.2343V50.7657C51.327 54.5737 50.669 57.9243 49.451 60.6987C48.2306 63.4753 46.4503 65.6757 44.201 67.1807C41.9563 68.688 39.2426 69.5 36.1603 69.5C33.078 69.5 30.3643 68.688 28.1173 67.1807C25.8703 65.6757 24.09 63.4753 22.8697 60.6987C21.6517 57.922 20.9937 54.5737 20.9937 50.7657V39.2343C20.9937 35.4263 21.6517 32.0757 22.8697 29.3013C24.09 26.5247 25.8703 24.3243 28.1197 22.8193C30.362 21.312 33.0757 20.5 36.1603 20.5ZM36.1603 25.1667C34.023 25.1667 32.2077 25.694 30.7167 26.695C29.2303 27.6913 28.0147 29.1917 27.142 31.175C26.1807 33.3683 25.6603 36.0937 25.6603 39.2343V50.7657C25.6603 53.9063 26.1807 56.6317 27.142 58.8227C28.0147 60.8083 29.2303 62.3087 30.7167 63.305C32.2077 64.306 34.023 64.8333 36.1603 64.8333C38.2976 64.8333 40.113 64.306 41.604 63.305C43.0903 62.3087 44.306 60.8083 45.1786 58.825C46.14 56.6317 46.6603 53.9063 46.6603 50.7657V39.2343C46.6603 36.0937 46.14 33.3683 45.1786 31.1773C44.306 29.1917 43.0903 27.6913 41.604 26.695C40.113 25.694 38.2976 25.1667 36.1603 25.1667Z" fill="#2CB48E"/>
    <defs>
        <filter id="filter0_f_406_802" x="0.993652" y="0.5" width="102.335" height="89.0034" filterUnits="userSpaceOnUse" color-interpolation-filters="sRGB">
            <feFlood flood-opacity="0" result="BackgroundImageFix"/>
            <feBlend mode="normal" in="SourceGraphic" in2="BackgroundImageFix" result="shape"/>
            <feGaussianBlur stdDeviation="10" result="effect1_foregroundBlur_406_802"/>
        </filter>
    </defs>
</svg>
