<svg xmlns="http://www.w3.org/2000/svg" width="1921" height="1036" viewBox="0 0 1921 1036" fill="none">
    <path d="M-1850.31 945.034L-1815.18 893.83C-1780.04 842.626 -1709.77 740.218 -1639.5 800.71C-1569.24 861.202 -1498.97 1084.59 -1428.7 1095.58C-1358.43 1106.57 -1288.16 905.154 -1217.89 867.38C-1147.63 829.605 -1077.36 955.472 -1007.09 955.617C-936.821 955.762 -866.553 830.185 -796.285 842.524C-726.017 854.863 -655.748 1005.12 -585.48 917.012C-515.212 828.907 -444.943 502.441 -374.675 354.144C-304.407 205.847 -234.138 235.719 -163.87 266.783C-93.6018 297.847 -23.3337 330.104 46.9346 424.365C117.203 518.626 187.471 674.892 257.74 733.8C328.008 792.708 398.276 754.258 468.545 723.293C538.813 692.328 609.081 668.848 679.349 634.75C749.618 600.652 819.886 555.935 890.154 587.302C960.423 618.669 1030.69 726.119 1100.96 797.792C1171.23 869.465 1241.5 905.361 1311.76 798.551C1382.03 691.74 1452.3 442.223 1522.57 378.706C1592.84 315.188 1663.11 437.67 1733.37 405.618C1803.64 373.565 1873.91 186.979 1909.04 93.6858L1944.18 0.392578"
          stroke="#2CB48E"/>
    <path d="M-1850.31 945.034L-1815.18 893.83C-1780.04 842.626 -1709.77 740.218 -1639.5 800.71C-1569.24 861.202 -1498.97 1084.59 -1428.7 1095.58C-1358.43 1106.57 -1288.16 905.154 -1217.89 867.38C-1147.63 829.605 -1077.36 955.472 -1007.09 955.617C-936.821 955.762 -866.553 830.185 -796.285 842.524C-726.017 854.863 -655.748 1005.12 -585.48 917.012C-515.212 828.907 -444.943 502.441 -374.675 354.144C-304.407 205.847 -234.138 235.719 -163.87 266.783C-93.6018 297.847 -23.3337 330.104 46.9346 424.365C117.203 518.626 187.471 674.892 257.74 733.8C328.008 792.708 398.276 754.258 468.545 723.293C538.813 692.328 609.081 668.848 679.349 634.75C749.618 600.652 819.886 555.935 890.154 587.302C960.423 618.669 1030.69 726.119 1100.96 797.792C1171.23 869.465 1241.5 905.361 1311.76 798.551C1382.03 691.74 1452.3 442.223 1522.57 378.706C1592.84 315.188 1663.11 437.67 1733.37 405.618C1803.64 373.565 1873.91 186.979 1909.04 93.6858L1944.18 0.392578"
          stroke="#2CB48E" style="-webkit-filter: blur(4px);filter: blur(4px); opacity: 0.6;"/>
    <path d="M-1850.31 945.034L-1815.18 893.83C-1780.04 842.626 -1709.77 740.218 -1639.5 800.71C-1569.24 861.202 -1498.97 1084.59 -1428.7 1095.58C-1358.43 1106.57 -1288.16 905.154 -1217.89 867.38C-1147.63 829.605 -1077.36 955.472 -1007.09 955.617C-936.821 955.762 -866.553 830.185 -796.285 842.524C-726.017 854.863 -655.748 1005.12 -585.48 917.012C-515.212 828.907 -444.943 502.441 -374.675 354.144C-304.407 205.847 -234.138 235.719 -163.87 266.783C-93.6018 297.847 -23.3337 330.104 46.9346 424.365C117.203 518.626 187.471 674.892 257.74 733.8C328.008 792.708 398.276 754.258 468.545 723.293C538.813 692.328 609.081 668.848 679.349 634.75C749.618 600.652 819.886 555.935 890.154 587.302C960.423 618.669 1030.69 726.119 1100.96 797.792C1171.23 869.465 1241.5 905.361 1311.76 798.551C1382.03 691.74 1452.3 442.223 1522.57 378.706C1592.84 315.188 1663.11 437.67 1733.37 405.618C1803.64 373.565 1873.91 186.979 1909.04 93.6858L1944.18 0.392578"
          stroke="#2CB48E" style="-webkit-filter: blur(6px);filter: blur(6px); opacity: 0.6;"/>
    <path d="M-1850.31 945.034L-1815.18 893.83C-1780.04 842.626 -1709.77 740.218 -1639.5 800.71C-1569.24 861.202 -1498.97 1084.59 -1428.7 1095.58C-1358.43 1106.57 -1288.16 905.154 -1217.89 867.38C-1147.63 829.605 -1077.36 955.472 -1007.09 955.617C-936.821 955.762 -866.553 830.185 -796.285 842.524C-726.017 854.863 -655.748 1005.12 -585.48 917.012C-515.212 828.907 -444.943 502.441 -374.675 354.144C-304.407 205.847 -234.138 235.719 -163.87 266.783C-93.6018 297.847 -23.3337 330.104 46.9346 424.365C117.203 518.626 187.471 674.892 257.74 733.8C328.008 792.708 398.276 754.258 468.545 723.293C538.813 692.328 609.081 668.848 679.349 634.75C749.618 600.652 819.886 555.935 890.154 587.302C960.423 618.669 1030.69 726.119 1100.96 797.792C1171.23 869.465 1241.5 905.361 1311.76 798.551C1382.03 691.74 1452.3 442.223 1522.57 378.706C1592.84 315.188 1663.11 437.67 1733.37 405.618C1803.64 373.565 1873.91 186.979 1909.04 93.6858L1944.18 0.392578"
          stroke="#2CB48E" style="-webkit-filter: blur(8px);filter: blur(8px); opacity: 0.6;"/>
    <path d="M-1850.31 945.034L-1815.18 893.83C-1780.04 842.626 -1709.77 740.218 -1639.5 800.71C-1569.24 861.202 -1498.97 1084.59 -1428.7 1095.58C-1358.43 1106.57 -1288.16 905.154 -1217.89 867.38C-1147.63 829.605 -1077.36 955.472 -1007.09 955.617C-936.821 955.762 -866.553 830.185 -796.285 842.524C-726.017 854.863 -655.748 1005.12 -585.48 917.012C-515.212 828.907 -444.943 502.441 -374.675 354.144C-304.407 205.847 -234.138 235.719 -163.87 266.783C-93.6018 297.847 -23.3337 330.104 46.9346 424.365C117.203 518.626 187.471 674.892 257.74 733.8C328.008 792.708 398.276 754.258 468.545 723.293C538.813 692.328 609.081 668.848 679.349 634.75C749.618 600.652 819.886 555.935 890.154 587.302C960.423 618.669 1030.69 726.119 1100.96 797.792C1171.23 869.465 1241.5 905.361 1311.76 798.551C1382.03 691.74 1452.3 442.223 1522.57 378.706C1592.84 315.188 1663.11 437.67 1733.37 405.618C1803.64 373.565 1873.91 186.979 1909.04 93.6858L1944.18 0.392578"
          stroke="#2CB48E" style="-webkit-filter: blur(10px);filter: blur(10px); opacity: 0.6;"/>
    <path d="M-1850.31 945.034L-1815.18 893.83C-1780.04 842.626 -1709.77 740.218 -1639.5 800.71C-1569.24 861.202 -1498.97 1084.59 -1428.7 1095.58C-1358.43 1106.57 -1288.16 905.154 -1217.89 867.38C-1147.63 829.605 -1077.36 955.472 -1007.09 955.617C-936.821 955.762 -866.553 830.185 -796.285 842.524C-726.017 854.863 -655.748 1005.12 -585.48 917.012C-515.212 828.907 -444.943 502.441 -374.675 354.144C-304.407 205.847 -234.138 235.719 -163.87 266.783C-93.6018 297.847 -23.3337 330.104 46.9346 424.365C117.203 518.626 187.471 674.892 257.74 733.8C328.008 792.708 398.276 754.258 468.545 723.293C538.813 692.328 609.081 668.848 679.349 634.75C749.618 600.652 819.886 555.935 890.154 587.302C960.423 618.669 1030.69 726.119 1100.96 797.792C1171.23 869.465 1241.5 905.361 1311.76 798.551C1382.03 691.74 1452.3 442.223 1522.57 378.706C1592.84 315.188 1663.11 437.67 1733.37 405.618C1803.64 373.565 1873.91 186.979 1909.04 93.6858L1944.18 0.392578"
          stroke="#2CB48E" style="-webkit-filter: blur(12px);filter: blur(12px); opacity: 0.7;"/>
    <path d="M-1850.31 945.034L-1815.18 893.83C-1780.04 842.626 -1709.77 740.218 -1639.5 800.71C-1569.24 861.202 -1498.97 1084.59 -1428.7 1095.58C-1358.43 1106.57 -1288.16 905.154 -1217.89 867.38C-1147.63 829.605 -1077.36 955.472 -1007.09 955.617C-936.821 955.762 -866.553 830.185 -796.285 842.524C-726.017 854.863 -655.748 1005.12 -585.48 917.012C-515.212 828.907 -444.943 502.441 -374.675 354.144C-304.407 205.847 -234.138 235.719 -163.87 266.783C-93.6018 297.847 -23.3337 330.104 46.9346 424.365C117.203 518.626 187.471 674.892 257.74 733.8C328.008 792.708 398.276 754.258 468.545 723.293C538.813 692.328 609.081 668.848 679.349 634.75C749.618 600.652 819.886 555.935 890.154 587.302C960.423 618.669 1030.69 726.119 1100.96 797.792C1171.23 869.465 1241.5 905.361 1311.76 798.551C1382.03 691.74 1452.3 442.223 1522.57 378.706C1592.84 315.188 1663.11 437.67 1733.37 405.618C1803.64 373.565 1873.91 186.979 1909.04 93.6858L1944.18 0.392578"
          stroke="#2CB48E" style="-webkit-filter: blur(14px);filter: blur(14px); opacity: 0.7;"/>
</svg>

