<svg width="50" height="50" viewBox="0 0 50 50" fill="none" xmlns="http://www.w3.org/2000/svg">
<g clip-path="url(#clip0_31_1457)">
<circle cx="25" cy="25" r="25" fill="#F0B90B"/>
<path d="M16.385 13.9333L25.0006 9L33.6163 13.9333L30.3856 15.6665L25.0006 12.5995L19.4813 15.6665L16.385 13.9333ZM33.4806 20.0673L30.3843 18.3341L25.0006 21.4011L19.4813 18.3341L16.385 20.0673V23.6681L21.7699 26.7351V33.0022L24.8662 34.8686L27.9626 33.0022V26.8682L33.3475 23.8012V20.0673H33.4806ZM33.4806 29.934V26.3345L30.3856 28.2008V31.6671L33.4806 29.934ZM35.7693 31.1346L30.3843 34.2017V37.8012L39 32.8678V23.0012L35.7693 25.0006V31.1346ZM32.6743 17.0003L35.7706 18.8666V22.4674L38.8669 20.6011V17.0003L35.7706 15.134L32.6743 17.0003ZM21.7699 35.5342V39.1337L24.8662 41L27.9626 39.1337V35.5342L24.8662 37.4005L21.7699 35.5342ZM16.385 29.934L19.4813 31.6671V28.0676L16.385 26.2013V29.934ZM21.7699 17.0003L24.8662 18.8666L28.097 17.0003L25.0006 15.134L21.7699 17.0003ZM14.0963 18.8666L17.327 17.0003L14.0963 15.134L11.0013 17.0003V20.5998L14.0976 22.4661V18.8666H14.0963ZM14.0963 25.0006L11 23.1343V33.001L19.6157 37.9343V34.3348L14.2307 31.2678V25.0006H14.0963Z" fill="white"/>
</g>
<defs>
<clipPath id="clip0_31_1457">
<rect width="50" height="50" fill="white"/>
</clipPath>
</defs>
</svg>
