<svg width="55" height="55" viewBox="0 0 55 55" fill="none" xmlns="http://www.w3.org/2000/svg">
    <path fill-rule="evenodd" clip-rule="evenodd" d="M0 9C0 4.02944 4.02944 0 9 0H45.97C50.9539 0 54.9879 4.04961 54.9737 9.03243C54.9566 15.0638 54.9444 27.5941 54.9384 34.0045C54.9379 34.5568 54.4897 34.9996 53.9374 34.9991C53.3852 34.9985 52.9379 34.5549 52.9384 34.0026C52.9444 27.591 52.9566 15.0593 52.9738 9.02676C52.9848 5.14969 49.8461 2 45.97 2H9C5.13401 2 2 5.13401 2 9V46C2 49.866 5.13401 53 9 53H45.9075C49.804 53 52.9597 49.8166 52.9478 45.9116C52.945 45.0082 52.9427 44.0416 52.9408 43.0016C52.9398 42.4493 53.3869 42.0008 53.9392 42C54.4915 41.9992 54.9398 42.4463 54.9408 42.9986C54.9427 44.0377 54.945 45.0032 54.9478 45.9055C54.9631 50.9089 50.9195 55 45.9075 55H9C4.02944 55 0 50.9706 0 46V9Z" fill="#DF0B42"/>
    <rect x="9" y="24" width="36" height="7" rx="1" stroke="#DF0B42" stroke-width="2"/>
    <rect x="9" y="12" width="36" height="7" rx="1" stroke="#DF0B42" stroke-width="2"/>
    <rect x="18" y="37" width="28" height="7" rx="2" fill="#DF0B42"/>
    <rect x="9" y="38" width="5" height="5" rx="1" stroke="#DF0B42" stroke-width="2"/>
</svg>
