<svg width="56" height="56" viewBox="0 0 56 56" fill="none" xmlns="http://www.w3.org/2000/svg">
    <path d="M47.8626 22.7828C47.8626 22.5313 47.8626 22.2906 47.8189 22.05C47.3704 19.3047 44.7782 17.0953 42.0001 17.0953C32.7688 17.0953 23.5376 17.0953 14.3063 17.0844C13.136 17.0844 12.0313 17.2485 11.0251 17.8828C11.0032 17.8938 10.9485 17.8828 10.7845 17.861C11.2438 17.4891 11.5938 17.0953 12.0204 16.8875C13.2017 16.2969 14.372 15.6188 15.6298 15.2578C21.3938 13.6063 27.1798 12.0313 32.9548 10.4563C34.2017 10.1172 35.4595 9.80002 36.7282 9.54846C37.822 9.32971 38.2813 9.70159 38.3251 10.8063C38.3798 12.075 38.3688 13.3328 38.3907 14.6016C38.3907 14.7875 38.3907 14.9625 38.3907 15.1703C39.047 15.1703 39.6485 15.1703 40.3267 15.1703C40.272 13.5625 40.2938 11.9766 40.1626 10.4125C40.0204 8.7719 39.3314 8.06096 37.7563 7.68909C37.7345 7.67815 37.7126 7.65627 37.6798 7.6344C37.3407 7.6344 37.0017 7.6344 36.6626 7.6344C35.9517 7.77659 35.2298 7.87502 34.5407 8.0719C28.372 9.75627 22.2142 11.4625 16.0454 13.1469C14.0876 13.6828 12.2501 14.4266 10.6204 15.6406C9.38447 16.5594 8.54229 17.7735 8.32354 19.3047C8.14854 20.5078 8.06104 21.7328 8.06104 22.9469C8.03916 29.5969 8.0501 36.2469 8.0501 42.9078C8.0501 45.9703 10.4892 48.3985 13.5517 48.3985C23.1657 48.3985 32.7798 48.3985 42.3938 48.3985C45.4235 48.3985 47.8735 45.9594 47.8735 42.9297C47.8626 36.2141 47.8626 29.4985 47.8626 22.7828ZM45.9704 40.9719C45.9704 41.836 45.9923 42.7 45.9157 43.5641C45.7845 45.1391 44.6032 46.2985 43.0392 46.4625C42.7329 46.4953 42.4267 46.5063 42.1204 46.5063C37.3954 46.5063 32.6704 46.5063 27.9564 46.5063C23.1985 46.5063 18.4517 46.5063 13.6938 46.5063C13.3001 46.5063 12.8845 46.4953 12.5017 46.4078C11.0579 46.0906 10.1282 45.0188 9.9751 43.5313C9.94229 43.2578 9.94229 42.9735 9.94229 42.7C9.94229 36.7063 9.94229 30.7235 9.94229 24.7297C9.94229 23.9422 9.96416 23.1547 9.99697 22.3672C10.0735 20.7813 11.6595 19.1735 13.2892 19.0313C13.5298 19.0094 13.7813 18.9985 14.0329 18.9985C23.3407 18.9985 32.6485 18.9985 41.9563 18.9875C42.8313 18.9875 43.6407 19.1516 44.3626 19.6656C45.4892 20.4531 46.0032 21.536 45.9923 22.9031C45.9595 28.9297 45.9704 34.9453 45.9704 40.9719Z" fill="#DF0B42"/>
    <path d="M40.7423 30.3734C39.4407 30.3734 38.3907 31.4234 38.3907 32.725C38.3798 34.0484 39.4516 35.1203 40.7641 35.1203C42.0548 35.1094 43.1266 34.0484 43.1266 32.7578C43.1376 31.4453 42.0548 30.3625 40.7423 30.3734Z" fill="#DF0B42"/>
</svg>
