<svg width="60" height="60" viewBox="0 0 60 60" fill="none" xmlns="http://www.w3.org/2000/svg">
<g clip-path="url(#clip0_7012_404)">
<mask id="path-1-inside-1_7012_404" fill="white">
<path d="M60 30C60 46.5685 46.5685 60 30 60C13.4315 60 0 46.5685 0 30C0 13.4315 13.4315 0 30 0C46.5685 0 60 13.4315 60 30Z"/>
</mask>
<path d="M60 30C60 46.5685 46.5685 60 30 60C13.4315 60 0 46.5685 0 30C0 13.4315 13.4315 0 30 0C46.5685 0 60 13.4315 60 30Z" fill="white"/>
<path d="M59 30C59 46.0163 46.0163 59 30 59V61C47.1208 61 61 47.1208 61 30H59ZM30 59C13.9837 59 1 46.0163 1 30H-1C-1 47.1208 12.8792 61 30 61V59ZM1 30C1 13.9837 13.9837 1 30 1V-1C12.8792 -1 -1 12.8792 -1 30H1ZM30 1C46.0163 1 59 13.9837 59 30H61C61 12.8792 47.1208 -1 30 -1V1Z" fill="#E7EBEE" mask="url(#path-1-inside-1_7012_404)"/>
<path d="M46.5732 28.4608V24.3665H42.3902V18H37.6749V24.3717H22.8981V18H18.1828V24.3717H14V28.466H18.1828V30.5778H14V34.6721H18.1828V41.0385H22.8981V34.6669H37.6749V41.0385H42.3902V34.6669H46.5732V30.5726H42.3902V28.4608H46.5732ZM37.6749 30.5726H22.8981V28.4608H37.6749V30.5726Z" fill="#0F1319"/>
</g>
<defs>
<clipPath id="clip0_7012_404">
<rect width="60" height="60" fill="white"/>
</clipPath>
</defs>
</svg>
