<svg width="32" height="32" viewBox="0 0 32 32" fill="none" xmlns="http://www.w3.org/2000/svg">
<g clip-path="url(#clip0)">
<g filter="url(#filter0_d)">
<path d="M16 30C24.2843 30 31 23.2843 31 15C31 6.71573 24.2843 0 16 0C7.71573 0 1 6.71573 1 15C1 23.2843 7.71573 30 16 30Z" fill="black"/>
</g>
<path d="M16 30C24.2843 30 31 23.2843 31 15C31 6.71573 24.2843 0 16 0C7.71573 0 1 6.71573 1 15C1 23.2843 7.71573 30 16 30Z" fill="#48BEFF"/>
<path style="mix-blend-mode:soft-light" d="M16 30C24.2843 30 31 23.2843 31 15C31 6.71573 24.2843 0 16 0C7.71573 0 1 6.71573 1 15C1 23.2843 7.71573 30 16 30Z" fill="url(#paint0_linear)"/>
<path d="M16 29.5C24.0081 29.5 30.5 23.0081 30.5 15C30.5 6.99187 24.0081 0.5 16 0.5C7.99187 0.5 1.5 6.99187 1.5 15C1.5 23.0081 7.99187 29.5 16 29.5Z" stroke="black" stroke-opacity="0.097"/>
<g clip-path="url(#clip1)">
<path d="M20.9171 22.3899L7.93195 14.3912C7.48956 14.1186 7.12845 13.7564 6.87915 13.3354C6.62985 12.9144 6.49969 12.4468 6.49969 11.9723C6.49969 11.4977 6.62985 11.0302 6.87915 10.6092C7.12845 10.1881 7.48956 9.82598 7.93195 9.55338L11.0792 7.61111L24.0643 15.6088C24.5067 15.8814 24.8678 16.2436 25.1171 16.6646C25.3664 17.0856 25.4966 17.5532 25.4966 18.0277C25.4966 18.5023 25.3664 18.9698 25.1171 19.3908C24.8678 19.8119 24.5067 20.174 24.0643 20.4466L20.9171 22.3899ZM11.0769 8.90729L8.62479 10.4132C8.33963 10.5882 8.10677 10.821 7.94598 11.0919C7.7852 11.3628 7.70125 11.6638 7.70125 11.9693C7.70125 12.2748 7.7852 12.5757 7.94598 12.8467C8.10677 13.1176 8.33963 13.3504 8.62479 13.5254L20.9194 21.0937L23.3715 19.5878C23.6567 19.4128 23.8895 19.18 24.0503 18.909C24.2111 18.6381 24.2951 18.3372 24.2951 18.0317C24.2951 17.7262 24.2111 17.4252 24.0503 17.1543C23.8895 16.8834 23.6567 16.6506 23.3715 16.4756L11.0769 8.90729Z" fill="white" fill-opacity="0.8"/>
<path d="M11.0657 21.0935L8.61702 19.5856C8.33185 19.4106 8.09899 19.1778 7.93821 18.9069C7.77743 18.636 7.69348 18.335 7.69348 18.0295C7.69348 17.724 7.77743 17.4231 7.93821 17.1522C8.09899 16.8813 8.33185 16.6484 8.61702 16.4734L14.9568 12.5889L13.9152 11.9448L7.9321 15.6096C7.48972 15.8822 7.1286 16.2444 6.8793 16.6654C6.63 17.0864 6.49985 17.554 6.49985 18.0285C6.49985 18.5031 6.63 18.9706 6.8793 19.3917C7.1286 19.8127 7.48972 20.1748 7.9321 20.4474L11.068 22.3808L14.9488 19.9952L13.9073 19.351L11.0657 21.0935ZM24.069 9.55817L20.9297 7.62484L17.0466 10.0104L18.0882 10.6546L20.9252 8.91108L23.3739 10.419C23.6591 10.594 23.8919 10.8268 24.0527 11.0977C24.2135 11.3686 24.2975 11.6696 24.2975 11.9751C24.2975 12.2806 24.2135 12.5815 24.0527 12.8524C23.8919 13.1233 23.6591 13.3562 23.3739 13.5312L17.0342 17.4157L18.0757 18.0598L24.0622 14.388C24.5046 14.1154 24.8657 13.7533 25.115 13.3322C25.3643 12.9112 25.4945 12.4436 25.4945 11.9691C25.4945 11.4946 25.3643 11.027 25.115 10.606C24.8657 10.185 24.5046 9.82282 24.0622 9.55022L24.069 9.55817Z" fill="white"/>
<path d="M8.67477 15.1456L13.613 12.1119L14.3013 12.9747L9.36309 16.0094L8.67477 15.1456Z" fill="white"/>
<path d="M22.7411 13.923L20.3365 15.3981L21.0237 16.2619L23.5143 14.7281C23.2494 14.4627 22.9935 14.1914 22.7366 13.919L22.7411 13.923Z" fill="white"/>
</g>
</g>
<defs>
<filter id="filter0_d" x="0" y="-0.5" width="32" height="32" filterUnits="userSpaceOnUse" color-interpolation-filters="sRGB">
<feFlood flood-opacity="0" result="BackgroundImageFix"/>
<feColorMatrix in="SourceAlpha" type="matrix" values="0 0 0 0 0 0 0 0 0 0 0 0 0 0 0 0 0 0 127 0"/>
<feOffset dy="0.5"/>
<feGaussianBlur stdDeviation="0.5"/>
<feColorMatrix type="matrix" values="0 0 0 0 0 0 0 0 0 0 0 0 0 0 0 0 0 0 0.199474 0"/>
<feBlend mode="normal" in2="BackgroundImageFix" result="effect1_dropShadow"/>
<feBlend mode="normal" in="SourceGraphic" in2="effect1_dropShadow" result="shape"/>
</filter>
<linearGradient id="paint0_linear" x1="16" y1="0" x2="16" y2="30" gradientUnits="userSpaceOnUse">
<stop stop-color="white" stop-opacity="0.5"/>
<stop offset="1" stop-opacity="0.5"/>
</linearGradient>
<clipPath id="clip0">
<rect width="32" height="32" fill="white"/>
</clipPath>
<clipPath id="clip1">
<rect width="19" height="14.7778" fill="white" transform="translate(6.5 7.61111)"/>
</clipPath>
</defs>
</svg>
