<svg width="60" height="60" viewBox="0 0 60 60" fill="none" xmlns="http://www.w3.org/2000/svg">
<g clip-path="url(#clip0)">
<path fill-rule="evenodd" clip-rule="evenodd" d="M60 30C60 46.5686 46.5686 60 30 60C13.4315 60 0 46.5686 0 30C0 13.4315 13.4315 0 30 0C46.5686 0 60 13.4315 60 30ZM43.7238 44.3529C43.1596 44.6997 42.5241 45.0274 41.8006 45.3324C40.7052 45.794 39.4568 46.0248 38.0544 46.0248H37.6512C37.5162 46.0248 37.372 46.015 37.219 45.9958C36.4497 45.9384 35.7204 45.5539 35.0282 44.8418C34.3371 44.1302 33.7028 43.2748 33.1264 42.2744C32.5697 41.2555 32.0895 40.1879 31.6857 39.0727C31.3017 37.9378 31.023 36.9182 30.8498 36.0147C32.0796 35.803 33.3477 35.4568 34.654 34.9761C35.9794 34.4953 37.2671 33.9084 38.5155 33.2166C39.7638 32.5241 40.9363 31.7354 42.0306 30.8505C43.1451 29.9469 44.1154 28.9663 44.9415 27.9085C45.7669 26.8316 46.4204 25.6874 46.9006 24.4753C47.4005 23.2447 47.6496 21.9561 47.6496 20.6095C47.6496 18.61 47.2366 16.8597 46.4111 15.3595C45.6042 13.8592 44.5087 12.6193 43.126 11.6381C41.7427 10.6377 40.1479 9.88787 38.3423 9.38797C36.5558 8.88807 34.6829 8.63812 32.7232 8.63812C30.7253 8.63812 28.8333 8.8498 27.0468 9.27256C25.2597 9.67619 23.6076 10.2248 22.0899 10.9167C20.5913 11.59 19.2369 12.3787 18.0274 13.2828C16.8167 14.1671 15.789 15.0904 14.9433 16.0519C14.1178 17.0134 13.4742 17.9749 13.0131 18.9365C12.5717 19.898 12.3504 20.7928 12.3504 21.6198C12.3504 22.5042 12.5908 23.1966 13.0704 23.6965C13.5507 24.1773 14.2713 24.4179 15.2317 24.4179C15.9425 24.4179 16.538 24.2544 17.0183 23.9273C17.4991 23.6002 17.9312 23.1775 18.3153 22.6584C18.7185 22.1388 19.1031 21.5427 19.468 20.8694C19.833 20.1961 20.2362 19.5042 20.6782 18.7926C21.1393 18.0805 21.6769 17.3886 22.2921 16.7153C22.9258 16.042 23.6945 15.4465 24.597 14.9268C25.5192 14.4072 26.6042 13.9845 27.8538 13.6574C29.1212 13.3303 30.6297 13.1668 32.3774 13.1668C33.9339 13.1668 35.2686 13.3494 36.3825 13.7154C37.5162 14.0807 38.4384 14.5708 39.1492 15.1867C39.8791 15.802 40.4074 16.5228 40.7341 17.3498C41.08 18.1768 41.2526 19.0519 41.2526 19.9751C41.2526 21.2637 40.9265 22.5906 40.273 23.9563C39.6387 25.3215 38.7646 26.5619 37.6512 27.6777C36.5366 28.7929 35.2304 29.7161 33.7317 30.4468C32.2523 31.1584 30.6778 31.5145 29.006 31.5145H28.6022C28.4869 31.5145 28.3722 31.5046 28.2569 31.4855C28.7563 30.4277 29.2365 29.3989 29.6976 28.3985C30.1587 27.3796 30.5619 26.4465 30.9077 25.6004C31.2536 24.7543 31.5322 24.0044 31.7431 23.3503C31.9551 22.6961 32.0605 22.1869 32.0605 21.8216C32.0605 21.4562 32.0032 21.1582 31.8873 20.9273C31.772 20.6774 31.6382 20.4947 31.4841 20.3787C31.33 20.2442 31.158 20.1578 30.9657 20.1195C30.7733 20.0615 30.61 20.0331 30.4756 20.0331C29.9762 20.0331 29.4091 20.3213 28.7754 20.8984C28.1608 21.4562 27.4981 22.2061 26.7873 23.1485C26.0951 24.0908 25.375 25.1776 24.626 26.4082C23.8955 27.6197 23.1662 28.8799 22.4357 30.187L13.9353 45.765C13.7239 46.1692 13.5605 46.6019 13.4452 47.0635C13.33 47.5251 13.2726 47.9769 13.2726 48.4193C13.2726 48.7273 13.3108 49.0538 13.3879 49.4C13.484 49.7462 13.6376 50.0634 13.849 50.3522C14.0599 50.6405 14.3582 50.8811 14.7422 51.0731C15.1263 51.2656 15.6257 51.3619 16.2409 51.3619C16.9899 51.3619 17.6815 51.0922 18.3153 50.5541C18.949 50.0153 19.5451 49.3136 20.1018 48.4483C20.6591 47.5634 21.1682 46.5729 21.6288 45.4768C22.0899 44.361 22.5319 43.236 22.9542 42.1016C23.3771 40.9667 23.7715 39.8707 24.1365 38.8129C24.5009 37.7359 24.8565 36.8034 25.2018 36.0147C25.817 38.0149 26.5185 39.9188 27.3058 41.7264C28.0936 43.5149 28.9671 45.0825 29.9282 46.4285C30.8886 47.775 31.9551 48.8421 33.1264 49.6308C34.2983 50.4195 35.5762 50.8139 36.9589 50.8139C38.6493 50.8139 40.2096 50.4073 41.8006 49.173C42.9656 48.2692 43.7238 46.9373 43.9646 45.3324C44.2053 43.7275 43.7238 44.3529 43.7238 44.3529Z" fill="#6830FB"/>
</g>
<defs>
<clipPath id="clip0">
<rect width="60" height="60" fill="white"/>
</clipPath>
</defs>
</svg>
