<svg width="60" height="60" viewBox="0 0 60 60" fill="none" xmlns="http://www.w3.org/2000/svg">
<rect x="0.5" y="0.5" width="59" height="59" rx="29.5" fill="#6590FF"/>
<path d="M42.5109 25.7708C41.4648 21.7453 39.1415 18.8026 35.351 17.1576C32.4979 15.9222 29.5225 15.721 26.5064 16.3387C22.1996 17.2201 19.0204 19.6424 17.2067 23.772C15.916 26.7078 15.7122 29.7964 16.3507 32.9196C17.0368 36.2858 18.7759 38.9787 21.6289 40.8665C24.4005 42.6988 27.4438 43.3165 30.7045 42.8515C33.0821 42.5114 35.12 41.4911 36.7572 39.6727C37.484 38.8676 38.0275 37.9445 38.5369 36.9729C38.5369 37.0839 38.5369 37.2019 38.5369 37.313C38.5369 38.8468 38.5437 40.3876 38.5301 41.9215C38.5234 42.2615 38.632 42.3448 38.9513 42.3379C40.1401 42.3171 41.3289 42.331 42.5177 42.331C42.9932 42.331 42.9932 42.331 42.9932 41.8659C42.9932 38.1597 42.9864 34.4535 43 30.7403C42.9932 29.0745 42.9389 27.4088 42.5109 25.7708ZM36.5602 34.9601C35.2015 36.8965 33.3131 37.9654 31.0238 38.2916C29.0674 38.5692 27.1585 38.3748 25.3787 37.4379C23.0012 36.1886 21.6357 34.155 21.1263 31.5176C20.7458 29.5534 20.8817 27.6101 21.6425 25.7431C22.7634 23.0085 24.8013 21.3844 27.6272 20.8084C29.6176 20.4058 31.5808 20.5654 33.4285 21.44C36.0167 22.6684 37.4704 24.7992 37.9935 27.624C38.109 28.2417 38.1294 28.8802 38.1973 29.5118C38.1565 31.4968 37.6946 33.343 36.5602 34.9601Z" fill="black"/>
<rect x="0.5" y="0.5" width="59" height="59" rx="29.5" stroke="#E7EBEE"/>
</svg>
