<svg width="60" height="60" viewBox="0 0 60 60" fill="none" xmlns="http://www.w3.org/2000/svg">
<mask id="mask0" style="mask-type:alpha" maskUnits="userSpaceOnUse" x="0" y="0" width="60" height="60">
<circle cx="30" cy="30" r="30" fill="white"/>
</mask>
<g mask="url(#mask0)">
<circle cx="30" cy="30" r="30" fill="white"/>
<path d="M60 30C60 46.5685 46.5685 60 30 60C13.4315 60 0 46.5685 0 30C0 13.4315 13.4315 0 30 0C46.5685 0 60 13.4315 60 30Z" fill="#A400A7"/>
<path d="M30.6131 13.3725C31.0657 13.3725 31.7445 13.6013 32.1971 13.8301L43.0584 20.2353C43.9635 20.6928 44.6423 21.8366 44.6423 22.9804V35.7908C44.6423 36.9346 43.9635 38.0784 43.0584 38.5359L32.1971 44.9412C31.7445 45.1699 31.0657 45.3987 30.6131 45.3987C30.1606 45.3987 29.4818 45.1699 29.0292 44.9412L18.1679 38.5359C17.2628 38.0784 16.5839 36.9346 16.5839 35.7908V22.9804C16.5839 21.8366 17.2628 20.6928 18.1679 20.2353L29.0292 13.8301C29.4818 13.6013 29.9343 13.3725 30.6131 13.3725ZM30.6131 12C29.708 12 29.0292 12.2288 28.3504 12.6863L17.2628 19.0915C15.9051 20.0065 15 21.3791 15 23.2092V36.0196C15 37.6209 15.9051 39.2222 17.2628 40.1373L28.3504 46.3137C29.0292 46.7712 29.9343 47 30.6131 47C31.292 47 32.1971 46.7712 32.8759 46.3137L43.7372 39.9085C45.0949 38.9935 46 37.6209 46 35.7908V22.9804C46 21.3791 45.0949 19.7778 43.7372 18.8627L32.8759 12.6863C32.1971 12.2288 31.292 12 30.6131 12Z" fill="white"/>
<path d="M30.5 19.3529C30.7234 19.3529 30.9468 19.3529 31.1702 19.5784L38.9894 24.0882C39.4362 24.3137 39.6596 24.7647 39.6596 25.2157V34.2353C39.6596 34.6863 39.4362 35.1373 38.9894 35.3627L31.1702 39.8725C30.9468 39.8725 30.7234 40.098 30.5 40.098C30.2766 40.098 30.0532 40.098 29.8298 39.8725L22.0106 35.3627C21.5638 34.9118 21.3404 34.4608 21.3404 34.0098V24.9902C21.3404 24.5392 21.5638 24.0882 22.0106 23.8627L29.8298 19.3529C30.0532 19.3529 30.2766 19.3529 30.5 19.3529ZM30.5 18C30.0532 18 29.6064 18 29.1596 18.2255L21.3404 22.7353C20.6702 23.1863 20 24.0882 20 24.9902V34.0098C20 34.9118 20.4468 35.8137 21.3404 36.2647L29.1596 40.7745C29.6064 41 30.0532 41 30.5 41C30.9468 41 31.3936 41 31.8404 40.7745L39.6596 36.2647C40.3298 35.8137 41 34.9118 41 34.0098V24.9902C41 24.0882 40.5532 23.1863 39.6596 22.7353L31.8404 18.2255C31.3936 18 30.9468 18 30.5 18Z" fill="white"/>
<path d="M30.617 24.2264L34.8298 26.9245V32.0755L30.617 34.5283L26.1702 31.8302V26.6792L30.617 24.2264ZM30.617 23C30.383 23 30.1489 23 29.9149 23.2453L25.7021 25.6981C25.234 25.9434 25 26.434 25 26.9245V32.0755C25 32.566 25.234 33.0566 25.7021 33.3019L29.9149 35.7547C30.1489 35.7547 30.383 36 30.617 36C30.8511 36 31.0851 36 31.3191 35.7547L35.5319 33.3019C35.766 32.8113 36 32.3208 36 31.8302V26.9245C36 26.434 35.766 25.9434 35.2979 25.6981L31.0851 23.2453C31.0851 23 30.8511 23 30.617 23Z" fill="white"/>
</g>
</svg>
