<svg width="60" height="60" viewBox="0 0 60 60" fill="none" xmlns="http://www.w3.org/2000/svg">
<circle cx="30" cy="30" r="29.5" fill="white" stroke="#E7EBEE"/>
<g clip-path="url(#clip0_246_1663)">
<path d="M39.5779 37.3406H14.8715L31.8591 8.00134H27.2236L8.00037 41.3235L41.8801 41.3205L39.5779 37.3406Z" fill="url(#paint0_linear_246_1663)"/>
<path d="M31.8591 8.00128L51.0997 41.2919L48.787 45.3046L31.8347 15.9808V8.04333L31.8591 8.00128ZM31.8347 15.9808V8.04333L31.8583 8.00128L14.8707 37.341L19.4961 37.3481L31.8347 15.9808Z" fill="url(#paint1_linear_246_1663)"/>
<path d="M8 41.323L10.3076 45.31H48.7874L35.3302 22.0013L31.8415 15.9854L29.546 19.959L41.8818 41.323H8Z" fill="#5B5A68"/>
</g>
<defs>
<linearGradient id="paint0_linear_246_1663" x1="35.3239" y1="24.0504" x2="12.2716" y2="42.2906" gradientUnits="userSpaceOnUse">
<stop stop-color="#DEEDF8"/>
<stop offset="0.11" stop-color="#DEEDF8"/>
<stop offset="1" stop-color="#BCC9D0"/>
</linearGradient>
<linearGradient id="paint1_linear_246_1663" x1="24.1054" y1="17.3617" x2="36.8579" y2="48.8904" gradientUnits="userSpaceOnUse">
<stop stop-color="#CDCDCF"/>
<stop offset="1" stop-color="#939393"/>
</linearGradient>
<clipPath id="clip0_246_1663">
<rect width="43.1001" height="37.31" fill="white" transform="translate(8 8)"/>
</clipPath>
</defs>
</svg>
