<svg width="60" height="60" viewBox="0 0 60 60" fill="none" xmlns="http://www.w3.org/2000/svg">
<rect width="60" height="60" rx="30" fill="#14202C"/>
<path d="M40.6444 32.235H45.5573C45.6721 32.2351 45.7826 32.1898 45.8653 32.1085C45.9479 32.0274 45.9962 31.9167 46 31.8V28.1999C46 28.0806 45.9534 27.9661 45.8703 27.8818C45.7873 27.7975 45.6746 27.75 45.5573 27.75H38.6723L33.2487 15.357C33.2029 15.2516 33.1281 15.1619 33.0333 15.0986C32.9386 15.0353 32.8278 15.0011 32.7145 15H28.2858C28.172 15.0005 28.0606 15.0345 27.9653 15.0978C27.87 15.1612 27.7947 15.2512 27.7485 15.357L22.328 27.735H15.4431C15.3837 27.735 15.3249 27.7471 15.2701 27.7707C15.2154 27.7941 15.1659 27.8286 15.1246 27.872C15.0833 27.9154 15.051 27.9668 15.0296 28.0232C15.0083 28.0796 14.9983 28.1397 15.0002 28.1999V31.8C15.0002 31.9194 15.0469 32.0338 15.13 32.1182C15.213 32.2025 15.3256 32.25 15.4431 32.25H20.3558L15.0416 44.382C15.0148 44.4496 15.0046 44.5227 15.0117 44.5951C15.0189 44.6676 15.0433 44.7372 15.0828 44.798C15.1223 44.8588 15.1757 44.909 15.2385 44.9441C15.3012 44.9793 15.3714 44.9985 15.4431 45H19.3963C19.5107 45 19.6227 44.9664 19.7186 44.9029C19.8145 44.8396 19.8903 44.7493 19.9366 44.643L30.5001 20.535L41.0637 44.643C41.11 44.7493 41.1858 44.8396 41.2817 44.9029C41.3776 44.9664 41.4896 45 41.6039 45H45.5573C45.631 45 45.7037 44.9812 45.7684 44.9454C45.8333 44.9096 45.8883 44.8579 45.9285 44.795C45.9687 44.7321 45.9928 44.66 45.9986 44.5853C46.0043 44.5105 45.9916 44.4354 45.9617 44.3669L40.6444 32.235Z" fill="white"/>
</svg>
