<svg width="61" height="60" viewBox="0 0 61 60" fill="none" xmlns="http://www.w3.org/2000/svg">
<g clip-path="url(#clip0_862_409)">
<circle cx="30.9905" cy="30" r="30" fill="#1F1A23"/>
<circle cx="30.9905" cy="30" r="29.5" stroke="#223349" stroke-opacity="0.8"/>
<path d="M38.3562 37.2848C37.0226 39.7993 34.3969 41.5081 31.3545 41.5081C26.9783 41.5081 23.4358 37.9655 23.4358 33.5894C23.4358 29.2133 26.9783 25.6707 31.3545 25.6707C34.3969 25.6707 37.0226 27.3795 38.3562 29.894H46.5944C44.9412 23.0034 38.7591 17.8632 31.3545 17.8632C22.6856 17.8632 15.656 24.8927 15.656 33.5616C15.656 42.2305 22.6856 49.26 31.3545 49.26C38.7313 49.26 44.9135 44.1615 46.5806 37.2987H38.3562V37.2848Z" fill="#FFB0C2"/>
<path d="M43.7604 23.9758C45.5247 22.531 46.6639 20.336 46.6639 17.877C46.6639 13.5287 43.1352 10 38.7869 10C34.4386 10 30.9099 13.5287 30.9099 17.877C31.0627 17.877 31.2017 17.877 31.3545 17.877C36.4113 17.8631 40.8986 20.2526 43.7604 23.9758Z" fill="#CB8EE9"/>
<path d="M38.7869 25.7402C40.6763 25.7402 42.399 25.0734 43.7604 23.9759C40.8986 20.2666 36.4113 17.8771 31.3545 17.8771C31.2017 17.8771 31.0627 17.8771 30.9099 17.8771C30.9099 22.2115 34.4386 25.7402 38.7869 25.7402Z" fill="#CB65B7"/>
</g>
<defs>
<clipPath id="clip0_862_409">
<rect width="60" height="60" fill="white" transform="translate(0.990479)"/>
</clipPath>
</defs>
</svg>
