<svg width="60" height="60" viewBox="0 0 60 60" fill="none" xmlns="http://www.w3.org/2000/svg">
<g clip-path="url(#clip0_4033_407)">
<rect width="60" height="60" rx="30" fill="white"/>
<g clip-path="url(#clip1_4033_407)">
<path d="M36.4897 8.55679L12.4657 19.0928C10.2542 20.0627 9.25964 22.6148 10.2442 24.7931C11.2288 26.9714 13.8198 27.9511 16.0312 26.9813L40.0553 16.4453C42.2668 15.4754 43.2613 12.9233 42.2767 10.7449C41.2921 8.56659 38.7012 7.58693 36.4897 8.55679Z" fill="#37BEC1"/>
<path d="M29.8258 25.6568L13.8096 32.6809C11.5981 33.6508 10.6036 36.2029 11.5882 38.3812C12.5728 40.5596 15.1637 41.5393 17.3752 40.5694L33.3914 33.5453C35.6029 32.5754 36.5974 30.0233 35.6128 27.845C34.6282 25.6666 32.0373 24.687 29.8258 25.6568Z" fill="#FBB144"/>
<path d="M47.186 32.2208L23.162 42.7569C20.9505 43.7267 19.956 46.2788 20.9406 48.4572C21.9252 50.6355 24.5161 51.6152 26.7276 50.6453L50.7516 40.1093C52.9631 39.1395 53.9576 36.5873 52.973 34.409C51.9884 32.2307 49.3975 31.251 47.186 32.2208Z" fill="#E4615E"/>
</g>
</g>
<defs>
<clipPath id="clip0_4033_407">
<rect width="60" height="60" rx="30" fill="white"/>
</clipPath>
<clipPath id="clip1_4033_407">
<rect width="217" height="50" fill="white" transform="translate(9 2)"/>
</clipPath>
</defs>
</svg>
