<svg width="60" height="60" viewBox="0 0 60 60" fill="none" xmlns="http://www.w3.org/2000/svg">
<g clip-path="url(#clip0)">
<path fill-rule="evenodd" clip-rule="evenodd" d="M19.2678 42.1387C18.9595 42.7553 18.3044 43.1407 17.6108 43.1407V43.1599H3.02505C1.079 39.1907 0 34.7206 0 30.0193C0 13.4297 13.4489 0 30.0193 0C38.6127 0 46.3391 3.60308 51.8112 9.38343H37.6879C36.9942 9.38343 36.3584 9.76878 36.0308 10.3854L27.6493 26.262H16.8593C15.8381 26.262 14.9904 27.0906 14.9904 28.131V31.8882C14.9904 32.9094 15.8189 33.7572 16.8593 33.7572H23.6802L19.2678 42.1387ZM40.7322 17.8613C41.0405 17.2447 41.6956 16.8594 42.3892 16.8594V16.8401H56.975C58.921 20.8093 60 25.2794 60 29.9807C60 46.5703 46.5511 60 29.9808 60C21.3873 60 13.6609 56.3969 8.18886 50.6166H22.3122C23.0058 50.6166 23.6416 50.2312 23.9692 49.6146L32.3507 33.738H43.1407C44.1619 33.738 45.0097 32.9095 45.0097 31.869V28.1118C45.0097 27.0906 44.1811 26.2428 43.1407 26.2428H36.3199L40.7322 17.8613Z" fill="#9B1C2E"/>
</g>
<defs>
<clipPath id="clip0">
<rect width="60" height="60" fill="white"/>
</clipPath>
</defs>
</svg>
