<svg width="60" height="60" viewBox="0 0 60 60" fill="none" xmlns="http://www.w3.org/2000/svg">
<path d="M0 30C0 13.4314 13.4314 0 30 0C46.5686 0 60 13.4314 60 30C60 46.5686 46.5686 60 30 60C13.4314 60 0 46.5686 0 30Z" fill="#1F1A23"/>
<path d="M0.5 30C0.5 13.7076 13.7076 0.5 30 0.5C46.2924 0.5 59.5 13.7076 59.5 30C59.5 46.2924 46.2924 59.5 30 59.5C13.7076 59.5 0.5 46.2924 0.5 30Z" stroke="#223349" stroke-opacity="0.8"/>
<path fill-rule="evenodd" clip-rule="evenodd" d="M13.7427 25.7675H9V22.9264H13.7427C13.7427 22.849 13.7427 22.7827 13.7427 22.7163C13.7537 21.8872 13.7316 21.058 13.7869 20.2289C13.8864 18.637 14.2954 17.1445 15.2462 15.84C16.2411 14.4692 17.623 13.6953 19.2371 13.2973C20.5527 12.9767 21.9014 12.9435 23.2391 13.0652C24.632 13.1868 26.0029 13.5074 27.3074 14.0048C27.3848 14.038 27.4511 14.0601 27.5395 14.1043L26.7436 16.6691C26.5556 16.5918 26.3787 16.5254 26.1908 16.4591C24.4662 15.8179 22.6753 15.6521 20.8622 15.9284C18.7949 16.249 17.5567 17.5536 17.214 19.6209C17.0924 20.3726 17.1034 21.1244 17.1034 21.8761C17.1034 22.2188 17.1034 22.5615 17.1034 22.9264H25.4943V25.7565H17.1366V43.29H13.7427V25.7675Z" fill="white"/>
<path fill-rule="evenodd" clip-rule="evenodd" d="M40.8831 34.5784C40.872 34.5674 40.8721 34.5563 40.861 34.5453C40.861 34.5342 40.872 34.5232 40.8831 34.5121C41.7122 33.0197 42.5635 31.4609 43.3926 29.9684C43.7132 29.3936 44.0559 28.8076 44.3876 28.1996H41.1816C41.1816 28.1996 39.7665 31.3724 39.1143 32.7764H39.0369C38.3294 31.3503 36.7927 28.1996 36.7927 28.1996L33.4209 28.1775C33.4651 28.2659 35.8641 32.5664 36.9806 34.5121C36.9917 34.5232 36.9917 34.5342 37.0027 34.5453L36.9806 34.5784C35.8751 36.502 33.4319 40.8799 33.3877 40.9683L36.7927 40.9462C36.7927 40.9462 38.3294 37.8287 39.0369 36.4357H39.1143C39.7555 37.8287 41.1816 40.9462 41.1816 40.9462H44.4208C44.078 40.3492 41.7122 36.0377 40.8831 34.5784Z" fill="#F8DB00"/>
<path fill-rule="evenodd" clip-rule="evenodd" d="M32.2158 41.9634C31.652 42.4167 31.0661 42.892 30.5355 43.3232C25.8038 39.0227 25.2842 30.7645 30.5133 25.7676C31.0551 26.2098 31.641 26.6852 32.2048 27.1384C32.0611 27.3042 31.9174 27.4701 31.7847 27.6248C30.646 28.9625 29.85 30.4439 29.5184 32.1796C29.3083 33.274 29.2641 34.3796 29.3415 35.4961C29.4299 36.7454 29.7174 37.9504 30.2591 39.0891C30.7234 40.073 31.3314 40.9684 32.0611 41.7755C32.1053 41.8307 32.1495 41.886 32.2158 41.9634Z" fill="#F8DB00"/>
<path fill-rule="evenodd" clip-rule="evenodd" d="M45.5706 41.9634C46.1233 42.4167 46.7092 42.892 47.2509 43.3232C51.9826 39.0227 52.5022 30.7645 47.2731 25.7676C46.7314 26.2098 46.1454 26.6852 45.5816 27.1384C45.7253 27.3042 45.869 27.4701 46.0017 27.6248C47.1404 28.9625 47.9364 30.4439 48.268 32.1796C48.4781 33.274 48.5223 34.3796 48.4449 35.4961C48.3565 36.7454 48.069 37.9504 47.5273 39.0891C47.063 40.073 46.455 40.9684 45.7253 41.7755C45.6811 41.8307 45.6369 41.886 45.5706 41.9634Z" fill="#F8DB00"/>
</svg>
