<svg width="60" height="60" viewBox="0 0 60 60" fill="none" xmlns="http://www.w3.org/2000/svg">
<g clip-path="url(#clip0_8382_404)">
<circle cx="30" cy="30" r="29.5" fill="white" stroke="#E7EBEE"/>
<path d="M32.8135 46.1311V32.9252C35.9623 33.2626 38.0991 34.7085 38.0991 34.7085L40.1073 32.4433C36.8138 30.0977 31.9299 30.0013 31.9299 30.0013L31.1266 21.1331C31.6568 20.7797 32.0102 20.1852 32.0102 19.4944C32.0102 18.418 31.1266 17.5344 30.0502 17.5344C28.9738 17.5344 28.0902 18.418 28.0902 19.4944C28.0902 20.1852 28.4437 20.7957 28.9738 21.1331L28.1705 30.0013C28.1705 30.0013 23.2866 30.0816 19.9932 32.4433L22.0014 34.7085C22.0014 34.7085 24.1381 33.2626 27.2869 32.9252V46.1311C14.9807 37.0059 13.9686 23.7518 14.0007 19.3498C14.0007 18.4341 14.5469 17.5987 15.3823 17.2292C17.8404 16.1367 23.4473 14 30.0342 14C36.621 14 42.2279 16.1367 44.686 17.2292C45.5214 17.5987 46.0676 18.4341 46.0676 19.3498C46.0997 23.7518 45.0876 37.0059 32.8135 46.1311Z" fill="#FFAF1D"/>
</g>
<defs>
<clipPath id="clip0_8382_404">
<rect width="60" height="60" fill="white"/>
</clipPath>
</defs>
</svg>
