<svg width="60" height="60" viewBox="0 0 60 60" fill="none" xmlns="http://www.w3.org/2000/svg">
<g clip-path="url(#clip0_6181_404)">
<circle cx="30" cy="30" r="30" fill="#0A0F1E"/>
<circle cx="30" cy="30" r="29.5" stroke="#223349" stroke-opacity="0.8"/>
<g clip-path="url(#clip1_6181_404)">
<path d="M50.8846 41.5231C51.2101 42.0803 50.8083 42.7806 50.1629 42.7806H42.9011C42.6044 42.7806 42.33 42.6234 42.18 42.3672L28.0888 18.3184C27.7624 17.7612 28.1642 17.0601 28.81 17.0601H36.1123C36.4094 17.0601 36.6842 17.2177 36.834 17.4742L50.8846 41.5231Z" fill="white"/>
<path d="M31.3296 34.986C31.4969 35.2676 31.4842 35.6209 31.2975 35.8899L27.2567 41.7063C26.9084 42.2075 26.1577 42.1787 25.8491 41.652L12.1771 18.3184C11.8506 17.7612 12.2524 17.0601 12.8983 17.0601H20.2046C20.4995 17.0601 20.7726 17.2155 20.9232 17.469L31.3296 34.986Z" fill="white"/>
<path d="M18.6608 41.2903C18.9913 41.8476 18.5898 42.5526 17.9419 42.5526H12.9319C12.4703 42.5526 12.0961 42.1784 12.0961 41.7169V33.2713C12.0961 32.4214 13.2171 32.1139 13.6508 32.8449L18.6608 41.2903Z" fill="white"/>
</g>
</g>
<defs>
<clipPath id="clip0_6181_404">
<rect width="60" height="60" rx="30" fill="white"/>
</clipPath>
<clipPath id="clip1_6181_404">
<rect width="39" height="25.8243" fill="white" transform="translate(12 17)"/>
</clipPath>
</defs>
</svg>
