<svg width="60" height="60" viewBox="0 0 60 60" fill="none" xmlns="http://www.w3.org/2000/svg">
<g clip-path="url(#clip0_2378_410)">
<circle cx="30" cy="30" r="30" fill="white"/>
<path d="M20.202 49.4259C18.0106 47.6613 16.0021 46.0442 14 44.4335C15.3315 42.7394 16.6855 41.1287 17.9144 39.4282C20.2887 36.1459 22.2394 32.6455 22.9774 28.5899C23.5196 25.5996 22.9966 22.8178 21.3475 20.251C20.5774 19.0542 20.0897 17.7676 20.4651 16.3142C21.1453 13.6896 23.9303 12.5442 26.6575 13.7442C28.2843 14.4597 29.2115 15.7816 29.8276 17.373C29.9142 17.5944 29.988 17.819 30.1003 18.1302C33.5462 16.5099 37.021 16.4457 40.4477 18.0403C42.7578 19.1152 44.5546 20.8029 45.7481 23.0873C48.0615 27.5215 47.0797 33.1267 43.5375 36.3866C39.6488 39.9737 33.9537 40.1822 31.2938 38.4849C31.9612 36.3802 32.6286 34.285 33.2671 32.2733C34.0788 32.3792 34.8874 32.5685 35.6959 32.5717C37.6242 32.5781 39.4787 30.9867 39.7835 29.1514C40.1782 26.7803 39.0456 24.7975 36.8445 24.005C34.9451 23.3215 32.6446 24.0948 31.7815 25.9365C31.1815 27.2167 30.8094 28.6348 30.5366 30.0337C29.6415 34.6091 27.7805 38.7705 25.2201 42.6175C23.6736 44.9404 21.9154 47.119 20.202 49.4259Z" fill="#2BBFFF"/>
</g>
<defs>
<clipPath id="clip0_2378_410">
<rect width="60" height="60" fill="white"/>
</clipPath>
</defs>
</svg>
