<svg width="60" height="60" viewBox="0 0 60 60" fill="none" xmlns="http://www.w3.org/2000/svg">
<g clip-path="url(#clip0_9152_404)">
<circle cx="30" cy="30" r="30" fill="black"/>
<circle cx="30" cy="30" r="29.5" stroke="#223349" stroke-opacity="0.8"/>
<path d="M46.7814 16.5407C46.4053 15.0902 45.1959 13.6398 43.0191 12.0251C41.2722 10.7389 39.4178 10 37.9397 10C37.6441 10 37.3754 10.0274 37.1066 10.0821C36.4348 10.2189 35.8435 10.7115 35.4673 11.4504C35.0104 12.3262 34.9029 13.503 35.1986 14.2145C35.306 14.4334 35.4404 14.7071 35.6017 14.9534C34.1773 15.8291 33.371 16.0754 33.2636 16.1028C36.9723 17.3616 40.0629 19.9889 41.9978 23.4098L42.0247 23.0813C42.1053 22.1783 42.374 21.1383 42.7503 20.071C43.1265 20.1804 43.5028 20.2352 43.879 20.2352C44.8734 20.2352 45.7334 19.8247 46.2709 19.0858C46.8084 18.3469 47.0234 17.3616 46.7814 16.5407Z" fill="#5E12A0"/>
<path d="M42.9116 19.2772C45.3572 19.9615 46.3515 18.0458 46.029 16.7595C45.6797 15.4733 44.5509 14.1597 42.5622 12.6819C40.5735 11.2041 38.5579 10.602 37.2679 10.8757C35.9779 11.1493 35.6017 13.1471 35.9242 13.9134C36.0585 14.2144 36.3542 14.6522 36.7573 15.1449C36.2467 15.5006 35.763 15.7743 35.3598 16.0206C37.8323 17.1427 39.9823 18.8942 41.5947 21.0835C41.7828 20.3446 42.0516 19.6878 42.2935 19.1131C42.4816 19.1405 42.6966 19.1952 42.9116 19.2772Z" fill="url(#paint0_radial_9152_404)"/>
<path d="M28.9098 46.0971C37.2068 46.0971 43.9328 39.2479 43.9328 30.799C43.9328 22.3501 37.2068 15.501 28.9098 15.501C20.6129 15.501 13.8869 22.3501 13.8869 30.799C13.8869 39.2479 20.6129 46.0971 28.9098 46.0971Z" fill="url(#paint1_radial_9152_404)"/>
<path opacity="0.6" d="M44.7927 15.5004C42.7503 13.311 41.0303 12.7363 38.9609 12.2711C37.3485 11.8879 37.7785 10.9574 39.7403 11.149C38.7997 10.8206 37.9128 10.7385 37.2678 10.8753C35.9778 11.149 35.6017 13.1468 35.9241 13.9131C36.0584 14.2141 36.3541 14.652 36.7572 15.1446C36.0316 15.6372 35.4135 15.993 34.9028 16.2667C35.1448 16.3761 35.4403 16.5129 35.7897 16.7045C36.7035 17.1971 37.6979 18.0181 37.6979 18.0181C36.1928 16.7045 36.5153 16.1024 38.5847 14.6246C39.2296 14.1594 40.4122 14.2141 41.514 14.7888C42.6159 15.3635 43.9059 16.8139 43.9059 16.8139L42.6696 19.2222C42.7503 19.2496 42.8309 19.277 42.9115 19.3044C43.6909 19.5233 44.309 19.4685 44.7927 19.277C45.3571 18.9212 46.8352 17.7171 44.7927 15.5004Z" fill="#A98698"/>
<path d="M38.934 13.5852C39.4715 13.8041 40.1702 14.1873 41.0302 14.762C42.0515 15.4461 42.9384 16.2124 43.5027 16.8145C42.5621 18.0733 41.944 19.7975 41.5677 21.0016C41.7559 21.2753 41.9709 21.549 42.159 21.8227C42.3471 21.1384 42.6696 20.1258 43.0996 19.1133C43.2071 19.1407 43.3415 19.1407 43.4759 19.1407C43.7983 19.1407 44.1746 19.0859 44.4702 18.8396C44.6852 18.6754 44.9271 18.3744 44.9002 17.827C44.9002 17.3071 44.4971 16.6503 43.664 15.8567C43.0728 15.2819 42.2665 14.6525 41.4603 14.0778C39.149 12.5179 37.5365 12.08 36.811 12.8189C36.3272 13.3115 36.3809 13.9136 36.5422 14.3515C35.6822 14.9262 34.9566 15.3367 34.4729 15.6104C34.7954 15.7198 35.091 15.8567 35.4135 15.9934C36.2735 15.5282 37.5097 14.7346 38.934 13.5852ZM44.0133 17.4986C44.094 17.6355 44.1208 17.7723 44.1208 17.8544C44.1208 18.1007 44.0402 18.1828 43.9865 18.2376C43.879 18.3196 43.6639 18.3744 43.4759 18.3744C43.6371 18.046 43.8253 17.7723 44.0133 17.4986ZM37.3753 13.421C37.4559 13.3389 37.6709 13.2842 38.0203 13.3389C37.7516 13.5578 37.4829 13.7494 37.2141 13.941C37.1872 13.7494 37.2141 13.5578 37.3753 13.421Z" fill="#5E12A0"/>
<path d="M28.9098 14.5977C20.1218 14.5977 13 21.8499 13 30.7988C13 39.7478 20.1218 47 28.9098 47C37.6978 47 44.8195 39.7478 44.8195 30.7988C44.8195 21.8499 37.6709 14.5977 28.9098 14.5977ZM28.9098 46.0969C20.6055 46.0969 13.8869 39.2552 13.8869 30.7988C13.8869 22.3425 20.6055 15.5008 28.9098 15.5008C37.2141 15.5008 43.9327 22.3425 43.9327 30.7988C43.9327 39.2552 37.1872 46.0969 28.9098 46.0969Z" fill="#5E12A0"/>
<path opacity="0.6" d="M28.9098 46.0971C37.2068 46.0971 43.9328 39.2479 43.9328 30.799C43.9328 22.3501 37.2068 15.501 28.9098 15.501C20.6129 15.501 13.8869 22.3501 13.8869 30.799C13.8869 39.2479 20.6129 46.0971 28.9098 46.0971Z" fill="url(#paint2_linear_9152_404)"/>
<path opacity="0.6" d="M28.8024 44.2359C20.6056 42.8949 15.0425 35.0407 16.3862 26.6937C16.9775 22.9992 18.8049 19.8521 21.3849 17.5806C17.6225 19.7973 14.8275 23.656 14.075 28.3632C12.7582 36.71 18.3212 44.5643 26.4911 45.9053C31.0598 46.6715 35.4673 45.2211 38.7191 42.3749C35.8435 44.0717 32.3498 44.8106 28.8024 44.2359Z" fill="#A98698"/>
<path opacity="0.6" d="M31.3014 15.7192C27.5121 15.0897 23.8303 15.9655 20.8204 17.9085C20.7666 17.9633 20.7129 18.018 20.7129 18.018C21.8685 17.3065 23.5616 16.677 23.5616 16.677C19.2079 19.2495 17.8642 22.1778 17.8642 22.1778C19.5573 18.8391 24.529 16.4855 28.4258 16.3213C32.3227 16.1571 34.8758 17.3339 37.9932 19.879C41.1107 22.4515 42.9919 27.7059 42.8038 31.8657C42.6425 36.0254 40.4926 39.3916 40.4926 39.3916C41.9707 37.4485 42.8576 36.0254 43.422 34.5749C43.5295 34.1371 43.637 33.6993 43.6908 33.234C45.0345 24.9145 39.4982 17.0602 31.3014 15.7192Z" fill="url(#paint3_linear_9152_404)"/>
<path d="M43.1804 30.6616C43.1804 38.6801 36.7842 45.1935 28.91 45.1935C21.0357 45.1935 14.6127 38.6801 14.6127 30.6616H43.1804Z" fill="url(#paint4_linear_9152_404)"/>
<g opacity="0.6">
<path opacity="0.6" d="M42.0514 30.6616C42.0514 38.4886 35.9778 44.8924 28.3454 45.1935C28.5336 45.1935 28.7216 45.1935 28.9097 45.1935C36.784 45.1935 43.1802 38.6801 43.1802 30.6616H42.0514Z" fill="url(#paint5_linear_9152_404)"/>
</g>
<g opacity="0.7">
<path opacity="0.7" d="M16.6283 30.6616H14.6127C14.6127 38.6801 21.0089 45.1935 28.8831 45.1935C29.2325 45.1935 29.555 45.1935 29.8774 45.1661C22.487 44.6188 16.6283 38.3243 16.6283 30.6616Z" fill="url(#paint6_linear_9152_404)"/>
</g>
<path d="M43.1535 30.7988C43.1535 29.1294 40.3048 28.1716 36.5155 27.8432C33.7743 27.6242 31.0062 27.8979 27.835 28.8831C25.0937 29.7041 22.6213 29.5673 20.8207 29.3484C16.8164 28.8831 14.6127 28.8284 14.6127 30.7988C14.6127 33.645 20.3101 37.2027 28.8562 35.9712C33.1831 35.3417 35.4137 34.0555 37.9667 33.1798C40.7349 32.2492 43.1535 32.2766 43.1535 30.7988Z" fill="url(#paint7_linear_9152_404)"/>
<path d="M33.5861 23.9025C34.9219 23.9025 36.0048 22.7999 36.0048 21.4396C36.0048 20.0793 34.9219 18.9766 33.5861 18.9766C32.2502 18.9766 31.1674 20.0793 31.1674 21.4396C31.1674 22.7999 32.2502 23.9025 33.5861 23.9025Z" fill="white"/>
<path d="M37.5364 25.7361C38.1004 25.7361 38.5576 25.2706 38.5576 24.6961C38.5576 24.1218 38.1004 23.6562 37.5364 23.6562C36.9724 23.6562 36.5151 24.1218 36.5151 24.6961C36.5151 25.2706 36.9724 25.7361 37.5364 25.7361Z" fill="white"/>
<g opacity="0.6">
<path opacity="0.6" d="M41.1916 19.4686C41.1647 19.4686 41.1378 19.4686 41.1378 19.4686C40.9765 19.4413 40.8691 19.2771 40.8959 19.0855C41.1378 17.8267 42.159 16.6225 42.2128 16.5678C42.3202 16.4309 42.5352 16.4309 42.6428 16.5404C42.7771 16.6498 42.7771 16.8688 42.6696 16.9783C42.6428 17.0056 41.7021 18.1277 41.4872 19.2223C41.4603 19.3866 41.3259 19.4686 41.1916 19.4686Z" fill="url(#paint8_linear_9152_404)"/>
</g>
<path opacity="0.2" d="M27.9174 42.2107C28.3329 42.2107 28.6698 41.8677 28.6698 41.4445C28.6698 41.0213 28.3329 40.6782 27.9174 40.6782C27.5017 40.6782 27.1648 41.0213 27.1648 41.4445C27.1648 41.8677 27.5017 42.2107 27.9174 42.2107Z" fill="white"/>
<g opacity="0.4">
<path opacity="0.6" d="M27.4856 41.9376C27.1901 41.6365 27.1901 41.1439 27.4856 40.8429C27.5394 40.7881 27.5932 40.7608 27.6468 40.7061C27.5394 40.7334 27.4588 40.7881 27.3781 40.8703C27.0825 41.1713 27.0825 41.6639 27.3781 41.965C27.62 42.2113 27.9963 42.2659 28.2919 42.1018C28.0231 42.2113 27.7006 42.1565 27.4856 41.9376Z" fill="url(#paint9_linear_9152_404)"/>
</g>
<path opacity="0.3" d="M28.1842 41.2253C28.2733 41.2253 28.3456 41.1519 28.3456 41.0612C28.3456 40.9705 28.2733 40.897 28.1842 40.897C28.0952 40.897 28.023 40.9705 28.023 41.0612C28.023 41.1519 28.0952 41.2253 28.1842 41.2253Z" fill="white"/>
<path opacity="0.2" d="M31.841 41.8279C32.2566 41.8279 32.5935 41.4849 32.5935 41.0617C32.5935 40.6385 32.2566 40.2954 31.841 40.2954C31.4255 40.2954 31.0886 40.6385 31.0886 41.0617C31.0886 41.4849 31.4255 41.8279 31.841 41.8279Z" fill="white"/>
<g opacity="0.4">
<path opacity="0.6" d="M31.4093 41.5548C31.1137 41.2537 31.1137 40.7611 31.4093 40.4601C31.4631 40.4053 31.5168 40.378 31.5706 40.3232C31.4631 40.3506 31.3825 40.4053 31.3019 40.4875C31.0062 40.7885 31.0062 41.2811 31.3019 41.5821C31.5437 41.8285 31.92 41.8831 32.2155 41.719C31.9468 41.8284 31.6243 41.7737 31.4093 41.5548Z" fill="url(#paint10_linear_9152_404)"/>
</g>
<path opacity="0.3" d="M32.108 40.8426C32.197 40.8426 32.2692 40.7691 32.2692 40.6784C32.2692 40.5877 32.197 40.5142 32.108 40.5142C32.0189 40.5142 31.9467 40.5877 31.9467 40.6784C31.9467 40.7691 32.0189 40.8426 32.108 40.8426Z" fill="white"/>
<path opacity="0.2" d="M29.9043 43.6065C30.216 43.6065 30.4686 43.3492 30.4686 43.0318C30.4686 42.7144 30.216 42.457 29.9043 42.457C29.5925 42.457 29.3399 42.7144 29.3399 43.0318C29.3399 43.3492 29.5925 43.6065 29.9043 43.6065Z" fill="white"/>
<g opacity="0.4">
<path opacity="0.6" d="M29.5818 43.388C29.3668 43.1691 29.3668 42.7859 29.5818 42.567C29.6087 42.5396 29.6624 42.5123 29.6893 42.4849C29.6087 42.5123 29.5549 42.567 29.5012 42.6217C29.2862 42.8406 29.2862 43.2238 29.5012 43.4427C29.6893 43.6343 29.958 43.6617 30.1999 43.5249C29.9849 43.6069 29.7431 43.5522 29.5818 43.388Z" fill="url(#paint11_linear_9152_404)"/>
</g>
<path opacity="0.3" d="M30.0922 42.8405C30.1515 42.8405 30.1997 42.7914 30.1997 42.731C30.1997 42.6706 30.1515 42.6216 30.0922 42.6216C30.0328 42.6216 29.9846 42.6706 29.9846 42.731C29.9846 42.7914 30.0328 42.8405 30.0922 42.8405Z" fill="white"/>
<path opacity="0.2" d="M33.3709 43.1957C33.6826 43.1957 33.9353 42.9385 33.9353 42.6211C33.9353 42.3037 33.6826 42.0464 33.3709 42.0464C33.0593 42.0464 32.8066 42.3037 32.8066 42.6211C32.8066 42.9385 33.0593 43.1957 33.3709 43.1957Z" fill="white"/>
<g opacity="0.4">
<path opacity="0.6" d="M33.0489 42.9779C32.8339 42.7588 32.8339 42.3757 33.0489 42.1568C33.0758 42.1294 33.1295 42.1021 33.1564 42.0747C33.0758 42.1021 33.022 42.1568 32.9683 42.2116C32.7533 42.4305 32.7533 42.8136 32.9683 43.0325C33.1564 43.2242 33.4251 43.2514 33.667 43.1146C33.452 43.1968 33.2102 43.142 33.0489 42.9779Z" fill="url(#paint12_linear_9152_404)"/>
</g>
<path opacity="0.3" d="M33.5592 42.4299C33.6186 42.4299 33.6668 42.3809 33.6668 42.3204C33.6668 42.26 33.6186 42.2109 33.5592 42.2109C33.4999 42.2109 33.4518 42.26 33.4518 42.3204C33.4518 42.3809 33.4999 42.4299 33.5592 42.4299Z" fill="white"/>
<path opacity="0.2" d="M24.7174 41.9372C25.4002 41.9372 25.9536 41.3735 25.9536 40.6783C25.9536 39.983 25.4002 39.4194 24.7174 39.4194C24.0346 39.4194 23.4812 39.983 23.4812 40.6783C23.4812 41.3735 24.0346 41.9372 24.7174 41.9372Z" fill="white"/>
<g opacity="0.4">
<path opacity="0.6" d="M24.0194 41.4724C23.5357 40.9798 23.5357 40.1861 24.0194 39.6935C24.1 39.6114 24.1806 39.5566 24.2882 39.502C24.1269 39.5566 23.9925 39.6662 23.8582 39.7756C23.3744 40.2683 23.3744 41.0618 23.8582 41.5545C24.2613 41.965 24.8795 42.0471 25.3632 41.746C24.9063 41.9376 24.3688 41.8555 24.0194 41.4724Z" fill="url(#paint13_linear_9152_404)"/>
</g>
<path opacity="0.3" d="M25.1473 40.2953C25.2958 40.2953 25.4161 40.1728 25.4161 40.0217C25.4161 39.8706 25.2958 39.748 25.1473 39.748C24.999 39.748 24.8786 39.8706 24.8786 40.0217C24.8786 40.1728 24.999 40.2953 25.1473 40.2953Z" fill="white"/>
<path opacity="0.2" d="M35.7636 38.8444C36.4463 38.8444 36.9999 38.2808 36.9999 37.5855C36.9999 36.8903 36.4463 36.3267 35.7636 36.3267C35.0808 36.3267 34.5274 36.8903 34.5274 37.5855C34.5274 38.2808 35.0808 38.8444 35.7636 38.8444Z" fill="white"/>
<g opacity="0.4">
<path opacity="0.6" d="M35.0372 38.3791C34.5535 37.8865 34.5535 37.0929 35.0372 36.6003C35.1178 36.5181 35.1985 36.4635 35.306 36.4087C35.1448 36.4635 35.0104 36.5729 34.876 36.6824C34.3923 37.175 34.3923 37.9687 34.876 38.4613C35.2791 38.8717 35.8972 38.9539 36.381 38.6528C35.9241 38.8443 35.4135 38.7623 35.0372 38.3791Z" fill="url(#paint14_linear_9152_404)"/>
</g>
<path opacity="0.3" d="M36.1927 37.2022C36.3412 37.2022 36.4614 37.0796 36.4614 36.9285C36.4614 36.7773 36.3412 36.6548 36.1927 36.6548C36.0443 36.6548 35.924 36.7773 35.924 36.9285C35.924 37.0796 36.0443 37.2022 36.1927 37.2022Z" fill="white"/>
</g>
<defs>
<radialGradient id="paint0_radial_9152_404" cx="0" cy="0" r="1" gradientUnits="userSpaceOnUse" gradientTransform="translate(45.5389 15.0354) scale(12.0115 12.2315)">
<stop stop-color="#FFEAFF" stop-opacity="0.6"/>
<stop offset="0.6807" stop-color="#A087C9"/>
<stop offset="1" stop-color="#10002F"/>
</radialGradient>
<radialGradient id="paint1_radial_9152_404" cx="0" cy="0" r="1" gradientUnits="userSpaceOnUse" gradientTransform="translate(38.8563 20.2522) scale(29.3877 29.9259)">
<stop stop-color="#FFEAFF" stop-opacity="0.6"/>
<stop offset="0.6807" stop-color="#A087C9"/>
<stop offset="1" stop-color="#10002F"/>
</radialGradient>
<linearGradient id="paint2_linear_9152_404" x1="26.5" y1="45.88" x2="31.4781" y2="15.7212" gradientUnits="userSpaceOnUse">
<stop stop-color="#81FFFF"/>
<stop offset="0.6202" stop-color="white" stop-opacity="0"/>
</linearGradient>
<linearGradient id="paint3_linear_9152_404" x1="39.4969" y1="20.4089" x2="26.8686" y2="31.7874" gradientUnits="userSpaceOnUse">
<stop offset="0.2888" stop-color="white"/>
<stop offset="0.7796" stop-color="white" stop-opacity="0"/>
</linearGradient>
<linearGradient id="paint4_linear_9152_404" x1="14.6248" y1="37.9191" x2="43.1735" y2="37.9191" gradientUnits="userSpaceOnUse">
<stop stop-color="#0002E9"/>
<stop offset="0.9952" stop-color="#FF00C7"/>
</linearGradient>
<linearGradient id="paint5_linear_9152_404" x1="44.5247" y1="31.9369" x2="28.7199" y2="46.6045" gradientUnits="userSpaceOnUse">
<stop offset="0.2888" stop-color="white"/>
<stop offset="0.7796" stop-color="white" stop-opacity="0"/>
</linearGradient>
<linearGradient id="paint6_linear_9152_404" x1="14.6248" y1="37.9191" x2="29.8982" y2="37.9191" gradientUnits="userSpaceOnUse">
<stop stop-color="#000292"/>
<stop offset="0.9952" stop-color="#7D00C7"/>
</linearGradient>
<linearGradient id="paint7_linear_9152_404" x1="14.6439" y1="32.006" x2="43.1543" y2="32.006" gradientUnits="userSpaceOnUse">
<stop stop-color="#000292"/>
<stop offset="0.9952" stop-color="#BE00C7"/>
</linearGradient>
<linearGradient id="paint8_linear_9152_404" x1="42.6864" y1="16.4345" x2="40.583" y2="19.7911" gradientUnits="userSpaceOnUse">
<stop offset="0.2888" stop-color="white"/>
<stop offset="0.7796" stop-color="white" stop-opacity="0"/>
</linearGradient>
<linearGradient id="paint9_linear_9152_404" x1="27.1557" y1="41.4685" x2="28.2927" y2="41.4685" gradientUnits="userSpaceOnUse">
<stop offset="0.2888" stop-color="white"/>
<stop offset="0.7796" stop-color="white" stop-opacity="0"/>
</linearGradient>
<linearGradient id="paint10_linear_9152_404" x1="31.0766" y1="41.0804" x2="32.2136" y2="41.0804" gradientUnits="userSpaceOnUse">
<stop offset="0.2888" stop-color="white"/>
<stop offset="0.7796" stop-color="white" stop-opacity="0"/>
</linearGradient>
<linearGradient id="paint11_linear_9152_404" x1="29.3364" y1="43.0388" x2="30.19" y2="43.0388" gradientUnits="userSpaceOnUse">
<stop offset="0.2888" stop-color="white"/>
<stop offset="0.7796" stop-color="white" stop-opacity="0"/>
</linearGradient>
<linearGradient id="paint12_linear_9152_404" x1="32.7919" y1="42.6275" x2="33.6455" y2="42.6275" gradientUnits="userSpaceOnUse">
<stop offset="0.2888" stop-color="white"/>
<stop offset="0.7796" stop-color="white" stop-opacity="0"/>
</linearGradient>
<linearGradient id="paint13_linear_9152_404" x1="23.4831" y1="40.7108" x2="25.3399" y2="40.7108" gradientUnits="userSpaceOnUse">
<stop offset="0.2888" stop-color="white"/>
<stop offset="0.7796" stop-color="white" stop-opacity="0"/>
</linearGradient>
<linearGradient id="paint14_linear_9152_404" x1="34.5112" y1="37.6166" x2="36.368" y2="37.6166" gradientUnits="userSpaceOnUse">
<stop offset="0.2888" stop-color="white"/>
<stop offset="0.7796" stop-color="white" stop-opacity="0"/>
</linearGradient>
<clipPath id="clip0_9152_404">
<rect width="60" height="60" fill="white"/>
</clipPath>
</defs>
</svg>
