<svg width="60" height="60" viewBox="0 0 60 60" fill="none" xmlns="http://www.w3.org/2000/svg">
<mask id="mask0_1605_431" style="mask-type:alpha" maskUnits="userSpaceOnUse" x="0" y="0" width="60" height="60">
<circle cx="30" cy="30" r="30" fill="#C4C4C4"/>
</mask>
<g mask="url(#mask0_1605_431)">
<circle cx="30" cy="30" r="29.5" fill="white" stroke="#E7EBEE"/>
<path d="M50.9533 32.3159L51 32.6843L50.9533 32.3159ZM19.8854 32.6843L19.9321 33.0528L19.8854 32.6843ZM40.1146 32.6843L40.1613 33.0528L40.1146 32.6843ZM9 33.0528L9.04672 33.4212L9 33.0528Z" fill="#B5ACC8"/>
<path d="M20.4794 34.5264V35.079H20.5249L20.4794 34.5264ZM39.4751 34.6645V35.079H39.5206L39.4751 34.6645ZM9 35.2172V35.6316H9.04555L9 35.2172ZM50.9544 35.2172V35.6316H51L50.9544 35.2172Z" fill="#73688A"/>
<path d="M20.0526 35.6318V36.7371H20.1002L20.0526 35.6318ZM39.8998 35.6318V36.7371H39.9473L39.8998 35.6318Z" fill="#8C81A3"/>
<path d="M44.6976 25.0686C45.5991 26.4574 45.989 28.0656 46.1596 29.625C47.0611 38.2016 42.456 45.2189 34.854 48.094C25.6925 51.5539 15.191 47.7529 11.2681 38.1773C8.22243 30.7214 10.7808 22.559 17.6763 17.759C21.5504 15.0544 25.9362 14.2747 30.5656 14.6645C31.7108 14.762 32.856 15.1762 33.9768 15.4199C32.8803 18.5387 34.3666 22.364 37.2174 24.1427C39.6052 25.6534 42.1149 25.5803 44.6976 25.0686ZM35.1951 25.4097C34.3666 25.2879 33.4895 25.629 32.6123 25.9214C30.3951 26.628 28.7138 28.0656 28.2509 30.3559C27.7392 32.9143 28.2753 35.3509 30.6144 37.0077C33.0265 38.6889 35.6336 38.9082 38.3139 37.8605C40.2144 37.1052 41.6763 35.8138 42.2611 33.7671C43.4793 29.7224 40.19 25.4341 35.1951 25.4097ZM17.7006 25.6534C16.7747 25.6534 15.9707 25.6047 15.1666 25.6777C14.7768 25.7021 14.3138 25.8483 14.2894 26.36C14.2651 26.8473 14.5331 27.2128 15.0448 27.2859C15.8732 27.4077 16.0438 27.9437 16.0438 28.6747C16.0194 30.8189 16.0194 32.963 16.0438 35.1316C16.0438 35.8138 15.8001 36.3011 15.2153 36.5935C14.8742 36.7641 14.5087 36.9346 14.6062 37.3732C14.6793 37.7387 15.0448 37.8849 15.3859 38.0554C17.1402 38.9813 18.8945 39.0057 20.6732 38.1773C21.1118 37.958 21.6478 37.8605 21.7453 37.3488C21.8184 36.8859 21.3311 36.7397 20.99 36.5204C20.0153 35.8625 20.3077 34.8392 20.4296 34.0108C20.5514 33.2067 21.3798 33.7184 21.8671 33.694C22.5981 33.6453 23.3047 33.5478 24.0357 33.426C26.4966 33.0605 28.1291 29.8686 26.789 27.6757C25.79 26.0432 24.2062 25.5316 22.4763 25.4585C20.8194 25.3854 19.2113 25.5803 17.7006 25.6534Z" fill="#D600A8"/>
<path d="M44.6976 25.0685C42.1149 25.5558 39.6052 25.6533 37.2174 24.1426C34.3666 22.364 32.8803 18.5386 33.9768 15.4198C34.4397 13.3243 35.7555 11.8137 37.5341 10.8391C41.8225 8.47561 47.0611 9.91317 49.2296 14.2746C51.1788 18.1731 49.2052 22.7051 45.8184 24.4107C45.4529 24.63 45.0875 24.8492 44.6976 25.0685ZM43.7474 16.9548C43.5768 16.4675 43.8692 16.0533 44.3565 15.7609C44.9169 15.4198 45.258 15.9071 45.6235 16.1507C45.7941 16.2482 45.9403 16.4188 46.0377 16.5893C46.3057 17.1254 46.72 17.2959 47.1829 16.9792C47.6458 16.6624 47.5484 16.1995 47.4022 15.6634C47.1585 14.8106 46.4032 14.9325 45.8428 14.7863C44.3078 14.3233 42.456 15.0787 41.8712 16.2969C41.3108 17.4421 41.7981 19.1477 42.8702 19.9274C43.9666 20.7071 46.1108 20.634 46.9392 19.8056C47.2073 19.5376 47.3535 19.1477 47.2073 18.8066C47.0123 18.368 46.6712 18.6848 46.3788 18.8066C45.0144 19.3183 43.8205 18.5386 43.7474 16.9548ZM37.8509 14.6644C37.4854 14.6644 37.1199 14.6644 36.7545 14.6644C36.4864 14.6644 36.1453 14.6157 36.0235 14.9568C35.9017 15.3223 36.2184 15.3954 36.4133 15.5903C36.9006 16.0289 36.9494 19.0015 36.5108 19.4645C36.3646 19.6107 35.9991 19.6107 36.1209 19.9274C36.2428 20.2198 36.5595 20.2198 36.8519 20.2442C38.0215 20.2929 39.1666 20.1223 40.3362 20.4147C40.9453 20.5609 41.1159 19.9274 41.2377 19.5376C41.3352 19.1964 41.4814 18.636 41.0428 18.4411C40.5067 18.1975 40.5067 18.8553 40.2631 19.1233C40.0194 19.3914 39.727 19.6107 39.3128 19.5376C39.0448 19.4888 38.8499 19.3183 38.8743 19.0502C38.9473 17.8563 38.4113 16.5893 39.2397 15.4441C39.5078 15.0543 39.459 14.6644 38.8255 14.6644C38.5088 14.6888 38.1677 14.6644 37.8509 14.6644Z" fill="#6D0257"/>
<path d="M35.1951 25.4096C40.19 25.434 43.455 29.7223 42.2854 33.767C41.6763 35.8381 40.2387 37.1051 38.3382 37.8604C35.658 38.9081 33.0509 38.6889 30.6387 37.0076C28.2753 35.3508 27.7636 32.9142 28.2753 30.3558C28.7138 28.0655 30.4194 26.6279 32.6367 25.9213C33.4895 25.6289 34.391 25.2878 35.1951 25.4096ZM32.9534 30.5995C33.0509 32.1589 33.7088 33.4259 34.5616 34.766C35.2925 35.8624 35.9991 35.5213 36.7788 35.3508C37.656 35.1802 37.6804 34.3518 37.6316 33.6939C37.5585 32.2076 37.193 30.7457 36.3646 29.4787C35.8042 28.6015 34.9514 27.9193 33.855 28.3335C32.9047 28.7233 32.8803 29.6736 32.9534 30.5995Z" fill="#FEFEFE"/>
<path d="M17.7007 25.6533C19.2113 25.5802 20.8195 25.3853 22.4276 25.434C24.1575 25.5071 25.7413 25.9944 26.7403 27.6513C28.0804 29.8442 26.4479 33.0117 23.987 33.4015C23.256 33.499 22.5494 33.5964 21.8184 33.6695C21.3311 33.7183 20.5027 33.1822 20.3809 33.9863C20.259 34.8147 19.9667 35.8624 20.9413 36.4959C21.2824 36.7152 21.7697 36.8614 21.6966 37.3244C21.5992 37.836 21.0631 37.9579 20.6245 38.1528C18.8215 38.9812 17.0915 38.9569 15.3372 38.031C14.9961 37.8604 14.655 37.7142 14.5575 37.3487C14.4601 36.9102 14.8255 36.7396 15.1667 36.569C15.7514 36.2767 16.0194 35.7893 15.9951 35.1071C15.9707 32.9629 15.9707 30.8188 15.9951 28.6502C15.9951 27.9193 15.8245 27.3832 14.9961 27.2614C14.5088 27.1883 14.2164 26.8228 14.2408 26.3355C14.2651 25.8238 14.7524 25.6776 15.1179 25.6533C15.9463 25.6046 16.7748 25.6533 17.7007 25.6533ZM20.3565 29.4543C20.3565 29.7467 20.3565 30.0147 20.3565 30.3071C20.3809 31.4279 20.6976 31.6472 21.7697 31.3305C22.9149 30.965 23.2804 29.3325 22.4763 28.236C22.0377 27.6269 21.4042 27.5051 20.7707 27.6269C20.0885 27.7731 20.4052 28.4066 20.3565 28.8452C20.3321 29.0645 20.3565 29.2594 20.3565 29.4543Z" fill="#FEFEFE"/>
<path d="M43.7474 16.9546C43.8205 18.5383 45.0144 19.318 46.4032 18.782C46.6956 18.6601 47.0124 18.3434 47.2317 18.782C47.3779 19.0987 47.2317 19.5129 46.9637 19.781C46.1352 20.6094 43.9911 20.6825 42.8946 19.9028C41.7982 19.1475 41.3352 17.4175 41.8956 16.2723C42.4804 15.0541 44.3565 14.2987 45.8672 14.7617C46.4276 14.9322 47.1586 14.8104 47.4266 15.6388C47.5728 16.1505 47.6703 16.6378 47.2073 16.9546C46.7444 17.2713 46.3302 17.1251 46.0621 16.5647C45.989 16.3942 45.8185 16.2236 45.6479 16.1261C45.2581 15.8825 44.917 15.3952 44.3809 15.7363C43.8692 16.053 43.5768 16.4673 43.7474 16.9546Z" fill="#FEFEFE"/>
<path d="M37.8509 14.6645C38.1677 14.6645 38.5088 14.6645 38.8255 14.6645C39.4834 14.6402 39.5321 15.0544 39.2398 15.4442C38.4113 16.5894 38.9474 17.832 38.8743 19.0503C38.8499 19.294 39.0448 19.4889 39.3129 19.5376C39.7271 19.6107 40.0195 19.3914 40.2631 19.1234C40.5068 18.8554 40.5068 18.2219 41.0428 18.4412C41.4814 18.6361 41.3596 19.1965 41.2377 19.5376C41.1159 19.9518 40.921 20.5853 40.3362 20.4148C39.1667 20.1224 37.9971 20.293 36.8519 20.2442C36.5595 20.2199 36.2428 20.2199 36.121 19.9275C35.9991 19.6107 36.3646 19.6107 36.5108 19.4645C36.9494 19.0016 36.9007 16.029 36.4134 15.5904C36.2184 15.3955 35.8773 15.298 36.0235 14.9569C36.1453 14.6158 36.4865 14.6645 36.7545 14.6645C37.12 14.6645 37.4854 14.6645 37.8509 14.6645Z" fill="#FEFEFE"/>
<path d="M32.9534 30.5997C32.8803 29.6739 32.9047 28.7236 33.8793 28.3338C34.9758 27.9195 35.8286 28.6018 36.389 29.4789C37.2174 30.7459 37.5829 32.2079 37.656 33.6942C37.6804 34.352 37.656 35.1561 36.8032 35.351C36.0235 35.5216 35.2925 35.8627 34.5859 34.7663C33.7088 33.4505 33.0753 32.1591 32.9534 30.5997Z" fill="#D600A8"/>
<path d="M20.3565 29.4543C20.3565 29.2594 20.3321 29.0401 20.3565 28.8452C20.4296 28.4066 20.0885 27.7731 20.7707 27.6269C21.4042 27.5051 22.0377 27.6269 22.4763 28.2361C23.256 29.3325 22.8905 30.9894 21.7697 31.3305C20.6976 31.6716 20.3809 31.4279 20.3565 30.3071C20.3565 30.0391 20.3565 29.7467 20.3565 29.4543Z" fill="#D600A8"/>
</g>
</svg>
