<svg width="32" height="32" viewBox="0 0 32 32" fill="none" xmlns="http://www.w3.org/2000/svg">
<g clip-path="url(#clip0)">
<g filter="url(#filter0_d)">
<path d="M16 30C24.2843 30 31 23.2843 31 15C31 6.71573 24.2843 0 16 0C7.71573 0 1 6.71573 1 15C1 23.2843 7.71573 30 16 30Z" fill="black"/>
</g>
<path d="M16 30C24.2843 30 31 23.2843 31 15C31 6.71573 24.2843 0 16 0C7.71573 0 1 6.71573 1 15C1 23.2843 7.71573 30 16 30Z" fill="#89ABD9"/>
<path style="mix-blend-mode:soft-light" d="M16 30C24.2843 30 31 23.2843 31 15C31 6.71573 24.2843 0 16 0C7.71573 0 1 6.71573 1 15C1 23.2843 7.71573 30 16 30Z" fill="url(#paint0_linear)"/>
<path d="M16 29.5C24.0081 29.5 30.5 23.0081 30.5 15C30.5 6.99187 24.0081 0.5 16 0.5C7.99187 0.5 1.5 6.99187 1.5 15C1.5 23.0081 7.99187 29.5 16 29.5Z" stroke="black" stroke-opacity="0.097"/>
<g filter="url(#filter1_d)">
<path d="M20.4816 11.5736C20.4816 10.8515 20.2407 10.2666 19.7588 9.81886C19.2769 9.37114 18.643 9.14729 17.8571 9.14729H14.2985V14H17.8571C18.643 14 19.2769 13.7761 19.7588 13.3284C20.2407 12.8807 20.4816 12.2958 20.4816 11.5736ZM23.1173 11.5736C23.1173 12.9673 22.6483 14.1047 21.7105 14.9857C20.7726 15.8667 19.5623 16.3072 18.0796 16.3072H14.2985V17.5853H19.9145C20.0183 17.5853 20.1035 17.6178 20.1703 17.6828C20.237 17.7478 20.2703 17.8308 20.2703 17.9319V19.3184C20.2703 19.4195 20.237 19.5026 20.1703 19.5676C20.1035 19.6325 20.0183 19.665 19.9145 19.665H14.2985V21.7448C14.2985 21.8459 14.2633 21.9289 14.1929 21.9939C14.1224 22.0589 14.039 22.0914 13.9427 22.0914H12.0855C11.9817 22.0914 11.8964 22.0589 11.8297 21.9939C11.763 21.9289 11.7296 21.8459 11.7296 21.7448V19.665H9.23858C9.13479 19.665 9.04953 19.6325 8.98281 19.5676C8.91608 19.5026 8.88272 19.4195 8.88272 19.3184V17.9319C8.88272 17.8308 8.91608 17.7478 8.98281 17.6828C9.04953 17.6178 9.13479 17.5853 9.23858 17.5853H11.7296V16.3072H9.23858C9.13479 16.3072 9.04953 16.2747 8.98281 16.2097C8.91608 16.1447 8.88272 16.0616 8.88272 15.9605V14.3466C8.88272 14.2527 8.91608 14.1715 8.98281 14.1029C9.04953 14.0343 9.13479 14 9.23858 14H11.7296V7.18672C11.7296 7.08562 11.763 7.00257 11.8297 6.93758C11.8964 6.87259 11.9817 6.8401 12.0855 6.8401H18.0796C19.5623 6.8401 20.7726 7.28059 21.7105 8.16158C22.6483 9.04258 23.1173 10.1799 23.1173 11.5736Z" fill="white"/>
</g>
</g>
<defs>
<filter id="filter0_d" x="0" y="-0.5" width="32" height="32" filterUnits="userSpaceOnUse" color-interpolation-filters="sRGB">
<feFlood flood-opacity="0" result="BackgroundImageFix"/>
<feColorMatrix in="SourceAlpha" type="matrix" values="0 0 0 0 0 0 0 0 0 0 0 0 0 0 0 0 0 0 127 0"/>
<feOffset dy="0.5"/>
<feGaussianBlur stdDeviation="0.5"/>
<feColorMatrix type="matrix" values="0 0 0 0 0 0 0 0 0 0 0 0 0 0 0 0 0 0 0.199474 0"/>
<feBlend mode="normal" in2="BackgroundImageFix" result="effect1_dropShadow"/>
<feBlend mode="normal" in="SourceGraphic" in2="effect1_dropShadow" result="shape"/>
</filter>
<filter id="filter1_d" x="7.88272" y="6.3401" width="16.2345" height="17.2513" filterUnits="userSpaceOnUse" color-interpolation-filters="sRGB">
<feFlood flood-opacity="0" result="BackgroundImageFix"/>
<feColorMatrix in="SourceAlpha" type="matrix" values="0 0 0 0 0 0 0 0 0 0 0 0 0 0 0 0 0 0 127 0"/>
<feOffset dy="0.5"/>
<feGaussianBlur stdDeviation="0.5"/>
<feColorMatrix type="matrix" values="0 0 0 0 0 0 0 0 0 0 0 0 0 0 0 0 0 0 0.204257 0"/>
<feBlend mode="normal" in2="BackgroundImageFix" result="effect1_dropShadow"/>
<feBlend mode="normal" in="SourceGraphic" in2="effect1_dropShadow" result="shape"/>
</filter>
<linearGradient id="paint0_linear" x1="16" y1="0" x2="16" y2="30" gradientUnits="userSpaceOnUse">
<stop stop-color="white" stop-opacity="0.5"/>
<stop offset="1" stop-opacity="0.5"/>
</linearGradient>
<clipPath id="clip0">
<rect width="32" height="32" fill="white"/>
</clipPath>
</defs>
</svg>
