<svg width="60" height="60" viewBox="0 0 60 60" fill="none" xmlns="http://www.w3.org/2000/svg">
<g clip-path="url(#clip0_280_483)">
<rect width="60" height="60" fill="#E5E5E5"/>
<circle cx="30" cy="30" r="29.5" fill="white" stroke="#E7EBEE"/>
<path d="M27.7892 47.5715C28.0488 47.6929 28.3169 47.8001 28.5907 47.8876L28.7092 47.9271C28.9689 48.0062 29.2342 48.0682 29.5051 48.1134H29.6265C30.1853 48.2009 30.7554 48.2009 31.3142 48.1134H31.4441C31.7094 48.0711 31.9718 48.0118 32.2287 47.9328L32.3754 47.8876C32.6351 47.8058 32.8919 47.7042 33.1403 47.5913L33.2504 47.5376C33.5015 47.4163 33.7443 47.2808 33.9813 47.1312L34.0378 47.0974C34.2861 46.9393 34.526 46.7643 34.7575 46.5809L34.8929 46.4708C35.1159 46.2845 35.3332 46.0841 35.5393 45.8697L35.6804 45.7257C35.8949 45.5056 36.1094 45.2741 36.3295 45.0286L36.4198 44.9129C36.6146 44.673 36.8008 44.4274 36.9815 44.1678L37.0464 44.0775C34.9607 43.9589 32.9004 43.5695 30.9135 42.926C30.6397 42.8385 30.3462 42.8385 30.0724 42.926C28.0855 43.5751 26.0224 43.9674 23.9339 44.0888C24.8963 45.5648 26.2256 46.7643 27.7892 47.5715Z" fill="url(#paint0_linear_280_483)"/>
<path d="M14.0106 36.5711C14.036 36.8449 14.0755 37.1187 14.1348 37.3868L14.1658 37.5364C14.2279 37.796 14.3041 38.0557 14.4001 38.3069L14.4509 38.4282C14.6541 38.9532 14.9391 39.4443 15.2919 39.8845L15.3766 39.989C15.5431 40.195 15.7266 40.3897 15.9185 40.5704L16.037 40.6804C16.2402 40.8611 16.4575 41.0304 16.6833 41.1856L16.7849 41.2562C17.0079 41.4058 17.2365 41.5441 17.4708 41.6711L17.5554 41.7162C17.8094 41.8461 18.0747 41.9618 18.34 42.0718L18.5207 42.1424C18.786 42.2412 19.0625 42.3315 19.3476 42.4077L19.5621 42.4613C19.8528 42.5375 20.1491 42.6024 20.4596 42.6532H20.6148C20.8999 42.7012 21.1906 42.7379 21.4897 42.7633H21.6309C21.3994 42.3117 21.1821 41.8376 20.9845 41.3465C20.866 41.0925 20.9225 40.7905 21.1285 40.5986C21.3317 40.4067 21.6393 40.37 21.8849 40.5055C22.0175 40.5732 22.1219 40.6861 22.1812 40.8244C22.3534 41.2336 22.5368 41.6287 22.7316 42.0069C22.9884 42.5093 23.519 42.8113 24.0835 42.7718C25.2209 42.6928 26.3498 42.5262 27.459 42.2722C27.6001 42.2355 27.7017 42.117 27.7158 41.9731C27.7327 41.8291 27.6593 41.6908 27.5323 41.6259C26.5727 41.1913 25.6216 40.7143 24.6903 40.1696C20.8519 38.05 17.5611 35.064 15.0774 31.4458L15.0407 31.5305C14.8968 31.8409 14.767 32.1457 14.6569 32.4505V32.5155C14.5412 32.8259 14.4452 33.1618 14.3606 33.4468L14.3154 33.6021C14.2364 33.8984 14.1743 34.1947 14.1263 34.4883V34.6435C14.0811 34.937 14.0529 35.2334 14.036 35.5297V35.5946C14.0219 35.874 14.0219 36.1563 14.036 36.4357C14.0049 36.4808 14.0049 36.5147 14.0106 36.5711Z" fill="url(#paint1_linear_280_483)"/>
<path d="M30.5776 18.7845H30.4873C28.6923 19.4139 26.9594 20.2126 25.3112 21.1637C21.58 23.2296 18.3965 26.1592 16.0285 29.7069C15.879 29.9468 15.879 30.2544 16.0285 30.4943C16.9119 31.9026 17.9534 33.2037 19.1274 34.3778C18.944 32.9582 18.8537 31.5301 18.8565 30.102V28.9025C18.8621 28.7529 18.9214 28.609 19.023 28.4961C19.2093 28.3042 19.4915 28.2449 19.7371 28.3465C19.9826 28.4481 20.1407 28.6908 20.1378 28.9561V30.1133C20.135 31.8659 20.2846 33.6158 20.5838 35.343C20.6346 35.6337 20.7898 35.8962 21.0156 36.0853C22.3647 37.2001 23.8069 38.1992 25.3253 39.0685C28.8616 41.1852 32.8326 42.4638 36.9363 42.8081C37.4951 42.8307 38.0144 42.5202 38.2628 42.0207C38.7821 40.9595 39.2139 39.8616 39.5554 38.7327C39.5977 38.6 39.5469 38.4561 39.434 38.377C39.3183 38.3008 39.1688 38.3037 39.0587 38.3883C38.1753 39.0346 37.2637 39.6358 36.321 40.189C36.0303 40.3555 35.734 40.5107 35.4348 40.6688C35.2881 40.745 35.1187 40.7647 34.9578 40.7196C34.7151 40.6377 34.543 40.4204 34.5204 40.1664C34.495 39.9124 34.6248 39.6668 34.8478 39.5427C35.1328 39.3903 35.4151 39.2322 35.6945 39.0685C37.227 38.1851 38.6777 37.1691 40.0352 36.0345C40.2356 35.868 40.3711 35.6394 40.4247 35.3882C40.7182 33.6412 40.8593 31.8716 40.8509 30.102V28.6965C40.848 28.4538 40.9807 28.2308 41.1952 28.1179C41.4097 28.005 41.6665 28.0219 41.8669 28.1602C42.0052 28.2759 42.0899 28.4453 42.0983 28.6259C42.0983 29.1029 42.1322 29.5827 42.1322 30.0681C42.2084 34.454 41.2601 38.7976 39.3635 42.7516H39.5046C39.8038 42.7206 40.0945 42.6839 40.3767 42.6416H40.5263C40.8367 42.5879 41.1359 42.5174 41.4323 42.4412L41.6383 42.3876C41.9233 42.3114 42.1999 42.221 42.468 42.1166L42.6487 42.0461C42.9196 41.936 43.1849 41.8203 43.4389 41.6904L43.5208 41.6453C43.7607 41.5155 43.9921 41.3772 44.2151 41.2248L44.3167 41.1598C44.5425 41.0018 44.7598 40.8325 44.9658 40.649L45.0815 40.5389C45.2734 40.3555 45.4569 40.1607 45.6234 39.9547L45.7081 39.8531C46.0609 39.4128 46.3459 38.9217 46.5491 38.3968L46.5999 38.2726C46.6959 38.0214 46.7721 37.7646 46.8342 37.5021L46.8652 37.3554C46.9217 37.0957 46.964 36.8332 46.9894 36.5708V36.4607C47.0035 36.1813 47.0035 35.899 46.9894 35.6196V35.5547C46.9809 35.2471 46.9584 34.9366 46.9188 34.629V34.4738C46.8709 34.1802 46.8088 33.8867 46.7297 33.5876L46.6733 33.4408C46.5886 33.136 46.4899 32.8255 46.3741 32.5151V32.4361C46.2641 32.1312 46.1342 31.8293 45.9931 31.5244L45.9536 31.4398C45.5218 32.1115 45.0533 32.7606 44.5509 33.3815C44.4154 33.5396 44.1981 33.6017 44.0006 33.5368C43.803 33.469 43.6647 33.2912 43.6506 33.0824V32.6505C43.6421 32.5264 43.6816 32.4022 43.7607 32.3062C44.7711 30.9854 44.7428 29.1424 43.6901 27.8554C41.4577 25.1347 38.7398 22.8571 35.6747 21.1327C34.8591 20.667 34.0462 20.2464 33.2306 19.8372C33.7725 19.6425 34.3736 19.4505 35.034 19.2756C35.4659 19.4985 35.8977 19.7356 36.3295 19.9811C37.5572 20.6895 38.7398 21.477 39.8659 22.335C39.4679 20.8335 38.9147 19.3743 38.212 17.9886C38.0031 17.5737 37.5741 17.3197 37.1113 17.3395C34.8901 17.4806 32.7 17.9293 30.603 18.6801L30.5776 18.7845ZM25.3253 24.5674L27.4533 25.2984C27.5436 25.3323 27.6113 25.4085 27.6311 25.5016C27.6537 25.5947 27.6255 25.6907 27.5577 25.7584L26.1607 27.1555C26.0929 27.2232 25.9942 27.2514 25.901 27.2317C25.8079 27.2091 25.7317 27.1442 25.7006 27.0539L24.9555 24.923C24.916 24.8186 24.9414 24.7001 25.0233 24.6239C25.1023 24.5448 25.2237 24.5251 25.3253 24.5674ZM22.9122 30.3588C22.819 30.3137 22.757 30.2149 22.757 30.1105C22.757 30.006 22.819 29.9073 22.9122 29.8621L24.9301 28.8715C25.0148 28.8291 25.1164 28.8348 25.1983 28.8827C25.2801 28.9335 25.3309 29.021 25.3309 29.117V31.0983C25.3309 31.1914 25.2801 31.2817 25.1983 31.3297C25.1164 31.3805 25.0148 31.3861 24.9301 31.3438L22.9122 30.3588ZM27.4392 34.9282L25.3253 35.6535C25.2265 35.6845 25.1164 35.6563 25.043 35.5829C24.9697 35.5096 24.9443 35.4023 24.9753 35.3035L25.7063 33.1755C25.7373 33.0852 25.8135 33.0174 25.9067 32.9949C25.9998 32.9751 26.0986 33.0033 26.1663 33.0711L27.5634 34.4681C27.6311 34.5387 27.6565 34.6375 27.6311 34.7334C27.6057 34.8266 27.5323 34.8999 27.4392 34.9282ZM31.7432 35.6845L30.7526 37.7025C30.7046 37.7985 30.6087 37.8577 30.5042 37.8577C30.397 37.8577 30.301 37.7985 30.253 37.7025L29.2652 35.6845C29.2229 35.5999 29.2257 35.4983 29.2765 35.4164C29.3273 35.3346 29.4148 35.2838 29.5108 35.2838H31.4892C31.5852 35.2838 31.6727 35.3346 31.7235 35.4164C31.7743 35.4983 31.7771 35.5999 31.7348 35.6845H31.7432ZM35.6945 35.6845L33.5664 34.9536C33.4761 34.9225 33.4084 34.8463 33.3886 34.7532C33.3661 34.66 33.3943 34.5613 33.462 34.4935L34.8591 33.0965C34.9268 33.0287 35.0256 33.0005 35.1187 33.0203C35.2119 33.0428 35.2881 33.1106 35.3191 33.2009L36.0444 35.2781C36.0981 35.3826 36.0755 35.5124 35.9936 35.5971C35.909 35.6817 35.782 35.7043 35.6747 35.6535L35.6945 35.6845ZM38.0934 29.8931C38.1894 29.9411 38.2487 30.0371 38.2487 30.1415C38.2487 30.2488 38.1894 30.3447 38.0934 30.3927L36.0755 31.3805C35.9908 31.4228 35.8892 31.42 35.8074 31.3692C35.7255 31.3184 35.6775 31.2309 35.6747 31.135V29.1226C35.6775 29.0267 35.7255 28.9392 35.8074 28.8912C35.8892 28.8404 35.9908 28.8348 36.0755 28.8771L38.0934 29.8931ZM33.5664 25.3238L35.6747 24.5674C35.7735 24.5364 35.8836 24.5618 35.9569 24.6352C36.0303 24.7114 36.0557 24.8186 36.0247 24.9174L35.2937 27.0454C35.2627 27.1357 35.1865 27.2035 35.0933 27.226C35.0002 27.2458 34.9014 27.2176 34.8337 27.1498L33.4366 25.7528C33.3717 25.6822 33.3491 25.5835 33.3745 25.4931C33.3999 25.4 33.4705 25.3266 33.5608 25.2984L33.5664 25.3238ZM34.3821 30.102C34.3821 32.2441 32.6435 33.9827 30.5014 33.9827C28.3564 33.9827 26.6179 32.2441 26.6179 30.102C26.6179 27.957 28.3564 26.2185 30.5014 26.2185C32.6435 26.2185 34.3821 27.957 34.3821 30.102ZM30.7469 22.5241L31.7348 24.542C31.7771 24.6267 31.7743 24.7283 31.7235 24.8101C31.6727 24.892 31.5852 24.9428 31.4892 24.9428H29.5108C29.4148 24.9428 29.3273 24.892 29.2765 24.8101C29.2257 24.7283 29.2229 24.6267 29.2652 24.542L30.253 22.5241C30.3038 22.4309 30.397 22.3745 30.5014 22.3745C30.603 22.3745 30.699 22.4309 30.7469 22.5241Z" fill="url(#paint2_linear_280_483)"/>
<path d="M14.0755 25.5724V25.7276C14.1235 26.0211 14.1856 26.3146 14.2646 26.6138L14.3098 26.769C14.3916 27.0795 14.4904 27.4153 14.6061 27.7004V27.7653C14.7218 28.0701 14.8516 28.3721 14.9871 28.6826L15.0266 28.7672C16.2797 26.8904 17.7868 25.1942 19.5028 23.7266C19.929 21.5393 20.6487 19.4197 21.645 17.4243C19.5818 17.5062 17.6034 18.2625 16.0088 19.5721L15.9326 19.6427C15.7294 19.8346 15.5403 20.0378 15.3625 20.2523L15.2919 20.3426C14.9391 20.7829 14.6541 21.2768 14.4509 21.8046L14.4001 21.9287C14.3041 22.1799 14.2279 22.4368 14.1658 22.6992L14.1348 22.846C14.0783 23.1056 14.036 23.3681 14.0106 23.6306V23.7322C13.9965 24.0144 13.9965 24.2938 14.0106 24.5761V24.6382C14.0162 24.9514 14.0388 25.2619 14.0755 25.5724Z" fill="url(#paint3_linear_280_483)"/>
<path d="M24.679 20.0119C25.6103 19.4756 26.553 18.9902 27.5126 18.564C27.6283 18.4878 27.6904 18.3523 27.6763 18.214C27.6593 18.0786 27.5662 17.96 27.4336 17.9149C26.8945 17.7963 26.3611 17.6947 25.8361 17.6129C25.6188 17.5706 25.4382 17.421 25.3563 17.2178C25.2745 17.0146 25.3027 16.7831 25.4297 16.6025C25.5708 16.4078 25.8051 16.309 26.0422 16.3428C27.4307 16.5545 28.7967 16.8763 30.1317 17.3081C30.366 17.3815 30.62 17.3815 30.857 17.3081C32.8637 16.6505 34.9494 16.2554 37.0605 16.1368L37.021 16.0832C36.8234 15.801 36.6174 15.53 36.4057 15.276L36.3493 15.197C36.1348 14.9458 35.9203 14.7059 35.7001 14.4801L35.5788 14.3559C35.3586 14.1414 35.1413 13.9382 34.9325 13.7491L34.8083 13.6504C34.5684 13.4471 34.3172 13.2581 34.0575 13.0831H34.0124C33.7753 12.9165 33.5298 12.767 33.2758 12.6287L33.1713 12.5779C32.923 12.4622 32.669 12.3634 32.4093 12.2787L32.2597 12.2335C32.0029 12.1573 31.7404 12.0981 31.4779 12.0529H31.3481C30.8401 11.9824 30.3264 11.9824 29.8212 12.0529H29.6406C29.4459 12.0529 29.2568 12.1178 29.0649 12.163H28.9604C28.7403 12.2223 28.5258 12.2956 28.3141 12.3775L28.1589 12.4424C27.9811 12.5158 27.8061 12.5948 27.6283 12.6823L27.4928 12.7444C27.2812 12.8573 27.0638 12.9815 26.8465 13.1141L26.7477 13.179C26.5728 13.3004 26.3949 13.4302 26.2171 13.5685L26.0958 13.6645C25.6809 14.0201 25.2914 14.4067 24.9358 14.8216L24.8455 14.926C24.4532 15.3776 24.0891 15.8574 23.7589 16.357L23.7137 16.4219C22.5453 18.2536 21.6732 20.2574 21.1257 22.36C22.2602 21.5021 23.4456 20.7174 24.679 20.0119Z" fill="url(#paint4_linear_280_483)"/>
<path d="M41.6976 23.8867C43.3148 25.3176 44.7344 26.9518 45.9226 28.7552C46.2302 28.0976 46.4814 27.4146 46.6733 26.7147V26.6187C46.7552 26.3026 46.8201 25.9922 46.8737 25.6874V25.5773C46.9217 25.2697 46.9527 24.962 46.9697 24.6516C46.9866 24.358 46.9866 24.0645 46.9697 23.771V23.6863C46.9471 23.4126 46.9047 23.136 46.8483 22.865V22.7239C46.7862 22.4614 46.7072 22.2046 46.6141 21.9534L46.5632 21.8377C46.3572 21.3099 46.075 20.8189 45.7222 20.3814L45.6432 20.277C45.4738 20.0709 45.2904 19.8762 45.0928 19.6956L44.9771 19.5855C44.7711 19.4021 44.5566 19.2299 44.3308 19.0747L44.2264 19.0013C44.0006 18.8489 43.7692 18.7106 43.5293 18.5808L43.4389 18.5102C43.1849 18.3804 42.9196 18.2647 42.643 18.1546L42.4681 18.084C42.1999 17.9852 41.9234 17.8949 41.6327 17.8131L41.4266 17.7595C41.1275 17.6833 40.8311 17.6183 40.5207 17.5591H40.3711C40.0832 17.5111 39.784 17.4744 39.4792 17.4434H39.3494C40.3118 19.3654 41.0174 21.4059 41.4464 23.5142C41.4887 23.6609 41.5762 23.7908 41.6976 23.8867Z" fill="url(#paint5_linear_280_483)"/>
</g>
<defs>
<linearGradient id="paint0_linear_280_483" x1="23.9338" y1="42.86" x2="37.047" y2="42.86" gradientUnits="userSpaceOnUse">
<stop stop-color="#EF4136"/>
<stop offset="1" stop-color="#FBB040"/>
</linearGradient>
<linearGradient id="paint1_linear_280_483" x1="14.0079" y1="31.4469" x2="27.7185" y2="31.4469" gradientUnits="userSpaceOnUse">
<stop stop-color="#EF4136"/>
<stop offset="1" stop-color="#FBB040"/>
</linearGradient>
<linearGradient id="paint2_linear_280_483" x1="15.9158" y1="17.339" x2="47.0009" y2="17.339" gradientUnits="userSpaceOnUse">
<stop stop-color="#EF4136"/>
<stop offset="1" stop-color="#FBB040"/>
</linearGradient>
<linearGradient id="paint3_linear_280_483" x1="13.9995" y1="17.4249" x2="21.6442" y2="17.4249" gradientUnits="userSpaceOnUse">
<stop stop-color="#EF4136"/>
<stop offset="1" stop-color="#FBB040"/>
</linearGradient>
<linearGradient id="paint4_linear_280_483" x1="21.127" y1="11.9994" x2="37.0593" y2="11.9994" gradientUnits="userSpaceOnUse">
<stop stop-color="#EF4136"/>
<stop offset="1" stop-color="#FBB040"/>
</linearGradient>
<linearGradient id="paint5_linear_280_483" x1="39.3495" y1="17.4433" x2="46.9827" y2="17.4433" gradientUnits="userSpaceOnUse">
<stop stop-color="#EF4136"/>
<stop offset="1" stop-color="#FBB040"/>
</linearGradient>
<clipPath id="clip0_280_483">
<rect width="60" height="60" fill="white"/>
</clipPath>
</defs>
</svg>
