<svg width="60" height="60" viewBox="0 0 60 60" fill="none" xmlns="http://www.w3.org/2000/svg">
<g clip-path="url(#clip0_6181_414)">
<circle cx="30" cy="30" r="29.5" fill="white" stroke="#E7EBEE"/>
<path d="M9.67138 35.7873C9.24826 35.5392 9.00026 35.0869 9.00026 34.5908C8.98566 33.8466 9.5839 33.2192 10.328 33.2046C10.3426 33.2046 10.3572 33.2046 10.3718 33.2046C10.6198 33.2046 10.8533 33.263 11.0575 33.3798C12.2394 34.1239 13.4067 34.4887 14.3989 34.4887C15.4202 34.4887 15.8726 34.1239 15.8726 33.5694V33.5257C15.8726 32.7669 14.6761 32.5043 13.3191 32.0957C11.612 31.5996 9.64225 30.7971 9.64225 28.3896V28.3459C9.64225 25.8362 11.6704 24.4209 14.1655 24.4209C15.4932 24.4355 16.8064 24.7565 17.9883 25.3693C18.4989 25.6028 18.82 26.1135 18.82 26.6825C18.82 27.4412 18.2071 28.0686 17.4484 28.0686C17.4338 28.0686 17.4338 28.0686 17.4192 28.0686C17.2004 28.0686 16.9669 28.0102 16.7772 27.9081C15.785 27.4267 14.8367 27.1202 14.1071 27.1202C13.2462 27.1202 12.8084 27.4995 12.8084 27.9811V28.0248C12.8084 28.7106 13.9903 29.0462 15.3181 29.4985C17.0544 30.0822 19.0534 30.8993 19.0534 33.1609V33.2046C19.0534 35.9478 16.9961 37.188 14.326 37.188C12.6625 37.188 11.043 36.7065 9.67138 35.7873Z" fill="#162E56"/>
<path d="M21.4318 40.4125C20.9211 40.2229 20.3229 39.8143 20.3229 38.9534C20.3083 38.1801 20.9211 37.5381 21.6944 37.5235H21.709C21.9133 37.5235 22.103 37.5527 22.2927 37.6111C22.5261 37.6986 22.7741 37.7424 23.0368 37.7424C23.6642 37.7424 23.956 37.6257 24.277 36.9982L24.3937 36.721L20.177 26.945C20.0748 26.6824 20.0164 26.4198 19.9873 26.1425C19.9873 25.1504 20.746 24.4646 21.7236 24.4646C22.5991 24.4646 23.1098 24.9461 23.4016 25.7778L26.0717 32.9857L28.6543 25.807C28.9316 25.0628 29.4422 24.4646 30.3323 24.4646C31.2369 24.45 31.9811 25.165 31.9957 26.0551V26.0696C31.9811 26.3469 31.9373 26.6387 31.8351 26.9013L27.5308 37.2609C26.4948 39.7705 25.4588 40.7189 23.3578 40.7189C22.7012 40.7481 22.0446 40.6314 21.4318 40.4125Z" fill="#162E56"/>
<path d="M33.4692 21.7509C33.4692 20.788 34.2571 20 35.2202 20C36.1831 20 36.9711 20.788 36.9711 21.7509V35.3498C36.9711 36.3127 36.1831 37.1007 35.2202 37.1007C34.2571 37.1007 33.4692 36.3127 33.4692 35.3498V21.7509Z" fill="#162E56"/>
<path d="M45.3174 34.3284C43.4352 34.3284 41.9031 32.7964 41.9031 30.9141C41.9031 29.0319 43.4352 27.4998 45.3174 27.4998C47.1997 27.4998 48.7318 29.0319 48.7318 30.9141C48.7318 32.7964 47.1997 34.3284 45.3174 34.3284ZM45.3174 24.2314C41.6259 24.2314 38.6348 27.2226 38.6348 30.9141C38.6348 34.6057 41.6259 37.5968 45.3174 37.5968C49.009 37.5968 52.0001 34.6057 52.0001 30.9141C52.0001 27.2226 49.009 24.2314 45.3174 24.2314Z" fill="#F15A29"/>
</g>
<defs>
<clipPath id="clip0_6181_414">
<rect width="60" height="60" fill="white"/>
</clipPath>
</defs>
</svg>
