<svg width="60" height="60" viewBox="0 0 60 60" fill="none" xmlns="http://www.w3.org/2000/svg">
<circle cx="30" cy="30" r="30" fill="#141414"/>
<circle cx="30" cy="30" r="29.5" stroke="#223349" stroke-opacity="0.8"/>
<path d="M30.2884 22.5241C31.5713 22.5241 32.6107 21.4848 32.6107 20.2019C32.6107 18.919 31.5713 17.8796 30.2884 17.8796C29.0055 17.8796 27.9662 18.919 27.9662 20.2019C27.9662 21.4848 29.0055 22.5241 30.2884 22.5241ZM30.2884 37.8455C29.0055 37.8455 27.9662 38.8849 27.9662 40.1678C27.9662 41.4507 29.0055 42.4901 30.2884 42.4901C31.5713 42.4901 32.6107 41.4507 32.6107 40.1678C32.6107 38.8849 31.5713 37.8455 30.2884 37.8455ZM30.1959 11.8895C31.2693 11.8895 32.14 11.0188 32.14 9.94544C32.14 8.87205 31.2707 8 30.1959 8C29.1212 8 28.2518 8.87069 28.2518 9.94408C28.2518 11.0175 29.1225 11.8895 30.1959 11.8895ZM21.6918 17.2579C22.7652 17.2579 23.6358 16.3872 23.6358 15.3138C23.6358 14.2404 22.7652 13.3697 21.6918 13.3697C20.6184 13.3697 19.7477 14.2404 19.7477 15.3138C19.7477 16.3872 20.617 17.2579 21.6918 17.2579ZM12.9441 22.2044C14.0175 22.2044 14.8882 21.3338 14.8882 20.2604C14.8882 19.187 14.0175 18.3163 12.9441 18.3163C11.8707 18.3163 11 19.1856 11 20.259C11 21.3338 11.8707 22.2044 12.9441 22.2044ZM21.6918 43.6043C20.6184 43.6043 19.7477 44.475 19.7477 45.5484C19.7477 46.6218 20.6184 47.4925 21.6918 47.4925C22.7652 47.4925 23.6358 46.6218 23.6358 45.5484C23.6358 44.475 22.7652 43.6043 21.6918 43.6043ZM12.9441 38.357C11.8707 38.357 11 39.2277 11 40.3011C11 41.3745 11.8707 42.2452 12.9441 42.2452C14.0175 42.2452 14.8882 41.3745 14.8882 40.3011C14.8882 39.2277 14.0188 38.357 12.9441 38.357ZM39.0035 17.2579C40.0769 17.2579 40.9475 16.3872 40.9475 15.3138C40.9475 14.2404 40.0769 13.3697 39.0035 13.3697C37.9301 13.3697 37.0594 14.2404 37.0594 15.3138C37.0594 16.3872 37.9287 17.2579 39.0035 17.2579ZM47.7498 22.2044C48.8232 22.2044 49.6939 21.3338 49.6939 20.2604C49.6939 19.187 48.8232 18.3163 47.7498 18.3163C46.6764 18.3163 45.8057 19.187 45.8057 20.2604C45.8043 21.3338 46.675 22.2044 47.7498 22.2044ZM39.0035 43.6043C37.9301 43.6043 37.0594 44.475 37.0594 45.5484C37.0594 46.6218 37.9301 47.4925 39.0035 47.4925C40.0769 47.4925 40.9475 46.6218 40.9475 45.5484C40.9475 44.475 40.0769 43.6043 39.0035 43.6043ZM47.7498 38.357C46.6764 38.357 45.8057 39.2277 45.8057 40.3011C45.8057 41.3745 46.6764 42.2452 47.7498 42.2452C48.8232 42.2452 49.6939 41.3745 49.6939 40.3011C49.6939 39.2277 48.8232 38.357 47.7498 38.357ZM30.1959 48.7767C29.1225 48.7767 28.2518 49.6474 28.2518 50.7208C28.2518 51.7942 29.1225 52.6649 30.1959 52.6649C31.2693 52.6649 32.14 51.7942 32.14 50.7208C32.14 49.6474 31.2707 48.7767 30.1959 48.7767ZM46.4723 31.7058C46.8247 32.0636 47.3144 32.2854 47.8559 32.2854C48.9293 32.2854 49.8 31.4147 49.8 30.3413C49.8 29.2679 48.9293 28.3972 47.8559 28.3972C47.3117 28.3972 46.8206 28.6217 46.4669 28.9808L41.357 26.0028C41.4332 25.7729 41.4768 25.5267 41.4768 25.2695C41.4768 23.9866 40.4374 22.9472 39.1545 22.9472C37.8716 22.9472 36.8322 23.9866 36.8322 25.2695C36.8322 25.5348 36.8784 25.7879 36.9601 26.0259L31.7074 29.1631C31.3877 28.8149 30.9306 28.5958 30.4218 28.5958C29.8993 28.5958 29.4314 28.8257 29.1116 29.1903L23.8535 26.0314C23.9365 25.7919 23.9841 25.5375 23.9841 25.2695C23.9841 23.9866 22.9447 22.9472 21.6618 22.9472C20.3789 22.9472 19.3395 23.9866 19.3395 25.2695C19.3395 25.543 19.3899 25.8042 19.4756 26.0477L14.4991 29.0897C14.1426 28.6666 13.6093 28.3972 13.0121 28.3972C11.9387 28.3972 11.068 29.2679 11.068 30.3413C11.068 31.4147 11.9387 32.2854 13.0121 32.2854C13.5141 32.2854 13.9712 32.0935 14.3168 31.7806L19.3736 34.9001C19.3532 35.0239 19.3395 35.1518 19.3395 35.2811C19.3395 36.564 20.3789 37.6034 21.6618 37.6034C22.9447 37.6034 23.9841 36.564 23.9841 35.2811C23.9841 35.1518 23.9705 35.0267 23.9501 34.9029L29.3212 31.6949C29.6218 31.9384 30.0041 32.0854 30.4218 32.0854C30.8217 32.0854 31.1891 31.9493 31.4843 31.7235L36.858 34.9518C36.8431 35.0593 36.8322 35.1695 36.8322 35.2811C36.8322 36.564 37.8716 37.6034 39.1545 37.6034C40.4374 37.6034 41.4768 36.564 41.4768 35.2811C41.4768 35.0756 41.4468 34.877 41.3979 34.6879L46.4723 31.7058ZM23.6005 34.0036C23.1855 33.3751 22.4727 32.9588 21.6618 32.9588C20.8537 32.9588 20.1422 33.3724 19.7259 33.9982L14.8446 30.9861C14.9167 30.7834 14.9575 30.5671 14.9575 30.3399C14.9575 30.2052 14.9439 30.0746 14.9181 29.9481L19.9722 26.8585C20.3953 27.3075 20.9952 27.5905 21.6618 27.5905C22.3353 27.5905 22.9393 27.302 23.3624 26.8449L28.7008 30.0515C28.6858 30.1454 28.6749 30.2406 28.6749 30.3399C28.6749 30.5413 28.7103 30.7331 28.7729 30.914L23.6005 34.0036ZM39.1558 32.9601C38.33 32.9601 37.6063 33.3928 37.1941 34.0431L32.0557 30.9562C32.1278 30.7644 32.1699 30.5576 32.1699 30.3413C32.1699 30.2297 32.1591 30.1209 32.1386 30.0161L37.4526 26.8422C37.877 27.302 38.4824 27.5918 39.1572 27.5918C39.8415 27.5918 40.4537 27.2939 40.8782 26.8245L45.9894 29.8039C45.9404 29.9753 45.9118 30.1549 45.9118 30.3413C45.9118 30.5304 45.9404 30.7127 45.9907 30.8855L40.9707 33.8363C40.5449 33.3016 39.8905 32.9601 39.1558 32.9601Z" fill="url(#paint0_radial_1733_404)"/>
<defs>
<radialGradient id="paint0_radial_1733_404" cx="0" cy="0" r="1" gradientUnits="userSpaceOnUse" gradientTransform="translate(30.4005 30.3331) scale(20.9182)">
<stop stop-color="#FC01FE"/>
<stop offset="0.9989" stop-color="#7A46F3"/>
</radialGradient>
</defs>
</svg>
