<svg width="60" height="60" viewBox="0 0 60 60" fill="none" xmlns="http://www.w3.org/2000/svg">
<g clip-path="url(#clip0_9508_404)">
<circle cx="30" cy="30" r="30" fill="#191C1F" stroke="#E7EBEE"/>
<path d="M46.2499 17.7063C45.2497 16.0252 43.459 15.0185 41.4587 15.0185H30.4287C30.2858 15.0092 30.1429 15 30 15C29.8571 15 29.7143 15.0092 29.5714 15.0185H18.5413C16.541 15.0185 14.7502 16.0252 13.7501 17.7063C12.75 19.3873 12.75 21.3916 13.7501 23.0726L25.2089 42.3122C26.209 43.9933 27.9997 45 30 45C32.0003 45 33.791 43.9933 34.7912 42.3122L46.2499 23.0726C47.25 21.4009 47.25 19.3873 46.2499 17.7063ZM32.1432 40.8344C31.6955 41.5825 30.8954 42.0351 30 42.0351C29.1046 42.0351 28.3045 41.5825 27.8568 40.8344L21.4083 30.0092L27.8568 19.1749C28.2569 18.5006 28.9332 18.0757 29.7143 17.9926H30.2858C31.0668 18.0757 31.7431 18.5098 32.1432 19.1749L38.5917 30L32.1432 40.8344Z" fill="white"/>
</g>
<defs>
<clipPath id="clip0_9508_404">
<rect width="60" height="60" fill="white"/>
</clipPath>
</defs>
</svg>
