<svg width="61" height="60" viewBox="0 0 61 60" fill="none" xmlns="http://www.w3.org/2000/svg">
<g clip-path="url(#clip0)">
<path fill-rule="evenodd" clip-rule="evenodd" d="M30.981 60C47.5495 60 60.981 46.5685 60.981 30C60.981 13.4315 47.5495 0 30.981 0C14.4124 0 0.980957 13.4315 0.980957 30C0.980957 46.5685 14.4124 60 30.981 60ZM16.73 18.637C14.8118 18.637 13.2568 20.1919 13.2568 22.1101C13.2568 24.0282 14.8118 25.5832 16.73 25.5832H19.2077C21.1259 25.5832 22.6808 24.0282 22.6808 22.1101C22.6808 20.1919 21.1259 18.637 19.2077 18.637H16.73ZM30.981 18.637C29.0628 18.637 27.5078 20.1919 27.5078 22.1101V45.1966C27.5078 47.1148 29.0628 48.6698 30.981 48.6698C32.8991 48.6698 34.4541 47.1148 34.4541 45.1966V25.5832H45.232C47.1501 25.5832 48.7051 24.0282 48.7051 22.1101C48.7051 20.1919 47.1501 18.637 45.232 18.637H30.981Z" fill="#F7CE2F"/>
</g>
<defs>
<clipPath id="clip0">
<rect width="60" height="60" fill="white" transform="translate(0.980957)"/>
</clipPath>
</defs>
</svg>
