<svg width="60" height="60" viewBox="0 0 60 60" fill="none" xmlns="http://www.w3.org/2000/svg">
<g clip-path="url(#clip0_6335_406)">
<circle cx="30" cy="30" r="29.5" fill="white" stroke="#E7EBEE"/>
<path d="M32.1255 32.8402C30.8773 31.6099 29.1227 31.6511 27.868 32.893C25.1834 35.5492 22.5053 38.2118 19.8258 40.8718C18.8558 41.8344 17.8896 42.8009 17.0201 43.6683C18.4114 45.1032 19.7627 46.4969 21.2209 48C24.1335 45.0221 27.0371 42.0519 30.0992 38.9209C33.0994 42.0043 36.0094 44.9938 38.8976 47.9614C40.3442 46.5046 41.7007 45.1405 43.0855 43.7468C43.0134 43.6644 42.9232 43.5499 42.8202 43.4469C39.2557 39.9092 35.7016 36.3638 32.1255 32.8402ZM27.792 27.0311C29.1691 28.3978 30.9005 28.4029 32.2891 27.0285C34.881 24.4624 37.4638 21.8873 40.0544 19.3199C41.0862 18.2968 42.1245 17.2802 43.0559 16.3639C41.6363 14.9046 40.2837 13.5147 38.81 12C35.9077 14.9689 33.0015 17.9391 29.9923 21.0174C27.0114 17.97 24.1065 14.9985 21.2209 12.0476C19.7743 13.5121 18.4088 14.893 16.908 16.4128C17.1464 16.6007 17.4929 16.8246 17.7801 17.109C21.1217 20.4112 24.4569 23.7212 27.792 27.0311ZM48 21.0972C46.6538 19.7305 45.3012 18.3586 43.9216 16.9572C43.7412 17.1296 43.5866 17.2725 43.4372 17.4205C39.9951 20.8359 36.5556 24.2527 33.1123 27.6668C31.627 29.1403 31.6257 30.8532 33.12 32.3396C35.6758 34.8812 38.2419 37.4126 40.7861 39.9645C41.8115 40.9928 42.7918 42.0661 43.7605 43.0853C45.2767 41.5693 46.6538 40.1949 47.9974 38.8514C45.0977 35.9121 42.1773 32.9522 39.2274 29.9614C42.149 27.0105 45.0822 24.0468 48 21.0972ZM26.9573 27.681C24.8073 25.5537 22.6586 23.4265 20.5214 21.2863C19.0851 19.8489 17.6681 18.3921 16.2356 16.9366C14.789 18.4024 13.4273 19.7845 12 21.2323C14.9139 24.1497 17.8587 27.098 20.8538 30.0978C17.9167 33.0474 14.9873 35.988 12.0902 38.8951C13.4144 40.2515 14.7593 41.6285 16.148 43.0493C16.2961 42.9141 16.394 42.8331 16.4829 42.743C19.9817 39.2657 23.483 35.7924 26.9766 32.31C28.4529 30.8365 28.4323 29.1403 26.9573 27.681Z" fill="black"/>
</g>
<defs>
<clipPath id="clip0_6335_406">
<rect width="60" height="60" fill="white"/>
</clipPath>
</defs>
</svg>
