<svg width="60" height="60" viewBox="0 0 60 60" fill="none" xmlns="http://www.w3.org/2000/svg">
<g clip-path="url(#clip0_6181_422)">
<circle cx="30" cy="30" r="30" fill="#F6F7FA"/>
<circle cx="30" cy="30" r="30" stroke="#E7EBEE"/>
<path d="M31.5356 26.0801C31.2207 25.6521 30.7709 25.3367 30.276 25.1114C29.7812 24.9086 29.2414 24.8411 28.7016 24.9086C28.1617 24.9762 27.6669 25.179 27.2396 25.5169C26.8122 25.8323 26.4748 26.2829 26.2724 26.7559L21.684 37.9074L17.7028 30.4506C17.3204 29.7747 16.6682 29.2566 15.9034 29.0313C15.1387 28.806 14.3289 28.8961 13.6317 29.2566C12.9344 29.617 12.3946 30.2478 12.1472 30.9912C11.8998 31.7347 11.9673 32.5457 12.3271 33.2441L19.3672 46.4005C19.6147 46.8736 20.0195 47.2791 20.4919 47.572C20.9642 47.8648 21.504 48 22.0663 48H22.2238C22.8086 47.9775 23.3709 47.7747 23.8432 47.4368C24.3156 47.0989 24.6754 46.6483 24.9004 46.1076L29.9386 33.8748L33.7399 38.8536C34.0547 39.2816 34.5046 39.597 34.9994 39.8223C35.4943 40.025 36.0341 40.0926 36.5739 40.025C37.1137 39.9575 37.6085 39.7547 38.0359 39.4168C38.4632 39.1014 38.8006 38.6508 39.0031 38.1777L48 16.2353C46.583 14.6133 44.9635 13.194 43.1641 12L35.3368 31.0588L31.5356 26.0801Z" fill="url(#paint0_linear_6181_422)"/>
</g>
<defs>
<linearGradient id="paint0_linear_6181_422" x1="12.0122" y1="30.0225" x2="49.4863" y2="30.0225" gradientUnits="userSpaceOnUse">
<stop stop-color="#E9C570"/>
<stop offset="1" stop-color="#F7B839"/>
</linearGradient>
<clipPath id="clip0_6181_422">
<rect width="60" height="60" fill="white"/>
</clipPath>
</defs>
</svg>
