<svg width="60" height="60" viewBox="0 0 60 60" fill="none" xmlns="http://www.w3.org/2000/svg">
<circle cx="30" cy="30" r="30" fill="#191919"/>
<circle cx="30" cy="30" r="29.5" stroke="#223349" stroke-opacity="0.8"/>
<path d="M29.4917 6.00004C15.9316 6.02377 5.06113 16.6876 5.00026 29.8678C4.93879 43.2042 15.9139 53.989 29.4651 54C43.0334 53.9792 53.9341 43.3286 53.9997 30.1404C54.0671 16.7825 43.0813 5.97689 29.4917 6.00004ZM29.5236 50.0906C18.1797 50.097 8.98583 41.108 8.98111 30.0067C8.97638 18.9157 18.1573 9.91173 29.4775 9.90421C40.8214 9.89668 50.0082 18.8804 50.0194 29.991C50.0313 41.0727 40.8421 50.0843 29.5236 50.0906ZM41.397 21.9026C40.7576 21.3638 40.0248 21.2278 39.2535 21.5739C38.4906 21.9165 38.081 22.523 38.0798 23.3593C38.0763 26.5325 38.0792 29.7052 38.0757 32.8784C38.0757 33.0989 38.0586 33.3228 38.0148 33.5381C37.6271 35.448 35.7567 36.5661 33.8478 36.0365C32.4974 35.6615 31.5069 34.419 31.4993 33.0393C31.4869 30.792 31.5016 28.5454 31.4928 26.2981C31.488 25.0862 30.3929 24.1927 29.1732 24.3848C28.2146 24.5353 27.5095 25.3363 27.5066 26.308C27.4995 28.5645 27.5267 30.8215 27.4954 33.078C27.4723 34.7489 26.0681 36.1888 24.1847 36.1772C22.3373 36.1656 20.9272 34.7147 20.9225 32.898C20.9189 31.6636 20.9284 30.4292 20.9183 29.1947C20.9083 27.9151 19.5544 26.9886 18.3198 27.4052C17.438 27.7027 16.9458 28.4018 16.9375 29.4112C16.9274 30.5779 16.928 31.7452 16.9393 32.9119C16.9469 33.7251 17.0669 34.5243 17.3447 35.2952C18.9705 39.814 24.5357 41.5166 28.5018 38.7051C28.8499 38.4586 29.1667 38.1692 29.5142 37.8874C29.5939 37.9585 29.6725 38.0274 29.7505 38.098C31.5099 39.6953 33.5925 40.3424 35.9494 39.9806C39.4698 39.4401 42.0175 36.5175 42.056 32.9976C42.0908 29.8151 42.0672 26.6326 42.0654 23.4501C42.0648 22.8454 41.8745 22.3048 41.397 21.9026Z" fill="#FFB830"/>
</svg>
