<svg width="103" height="90" viewBox="0 0 103 90" fill="none" xmlns="http://www.w3.org/2000/svg">
    <g opacity="0.5" filter="url(#filter0_f_406_780)">
        <path d="M77.4935 34.5C77.4935 32.0246 76.5102 29.6506 74.7598 27.9003C73.0095 26.1499 70.6355 25.1666 68.1602 25.1666C65.6848 25.1666 63.3108 26.1499 61.5605 27.9003C59.8102 29.6506 58.8268 32.0246 58.8268 34.5H54.1602C54.1602 32.2597 54.698 30.0521 55.7281 28.0628C56.7583 26.0734 58.2508 24.3603 60.0804 23.0673C61.9099 21.7744 64.023 20.9394 66.2421 20.6325C68.4613 20.3256 70.7217 20.5557 72.8335 21.3035C74.9453 22.0513 76.8467 23.295 78.3782 24.9301C79.9096 26.5652 81.0263 28.544 81.6345 30.7001C82.2426 32.8563 82.3244 35.1269 81.873 37.3212C81.4217 39.5156 80.4503 41.5695 79.0405 43.3106L61.9605 63.6643L82.1602 63.6666V68.3333H54.1602V65.7036L75.3095 40.499C76.7232 38.82 77.4969 36.6948 77.4935 34.5Z" fill="#2CB48E"/>
        <path d="M36.1603 20.5C39.2426 20.5 41.9563 21.312 44.2033 22.8193C46.4503 24.3243 48.2306 26.5247 49.451 29.3013C50.669 32.078 51.327 35.4263 51.327 39.2343V50.7657C51.327 54.5737 50.669 57.9243 49.451 60.6987C48.2306 63.4753 46.4503 65.6757 44.201 67.1807C41.9563 68.688 39.2426 69.5 36.1603 69.5C33.078 69.5 30.3643 68.688 28.1173 67.1807C25.8703 65.6757 24.09 63.4753 22.8697 60.6987C21.6517 57.922 20.9937 54.5737 20.9937 50.7657V39.2343C20.9937 35.4263 21.6517 32.0757 22.8697 29.3013C24.09 26.5247 25.8703 24.3243 28.1197 22.8193C30.362 21.312 33.0757 20.5 36.1603 20.5ZM36.1603 25.1667C34.023 25.1667 32.2077 25.694 30.7167 26.695C29.2303 27.6913 28.0147 29.1917 27.142 31.175C26.1807 33.3683 25.6603 36.0937 25.6603 39.2343V50.7657C25.6603 53.9063 26.1807 56.6317 27.142 58.8227C28.0147 60.8083 29.2303 62.3087 30.7167 63.305C32.2077 64.306 34.023 64.8333 36.1603 64.8333C38.2977 64.8333 40.113 64.306 41.604 63.305C43.0903 62.3087 44.306 60.8083 45.1786 58.825C46.14 56.6317 46.6603 53.9063 46.6603 50.7657V39.2343C46.6603 36.0937 46.14 33.3683 45.1786 31.1773C44.306 29.1917 43.0903 27.6913 41.604 26.695C40.113 25.694 38.2977 25.1667 36.1603 25.1667Z" fill="#2CB48E"/>
        <path d="M36.1603 20.5C39.2426 20.5 41.9563 21.312 44.2033 22.8193C46.4503 24.3243 48.2306 26.5247 49.451 29.3013C50.669 32.078 51.327 35.4263 51.327 39.2343V50.7657C51.327 54.5737 50.669 57.9243 49.451 60.6987C48.2306 63.4753 46.4503 65.6757 44.201 67.1807C41.9563 68.688 39.2426 69.5 36.1603 69.5C33.078 69.5 30.3643 68.688 28.1173 67.1807C25.8703 65.6757 24.09 63.4753 22.8697 60.6987C21.6517 57.922 20.9937 54.5737 20.9937 50.7657V39.2343C20.9937 35.4263 21.6517 32.0757 22.8697 29.3013C24.09 26.5247 25.8703 24.3243 28.1197 22.8193C30.362 21.312 33.0757 20.5 36.1603 20.5ZM36.1603 25.1667C34.023 25.1667 32.2077 25.694 30.7167 26.695C29.2303 27.6913 28.0147 29.1917 27.142 31.175C26.1807 33.3683 25.6603 36.0937 25.6603 39.2343V50.7657C25.6603 53.9063 26.1807 56.6317 27.142 58.8227C28.0147 60.8083 29.2303 62.3087 30.7167 63.305C32.2077 64.306 34.023 64.8333 36.1603 64.8333C38.2977 64.8333 40.113 64.306 41.604 63.305C43.0903 62.3087 44.306 60.8083 45.1786 58.825C46.14 56.6317 46.6603 53.9063 46.6603 50.7657V39.2343C46.6603 36.0937 46.14 33.3683 45.1786 31.1773C44.306 29.1917 43.0903 27.6913 41.604 26.695C40.113 25.694 38.2977 25.1667 36.1603 25.1667Z" fill="#2CB48E"/>
    </g>
    <path d="M77.4935 34.5C77.4935 32.0246 76.5102 29.6506 74.7598 27.9003C73.0095 26.1499 70.6355 25.1666 68.1602 25.1666C65.6848 25.1666 63.3108 26.1499 61.5605 27.9003C59.8102 29.6506 58.8268 32.0246 58.8268 34.5H54.1602C54.1602 32.2597 54.698 30.0521 55.7281 28.0628C56.7583 26.0734 58.2508 24.3603 60.0804 23.0673C61.9099 21.7744 64.023 20.9394 66.2421 20.6325C68.4613 20.3256 70.7217 20.5557 72.8335 21.3035C74.9453 22.0513 76.8467 23.295 78.3782 24.9301C79.9096 26.5652 81.0263 28.544 81.6345 30.7001C82.2426 32.8563 82.3244 35.1269 81.873 37.3212C81.4217 39.5156 80.4503 41.5695 79.0405 43.3106L61.9605 63.6643L82.1602 63.6666V68.3333H54.1602V65.7036L75.3095 40.499C76.7232 38.82 77.4969 36.6948 77.4935 34.5Z" fill="#2CB48E"/>
    <path d="M36.1603 20.5C39.2426 20.5 41.9563 21.312 44.2033 22.8193C46.4503 24.3243 48.2306 26.5247 49.451 29.3013C50.669 32.078 51.327 35.4263 51.327 39.2343V50.7657C51.327 54.5737 50.669 57.9243 49.451 60.6987C48.2306 63.4753 46.4503 65.6757 44.201 67.1807C41.9563 68.688 39.2426 69.5 36.1603 69.5C33.078 69.5 30.3643 68.688 28.1173 67.1807C25.8703 65.6757 24.09 63.4753 22.8697 60.6987C21.6517 57.922 20.9937 54.5737 20.9937 50.7657V39.2343C20.9937 35.4263 21.6517 32.0757 22.8697 29.3013C24.09 26.5247 25.8703 24.3243 28.1197 22.8193C30.362 21.312 33.0757 20.5 36.1603 20.5ZM36.1603 25.1667C34.023 25.1667 32.2077 25.694 30.7167 26.695C29.2303 27.6913 28.0147 29.1917 27.142 31.175C26.1807 33.3683 25.6603 36.0937 25.6603 39.2343V50.7657C25.6603 53.9063 26.1807 56.6317 27.142 58.8227C28.0147 60.8083 29.2303 62.3087 30.7167 63.305C32.2077 64.306 34.023 64.8333 36.1603 64.8333C38.2976 64.8333 40.113 64.306 41.604 63.305C43.0903 62.3087 44.306 60.8083 45.1786 58.825C46.14 56.6317 46.6603 53.9063 46.6603 50.7657V39.2343C46.6603 36.0937 46.14 33.3683 45.1786 31.1773C44.306 29.1917 43.0903 27.6913 41.604 26.695C40.113 25.694 38.2976 25.1667 36.1603 25.1667Z" fill="#2CB48E"/>
    <path d="M36.1603 20.5C39.2426 20.5 41.9563 21.312 44.2033 22.8193C46.4503 24.3243 48.2306 26.5247 49.451 29.3013C50.669 32.078 51.327 35.4263 51.327 39.2343V50.7657C51.327 54.5737 50.669 57.9243 49.451 60.6987C48.2306 63.4753 46.4503 65.6757 44.201 67.1807C41.9563 68.688 39.2426 69.5 36.1603 69.5C33.078 69.5 30.3643 68.688 28.1173 67.1807C25.8703 65.6757 24.09 63.4753 22.8697 60.6987C21.6517 57.922 20.9937 54.5737 20.9937 50.7657V39.2343C20.9937 35.4263 21.6517 32.0757 22.8697 29.3013C24.09 26.5247 25.8703 24.3243 28.1197 22.8193C30.362 21.312 33.0757 20.5 36.1603 20.5ZM36.1603 25.1667C34.023 25.1667 32.2077 25.694 30.7167 26.695C29.2303 27.6913 28.0147 29.1917 27.142 31.175C26.1807 33.3683 25.6603 36.0937 25.6603 39.2343V50.7657C25.6603 53.9063 26.1807 56.6317 27.142 58.8227C28.0147 60.8083 29.2303 62.3087 30.7167 63.305C32.2077 64.306 34.023 64.8333 36.1603 64.8333C38.2976 64.8333 40.113 64.306 41.604 63.305C43.0903 62.3087 44.306 60.8083 45.1786 58.825C46.14 56.6317 46.6603 53.9063 46.6603 50.7657V39.2343C46.6603 36.0937 46.14 33.3683 45.1786 31.1773C44.306 29.1917 43.0903 27.6913 41.604 26.695C40.113 25.694 38.2976 25.1667 36.1603 25.1667Z" fill="#2CB48E"/>
    <defs>
        <filter id="filter0_f_406_780" x="0.993652" y="0.5" width="101.167" height="89" filterUnits="userSpaceOnUse" color-interpolation-filters="sRGB">
            <feFlood flood-opacity="0" result="BackgroundImageFix"/>
            <feBlend mode="normal" in="SourceGraphic" in2="BackgroundImageFix" result="shape"/>
            <feGaussianBlur stdDeviation="10" result="effect1_foregroundBlur_406_780"/>
        </filter>
    </defs>
</svg>
