<svg width="18" height="18" viewBox="0 0 18 18" fill="none" xmlns="http://www.w3.org/2000/svg">
<path fill-rule="evenodd" clip-rule="evenodd" d="M9.01186 0.00158997C11.8053 0.00158997 14.0802 2.14162 14.0802 4.77212L14.0801 6.19094C15.7784 6.74693 17 8.26781 17 10.0527V13.9125C17 16.1668 15.0513 18 12.6549 18H5.34511C2.9487 18 1 16.1668 1 13.9125V10.0527C1 8.26815 2.22119 6.7475 3.91894 6.19126L3.91961 4.77212C3.92535 3.47622 4.4582 2.28021 5.41964 1.38388C6.38203 0.486652 7.65246 -0.0326074 9.01186 0.00158997ZM12.6549 7.31514H5.34511C3.73985 7.31514 2.43498 8.54264 2.43498 10.0527V13.9125C2.43498 15.4226 3.73985 16.6501 5.34511 16.6501H12.6549C14.2592 16.6501 15.565 15.4226 15.565 13.9125V10.0527C15.565 8.54264 14.2592 7.31514 12.6549 7.31514ZM8.99981 10.3081C9.39586 10.3081 9.7173 10.6105 9.7173 10.9831V12.9818C9.7173 13.3544 9.39586 13.6568 8.99981 13.6568C8.60375 13.6568 8.28232 13.3544 8.28232 12.9818V10.9831C8.28232 10.6105 8.60375 10.3081 8.99981 10.3081ZM9.00899 1.35148H8.99369C8.0246 1.35148 7.11674 1.70246 6.43082 2.34231C5.74011 2.98486 5.35841 3.84249 5.35458 4.75682L5.35372 5.96473H12.6444L12.6452 4.77212C12.6452 2.88586 11.0141 1.35148 9.00899 1.35148Z" fill="#2E2E40"/>
</svg>
