<svg width="49" height="48" viewBox="0 0 76 48" fill="none" xmlns="http://www.w3.org/2000/svg">
<path fill-rule="evenodd" clip-rule="evenodd" d="M22.5881 24C22.5881 37.2548 33.3332 48 46.5881 48C59.8429 48 70.5881 37.2548 70.5881 24C70.5881 10.7452 59.8429 0 46.5881 0V7.27273C55.8263 7.27273 63.3154 14.7618 63.3154 24C63.3154 33.2382 55.8263 40.7273 46.5881 40.7273C37.3499 40.7273 29.8608 33.2382 29.8608 24H22.5881Z" fill="#2CB48E"/>
<path fill-rule="evenodd" clip-rule="evenodd" d="M47.9999 24C47.9999 10.7452 37.2547 -8.56877e-06 23.9999 -9.72754e-06C10.745 -1.08863e-05 -0.000134072 10.7452 -0.000135231 24C-0.00013639 37.2548 10.745 48 23.9999 48L23.9999 40.7273C14.7617 40.7273 7.27259 33.2382 7.27259 24C7.27259 14.7618 14.7617 7.27272 23.9999 7.27272C33.2381 7.27272 40.7272 14.7618 40.7272 24L47.9999 24Z" fill="white"/>
</svg>
