<svg width="314" height="140" viewBox="0 0 314 140" fill="none" xmlns="http://www.w3.org/2000/svg">
<rect width="313.25" height="140" transform="translate(0.5)" fill="#17171E"/>
<g clip-path="url(#clip0_1761_11200)">
<path d="M139.518 89.9234H66.2969C63.732 89.9234 61.6557 87.847 61.6557 85.2822V54.7174C61.6557 52.1525 63.732 50.0762 66.2969 50.0762H139.518V89.9234Z" fill="#272727"/>
<path d="M247.854 89.9234H139.518V50.0762H247.854C250.419 50.0762 252.494 52.1525 252.494 54.7174V85.2974C252.494 87.847 250.419 89.9234 247.854 89.9234Z" fill="#F1F1F1"/>
<path d="M85.4418 74.244C85.4418 75.7556 85.2281 76.9616 84.8158 77.8623C84.4038 78.7632 83.854 79.4502 83.1975 79.9081C82.5411 80.3815 81.8082 80.6868 80.9991 80.8394C80.1899 80.9921 79.3961 81.0685 78.6174 81.0685H70.877V59.0991H79.3961C80.4952 59.0991 81.3808 59.2823 82.0832 59.6487C82.7853 60.0151 83.335 60.4884 83.7473 61.0838C84.1594 61.6792 84.4343 62.3357 84.5869 63.0533C84.7396 63.7708 84.8006 64.4884 84.7853 65.1754C84.7549 67.1755 84.251 68.5343 83.2739 69.2517C83.9151 69.557 84.4343 70.1067 84.8464 70.9005C85.2434 71.7097 85.4418 72.8243 85.4418 74.244ZM80.6785 65.2517C80.6785 64.5647 80.6022 64.0456 80.4343 63.7098C80.2663 63.3739 79.9457 63.206 79.4572 63.206H75.0449V67.5876H79.0602C79.6862 67.5876 80.0984 67.3739 80.3274 66.9616C80.5563 66.5342 80.6785 65.954 80.6785 65.2517ZM81.2587 74.2746C81.2587 73.6639 81.2128 73.1755 81.1061 72.8243C81.0144 72.4732 80.8769 72.1831 80.7244 71.9845C80.5716 71.7861 80.4038 71.6486 80.2052 71.5875C80.0221 71.5264 79.8388 71.4961 79.6556 71.4961H75.0449V76.7632H79.3045C80.0373 76.7632 80.5563 76.5646 80.8311 76.1829C81.1212 75.7861 81.2587 75.1602 81.2587 74.2746ZM102.144 81.0685H88.1899V59.0991H101.9V63.3586H92.3426V67.4044H101.136V71.6639H92.3426V76.7785H102.144V81.0685ZM118.297 74.5799C118.297 79.2058 115.808 81.5264 110.831 81.5264C108.419 81.5264 106.572 80.8394 105.304 79.4808C104.037 78.1067 103.411 75.9998 103.411 73.1449H107.457C107.488 73.7708 107.564 74.3662 107.671 74.8852C107.778 75.4197 107.976 75.8623 108.251 76.244C108.526 76.6257 108.877 76.9158 109.32 77.1296C109.762 77.3433 110.327 77.4502 111.014 77.4502C112.144 77.4502 112.953 77.2364 113.457 76.8243C113.961 76.412 114.22 75.5875 114.22 74.3968C114.22 73.7708 114.113 73.3128 113.915 73.038C113.717 72.7632 113.396 72.5494 112.969 72.3815C112.48 72.1982 111.885 72.0609 111.198 71.954C110.51 71.8472 109.717 71.6792 108.831 71.435C108.144 71.2364 107.503 71.0074 106.923 70.7479C106.343 70.4884 105.823 70.1373 105.381 69.6639C104.938 69.1907 104.602 68.5799 104.358 67.832C104.114 67.0838 103.991 66.0914 103.991 64.8701C103.991 63.9693 104.098 63.1907 104.327 62.5342C104.541 61.8777 104.846 61.3128 105.213 60.8548C105.579 60.3968 106.007 60.0304 106.48 59.7403C106.969 59.4502 107.457 59.2365 107.961 59.0838C108.465 58.9312 108.969 58.8243 109.472 58.7785C109.976 58.7327 110.449 58.7021 110.862 58.7021C112.297 58.7021 113.472 58.9312 114.358 59.3739C115.259 59.8167 115.946 60.4121 116.449 61.1144C116.953 61.8319 117.289 62.6411 117.457 63.5266C117.625 64.4273 117.716 65.3128 117.716 66.183H113.747C113.686 65.8166 113.64 65.4044 113.594 64.9617C113.564 64.5189 113.457 64.122 113.304 63.8014C113.167 63.5113 112.938 63.2517 112.587 63.0227C112.236 62.7937 111.686 62.6716 110.938 62.6716C110.358 62.6716 109.869 62.7174 109.488 62.8243C109.106 62.9311 108.816 63.0838 108.602 63.2823C108.388 63.4808 108.236 63.7556 108.159 64.0762C108.083 64.3968 108.037 64.7937 108.037 65.2365C108.037 65.7708 108.159 66.1525 108.388 66.3815C108.617 66.6105 109.06 66.809 109.701 66.9769C110.373 67.1602 111.045 67.3128 111.732 67.435C112.419 67.557 113.075 67.7098 113.717 67.8776C114.358 68.0456 114.953 68.2746 115.503 68.5646C116.052 68.8549 116.541 69.2364 116.953 69.7403C117.365 70.244 117.701 70.8852 117.93 71.6639C118.19 72.4426 118.297 73.4197 118.297 74.5799ZM133.457 63.3433H128.434V81.0685H124.266V63.3433H119.243V59.0991H133.442V63.3433H133.457Z" fill="#FEFEFE"/>
<path d="M160.389 72.9922C160.298 74.1371 160.099 75.2211 159.794 76.2593C159.488 77.2975 159.046 78.1982 158.466 78.9616C157.885 79.7401 157.122 80.3508 156.191 80.8088C155.26 81.2669 154.13 81.4959 152.801 81.4959C151.275 81.4959 149.977 81.2364 148.908 80.7172C147.84 80.1982 146.985 79.4348 146.313 78.4577C145.657 77.4653 145.168 76.244 144.878 74.7936C144.573 73.3431 144.42 71.6943 144.42 69.8318C144.42 68.1218 144.588 66.5646 144.908 65.1906C145.229 63.8165 145.733 62.641 146.42 61.6639C147.107 60.702 147.977 59.954 149.015 59.4349C150.069 58.9158 151.321 58.6562 152.771 58.6562C154.237 58.6562 155.427 58.8853 156.359 59.3433C157.29 59.8013 158.023 60.3967 158.588 61.1295C159.137 61.8623 159.534 62.702 159.779 63.6333C160.023 64.5646 160.191 65.5112 160.298 66.4425H156.359C156.267 65.9539 156.16 65.4806 156.038 65.0379C155.931 64.5952 155.748 64.1982 155.519 63.8776C155.29 63.557 154.969 63.2975 154.572 63.099C154.176 62.9005 153.641 62.8089 152.969 62.8089C152.16 62.8089 151.473 62.9463 150.924 63.2059C150.374 63.4654 149.916 63.8929 149.58 64.4883C149.244 65.0837 149 65.8623 148.847 66.8241C148.695 67.786 148.634 68.9769 148.634 70.3966C148.634 71.8318 148.741 72.9769 148.939 73.8776C149.137 74.763 149.427 75.4653 149.794 75.954C150.16 76.4577 150.603 76.7936 151.137 76.9769C151.672 77.16 152.252 77.2517 152.908 77.2517C153.58 77.2517 154.099 77.1447 154.496 76.9463C154.893 76.7477 155.198 76.4577 155.427 76.076C155.657 75.6943 155.84 75.2517 155.962 74.7325C156.099 74.2135 156.221 73.6334 156.359 72.9769H160.389V72.9922ZM177.107 81.0683H172.954V71.5875H166.695V81.0683H162.542V59.099H166.695V67.2975H172.954V59.099H177.107V81.0683ZM194.618 81.0683H190.267L189.122 76.5341H183.595L182.466 81.0683H178.267L184.282 59.099H188.404L194.618 81.0683ZM188.084 72.4424L186.374 65.3738L184.618 72.4424H188.084ZM206.817 81.0683L200.465 67.6943V81.0683H196.313V59.099H200.389L206.786 72.3813V59.099H210.908V81.0683H206.817ZM229.64 81.0683H226.267V78.8394C226.023 79.3737 225.717 79.8012 225.351 80.1371C224.984 80.473 224.587 80.7325 224.16 80.931C223.733 81.1294 223.275 81.2516 222.816 81.3279C222.359 81.4042 221.9 81.4348 221.458 81.4348C219.931 81.4348 218.649 81.1447 217.626 80.5493C216.603 79.954 215.778 79.1447 215.152 78.1065C214.526 77.0684 214.084 75.8318 213.824 74.4119C213.565 72.9922 213.427 71.4653 213.427 69.8318C213.427 62.3814 216.221 58.6562 221.824 58.6562C223.213 58.6562 224.374 58.8853 225.336 59.328C226.297 59.7707 227.076 60.3814 227.671 61.1143C228.267 61.8623 228.694 62.7173 228.955 63.6639C229.214 64.6257 229.351 65.6181 229.351 66.6257H225.107C225.107 66.1829 225.076 65.7249 225.015 65.2516C224.954 64.7784 224.817 64.3662 224.603 63.9997C224.389 63.6333 224.053 63.328 223.61 63.099C223.168 62.87 222.572 62.7478 221.809 62.7478C221.046 62.7478 220.389 62.87 219.87 63.1295C219.336 63.389 218.908 63.786 218.572 64.3356C218.236 64.8852 217.992 65.6028 217.839 66.473C217.687 67.3433 217.61 68.3966 217.61 69.6181C217.61 70.9616 217.672 72.1218 217.809 73.0836C217.946 74.0454 218.175 74.8241 218.511 75.4042C218.847 75.9996 219.29 76.4271 219.839 76.7019C220.389 76.9769 221.091 77.1142 221.946 77.1142C222.435 77.1142 222.893 77.0378 223.336 76.8852C223.778 76.7325 224.16 76.4882 224.481 76.1676C224.801 75.847 225.061 75.4195 225.244 74.9158C225.427 74.4119 225.503 73.8012 225.488 73.0836H221.58V69.0378H229.672V81.0683H229.64ZM246.175 81.0683H232.252V59.099H245.931V63.3585H236.404V67.4043H245.167V71.6639H236.404V76.7783H246.175V81.0683Z" fill="#2A2A28"/>
</g>
<defs>
<clipPath id="clip0_1761_11200">
<rect width="190.934" height="39.8472" fill="white" transform="translate(61.6577 50.0762)"/>
</clipPath>
</defs>
</svg>
