<svg width="314" height="140" viewBox="0 0 314 140" fill="none" xmlns="http://www.w3.org/2000/svg">
<rect width="313.25" height="140" transform="translate(0.5)" fill="#17171E"/>
<g clip-path="url(#clip0_1761_11191)">
<path d="M93.9429 88.1179C86.9769 87.9596 80.8553 85.7431 75.7363 81.1519C73.9948 79.5687 73.7838 77.5634 75.1558 75.9802C76.5807 74.3443 78.7444 74.2915 80.5387 75.9275C88.1907 82.7879 99.8007 82.7879 107.347 75.8219C108.719 74.3971 110.988 74.3971 112.413 75.7691C112.466 75.8219 112.519 75.8747 112.519 75.8747C113.944 77.4051 113.838 79.516 112.149 81.0464C107.03 85.7431 100.909 87.9596 93.9429 88.1179Z" fill="#6C63FF"/>
<path d="M93.3627 46.3763C101.941 46.4848 108.613 53.3235 108.454 61.8991C108.295 70.3117 101.358 76.8792 92.7273 76.7705C84.7847 76.662 78.0069 69.6062 78.0599 61.5734C78.1658 53.0522 84.9965 46.2677 93.2568 46.3763C93.3098 46.3763 93.3098 46.3763 93.3627 46.3763Z" fill="#FF6584"/>
<path fill-rule="evenodd" clip-rule="evenodd" d="M144.53 56.1969H141.077V59.4965C139.312 56.8875 136.78 55.583 133.481 55.583C130.718 55.583 128.339 56.5806 126.344 58.6524C124.349 60.7243 123.351 63.1799 123.351 66.0958C123.351 69.0117 124.349 71.4673 126.344 73.5391C128.262 75.611 130.641 76.6085 133.481 76.6085C136.857 76.6085 139.389 75.304 141.077 72.695V84.1287H144.53V56.1969ZM141.078 66.0965C141.078 68.1683 140.387 69.8565 139.006 71.2377C137.625 72.619 135.936 73.3096 133.941 73.3096C131.946 73.3096 130.258 72.619 128.877 71.2377C127.495 69.7798 126.805 68.1683 126.805 66.0965C126.805 64.1014 127.495 62.4132 128.877 61.032C130.258 59.6507 131.946 58.9601 133.941 58.9601C135.936 58.9601 137.625 59.6507 139.006 61.032C140.387 62.4132 141.078 64.0246 141.078 66.0965Z" fill="white"/>
<path d="M163.638 56.1963H167.091V76.1476H163.638V73.3083C162.257 75.6105 160.108 76.6848 157.115 76.6848C152.435 76.6848 149.365 73.5385 149.365 68.474V56.1963H152.818V68.2438C152.818 71.4667 154.737 73.385 157.806 73.385C161.259 73.385 163.638 71.2364 163.638 66.7858V56.1963Z" fill="white"/>
<path fill-rule="evenodd" clip-rule="evenodd" d="M193.565 66.1717C193.565 63.2557 192.567 60.8002 190.573 58.7282C188.654 56.7331 186.275 55.6588 183.436 55.8123C180.06 55.8123 177.527 57.1168 175.839 59.7258V56.2727H172.386V84.2045H175.839V72.7709C177.604 75.3799 180.136 76.6844 183.436 76.6844C186.199 76.6844 188.577 75.6868 190.573 73.615C192.567 71.6198 193.565 69.0876 193.565 66.1717ZM190.112 66.0951C190.112 68.167 189.421 69.8552 188.04 71.2364C186.659 72.6176 184.971 73.3082 182.975 73.3082C180.98 73.3082 179.292 72.6176 177.911 71.2364C176.529 69.7784 175.839 68.167 175.839 66.0951C175.839 64.1 176.529 62.4117 177.911 61.0305C179.215 59.6493 180.904 58.9587 182.975 58.9587C184.971 58.9587 186.659 59.6493 188.04 61.0305C189.421 62.4117 190.112 64.0233 190.112 66.0951Z" fill="white"/>
<path fill-rule="evenodd" clip-rule="evenodd" d="M218.966 66.1717C218.966 63.2557 217.968 60.8002 215.972 58.7282C213.978 56.7331 211.598 55.6588 208.836 55.8123C205.46 55.8123 202.927 57.1168 201.239 59.7258V56.2727H197.786V84.2045H201.239V72.7709C203.004 75.3799 205.536 76.6844 208.836 76.6844C211.598 76.6844 213.978 75.6868 215.972 73.615C217.968 71.6198 218.966 69.0876 218.966 66.1717ZM215.435 66.0951C215.435 68.167 214.745 69.8552 213.364 71.2364C211.982 72.6176 210.37 73.3082 208.299 73.3082C206.303 73.3082 204.615 72.6176 203.234 71.2364C201.853 69.7784 201.162 68.167 201.162 66.0951C201.162 64.1 201.853 62.4117 203.234 61.0305C204.539 59.6493 206.227 58.9587 208.299 58.9587C210.294 58.9587 211.982 59.6493 213.364 61.0305C214.745 62.4117 215.435 64.0233 215.435 66.0951Z" fill="white"/>
<path d="M236.23 56.1963H239.99L231.78 77.3754C230.091 81.9027 226.868 84.435 222.878 84.1281V80.9052C225.333 81.1354 227.099 79.7542 228.25 76.8382L228.633 76.0709L219.886 56.1963H223.645L230.474 71.8503L236.23 56.1963Z" fill="white"/>
</g>
<defs>
<clipPath id="clip0_1761_11191">
<rect width="165.731" height="42" fill="white" transform="translate(74.2597 46.375)"/>
</clipPath>
</defs>
</svg>
