<svg width="314" height="140" viewBox="0 0 314 140" fill="none" xmlns="http://www.w3.org/2000/svg">
<rect width="313.25" height="140" transform="translate(0.75)" fill="#17171E"/>
<mask id="mask0_1788_15537" style="mask-type:luminance" maskUnits="userSpaceOnUse" x="97" y="54" width="121" height="32">
<path d="M97.375 54.5H217.375V85.5H97.375V54.5Z" fill="white"/>
</mask>
<g mask="url(#mask0_1788_15537)">
<path d="M98.065 60.554C98.0545 60.3902 98.1083 60.2288 98.215 60.104C98.2717 60.0453 98.3403 59.9995 98.4162 59.9697C98.4921 59.9398 98.5736 59.9266 98.655 59.931H112.018C112.103 59.9264 112.188 59.9394 112.268 59.9692C112.348 59.999 112.421 60.0449 112.482 60.104C112.592 60.237 112.647 60.405 112.64 60.576V63.914C112.636 64.0748 112.581 64.2301 112.482 64.357C112.427 64.4267 112.356 64.4827 112.276 64.5205C112.195 64.5583 112.107 64.577 112.018 64.575H103.278V67.927H110.019C110.171 67.921 110.319 67.962 110.446 68.047C110.504 68.0959 110.55 68.1585 110.579 68.2291C110.607 68.2997 110.618 68.3763 110.61 68.452V71.325C110.61 71.432 110.577 71.535 110.517 71.624C110.464 71.7019 110.391 71.7648 110.307 71.807C110.222 71.8491 110.128 71.8691 110.034 71.865H103.292V75.325H112.354C112.48 75.3075 112.607 75.3347 112.715 75.4017C112.822 75.4688 112.903 75.5716 112.942 75.692C112.967 75.772 112.974 75.856 112.962 75.939V79.329C112.961 79.3758 112.951 79.4219 112.931 79.4645C112.912 79.5071 112.884 79.5454 112.85 79.577C112.85 79.825 112.632 79.952 112.303 79.952H98.655C98.4976 79.9615 98.3424 79.9108 98.221 79.81C98.1647 79.7534 98.1215 79.6851 98.0944 79.6099C98.0673 79.5348 98.0569 79.4546 98.064 79.375V60.555L98.065 60.554ZM114.309 79.63L114.527 79.217C114.602 79.082 114.692 78.939 114.789 78.797L120.856 69.721L117.792 65.101L114.722 60.487C114.675 60.4228 114.632 60.3553 114.594 60.285C114.563 60.2187 114.543 60.1478 114.534 60.075C114.534 60 114.602 59.969 114.692 59.969C114.783 59.9736 114.874 59.9529 114.954 59.909H119.643C119.81 59.9098 119.973 59.9591 120.113 60.0511C120.253 60.1431 120.362 60.2737 120.429 60.427L123.732 65.393L127.072 60.435C127.136 60.2876 127.24 60.161 127.372 60.0696C127.504 59.9782 127.659 59.9257 127.82 59.918H132.584C132.66 59.924 132.736 59.938 132.809 59.962C132.835 59.9718 132.858 59.9893 132.874 60.012C132.89 60.035 132.898 60.062 132.898 60.09C132.892 60.2194 132.838 60.3421 132.748 60.435L126.585 69.72L132.914 79.17C132.993 79.279 133.06 79.395 133.116 79.516C133.163 79.596 133.186 79.686 133.183 79.779C133.183 79.914 133.1 79.981 132.936 79.981H128.113C127.962 79.9823 127.815 79.9349 127.693 79.846C127.563 79.7521 127.46 79.6255 127.394 79.479L123.732 74.04L120.107 79.479C120.041 79.6256 119.938 79.7522 119.807 79.846C119.685 79.9351 119.538 79.9825 119.387 79.981H114.549C114.482 79.9821 114.416 79.961 114.362 79.921C114.335 79.9012 114.314 79.8752 114.299 79.8452C114.285 79.8153 114.278 79.7823 114.279 79.749C114.277 79.707 114.288 79.6663 114.309 79.63ZM135.918 60.524C135.914 60.3702 135.967 60.2204 136.068 60.104C136.125 60.0446 136.193 59.9984 136.27 59.9685C136.346 59.9386 136.428 59.9258 136.51 59.931H140.921C141.057 59.9331 141.19 59.9666 141.311 60.029C141.457 60.1002 141.579 60.2125 141.662 60.352C142.786 62.174 143.917 63.9917 145.055 65.805L148.471 71.258V60.442C148.505 60.2929 148.593 60.1617 148.718 60.074C148.822 59.9847 148.956 59.9366 149.093 59.939H152.935C153.105 59.9361 153.272 59.9915 153.406 60.096C153.469 60.1488 153.519 60.2158 153.552 60.2916C153.585 60.3673 153.599 60.4497 153.594 60.532V79.457C153.601 79.5317 153.589 79.607 153.561 79.6762C153.532 79.7455 153.486 79.8065 153.428 79.854C153.299 79.9448 153.144 79.9899 152.987 79.982H148.659C148.542 79.9845 148.429 79.9414 148.344 79.862C148.241 79.764 148.148 79.6558 148.067 79.539L144.517 73.666C143.334 71.706 142.148 69.749 140.959 67.793V79.389C140.971 79.5481 140.923 79.7057 140.824 79.831C140.757 79.8873 140.68 79.9296 140.596 79.9554C140.513 79.9811 140.425 79.9899 140.338 79.981H136.51C136.427 79.9901 136.343 79.9793 136.265 79.9493C136.187 79.9194 136.117 79.8713 136.061 79.809C135.964 79.6969 135.913 79.5522 135.919 79.404L135.918 60.524ZM198.284 69.974C198.286 70.894 198.163 71.81 197.917 72.697C197.68 73.5338 197.33 74.3343 196.876 75.076C195.975 76.5616 194.706 77.789 193.191 78.639C191.598 79.5121 189.809 79.9663 187.993 79.959H181.351C181.199 79.9615 181.05 79.9253 180.916 79.854C180.788 79.779 180.728 79.628 180.728 79.389V60.553C180.726 60.4638 180.742 60.3752 180.776 60.2926C180.81 60.21 180.86 60.1352 180.924 60.073C180.982 60.0091 181.054 59.9596 181.135 59.9283C181.215 59.8971 181.302 59.885 181.388 59.893H188.031C188.954 59.892 189.872 60.01 190.765 60.246C191.622 60.473 192.445 60.809 193.214 61.243C193.971 61.675 194.67 62.197 195.296 62.796C195.92 63.3969 196.462 64.0782 196.906 64.822C197.358 65.58 197.708 66.392 197.947 67.237C198.187 68.1294 198.301 69.0511 198.284 69.975V69.974ZM185.949 64.762V75.15H187.686L188.278 75.106C188.932 75.0553 189.571 74.8876 190.166 74.611C190.724 74.3411 191.231 73.9756 191.664 73.531C192.105 73.074 192.454 72.54 192.69 71.955C192.943 71.329 193.07 70.658 193.064 69.982C193.072 69.2866 192.935 68.5971 192.663 67.957C192.393 67.3232 191.998 66.7502 191.502 66.2721C191.006 65.794 190.419 65.4205 189.776 65.174C189.114 64.9103 188.407 64.7778 187.694 64.784L185.949 64.762ZM201.804 60.554C201.794 60.3903 201.848 60.229 201.954 60.104C202.011 60.0451 202.08 59.9992 202.156 59.9693C202.232 59.9395 202.314 59.9264 202.396 59.931H215.765C215.849 59.9256 215.933 59.9382 216.012 59.968C216.091 59.9978 216.163 60.0442 216.222 60.104C216.337 60.235 216.396 60.404 216.387 60.577V63.915C216.386 64.0772 216.327 64.2337 216.222 64.357C216.165 64.4262 216.093 64.4808 216.011 64.5161C215.929 64.5514 215.839 64.5665 215.75 64.56H207.017V67.912H213.758C213.91 67.9053 214.059 67.9473 214.185 68.032C214.243 68.0811 214.289 68.1436 214.317 68.2142C214.346 68.2847 214.357 68.3612 214.35 68.437V71.326C214.349 71.4611 214.295 71.5903 214.2 71.686C214.148 71.7479 214.083 71.7966 214.008 71.8279C213.934 71.8592 213.853 71.8723 213.773 71.866H207.033V75.324H216.095C216.22 75.306 216.348 75.3332 216.456 75.4005C216.563 75.4679 216.643 75.5712 216.681 75.692C216.707 75.772 216.714 75.856 216.702 75.939V79.329C216.699 79.4234 216.658 79.5126 216.589 79.577C216.589 79.824 216.372 79.952 216.035 79.952H202.395C202.237 79.962 202.082 79.9108 201.961 79.809C201.904 79.7525 201.861 79.6842 201.834 79.6091C201.806 79.5339 201.796 79.4537 201.803 79.374L201.804 60.554Z" fill="#BEBEC0"/>
<path fill-rule="evenodd" clip-rule="evenodd" d="M174.168 61.7769L166.888 71.9369L164.014 69.9709C163.54 69.6469 162.968 69.9179 163.072 70.4159L164.605 77.6989C164.681 78.0529 165.075 78.3229 165.441 78.2709L172.969 77.1869C173.484 77.1129 173.549 76.4949 173.076 76.1709L170.201 74.2039L176.804 64.9909C177.744 66.7377 178.173 68.7136 178.043 70.6929C177.913 72.6722 177.229 74.575 176.069 76.1839C172.574 81.0639 165.693 82.2479 160.701 78.8329C155.709 75.4169 154.496 68.6929 157.991 63.8149C161.487 58.9379 168.368 57.7519 173.359 61.1679C173.641 61.3599 173.91 61.5639 174.168 61.7769Z" fill="#BEBEC0"/>
<path fill-rule="evenodd" clip-rule="evenodd" d="M170.153 62.2898C170.079 61.9358 169.684 61.6648 169.318 61.7188L161.789 62.8018C161.275 62.8758 161.209 63.4938 161.683 63.8178L164.557 65.7838L157.594 75.5008C158.328 76.668 159.267 77.6936 160.364 78.5288L167.871 68.0518L170.745 70.0178C171.219 70.3418 171.791 70.0708 171.686 69.5738L170.153 62.2898Z" fill="white"/>
</g>
</svg>
