<svg width="314" height="140" viewBox="0 0 314 140" fill="none" xmlns="http://www.w3.org/2000/svg">
<rect width="313.25" height="140" fill="#17171E"/>
<g clip-path="url(#clip0_1761_11282)">
<path d="M148.374 59.4082C149.925 59.4082 151.339 59.6515 152.615 60.1382C153.891 60.6247 154.985 61.3218 155.9 62.2292C156.814 63.1367 157.524 64.2381 158.03 65.5336C158.537 66.829 158.789 68.2855 158.789 69.9032C158.789 71.534 158.537 73.0036 158.03 74.3122C157.524 75.6208 156.814 76.7321 155.9 77.6461C154.985 78.5601 153.891 79.2637 152.615 79.7569C151.339 80.2501 149.925 80.4967 148.374 80.4967C146.809 80.4967 145.385 80.2501 144.103 79.7569C142.82 79.2637 141.716 78.5601 140.788 77.6461C139.861 76.7321 139.145 75.6208 138.638 74.3122C138.132 73.0036 137.879 71.534 137.879 69.9032C137.879 68.2855 138.132 66.829 138.638 65.5336C139.145 64.2381 139.861 63.1367 140.788 62.2292C141.716 61.3218 142.82 60.6247 144.103 60.1382C145.385 59.6515 146.809 59.4082 148.374 59.4082ZM148.374 75.5325C149.781 75.5325 150.816 75.4629 151.481 74.47C152.145 73.4771 152.477 71.968 152.477 69.9426C152.477 67.9173 152.145 66.4114 151.481 65.4251C150.816 64.4387 150.582 64.3311 148.374 64.3311C146.165 64.3311 145.868 64.4387 145.198 65.4251C144.527 66.4114 144.191 67.9173 144.191 69.9426C144.191 71.968 144.527 73.4771 145.198 74.47C145.868 75.4629 146.927 75.5325 148.374 75.5325Z" fill="#BEBEC0"/>
<path d="M167.509 62.2121C167.903 61.8439 168.311 61.5019 168.732 61.1863C169.153 60.8707 169.604 60.6043 170.083 60.3873C170.563 60.1703 171.083 59.9994 171.642 59.8744C172.201 59.7495 172.809 59.687 173.467 59.687C174.585 59.687 175.574 59.881 176.436 60.269C177.297 60.657 178.024 61.1962 178.615 61.8866C179.208 62.5771 179.654 63.3991 179.957 64.3525C180.26 65.306 180.411 66.3417 180.411 67.4596V79.6962C180.411 80.1179 180.069 80.4598 179.647 80.4598H175.059C174.637 80.4598 174.295 80.1179 174.295 79.6962V67.4596C174.295 66.46 174.065 65.6809 173.605 65.1219C173.144 64.563 172.467 64.2835 171.573 64.2835C170.902 64.2835 170.274 64.4248 169.689 64.7076C169.104 64.9904 168.535 65.375 167.982 65.8617V79.6962C167.982 80.1179 167.641 80.4598 167.219 80.4598H162.631C162.209 80.4598 161.867 80.1179 161.867 79.6962V61.9888C161.867 61.3082 162.255 60.6872 162.867 60.3888C162.868 60.3883 162.87 60.3873 162.87 60.3873C164.574 59.5497 165.526 58.8955 166.169 58.9343C167.393 59.0082 167.509 60.269 167.509 60.9836V62.2121Z" fill="#BEBEC0"/>
<path d="M165.789 58.6952C165.994 58.5948 166.221 58.5427 166.45 58.543C167.266 58.5439 167.931 59.1954 167.952 60.0067L167.953 60.0495L167.943 68.396C167.919 69.5687 165.894 69.9775 161.867 69.6222L161.841 62.8682V62.0292C161.841 62.0257 161.841 62.0163 161.841 62.0128C161.806 61.2052 162.188 60.4739 162.905 60.1021L162.952 60.0788L165.789 58.6952Z" fill="#BEBEC0"/>
<path d="M197.08 67.4964C197.08 67.0098 197.018 66.5364 196.892 66.0761C196.768 65.6157 196.564 65.2048 196.281 64.8431C195.999 64.4815 195.627 64.1888 195.167 63.9652C194.706 63.7416 194.148 63.6298 193.49 63.6298C192.333 63.6298 191.425 63.9619 190.767 64.6261C190.11 65.2902 189.676 66.247 189.465 67.4964H197.08ZM189.386 71.0473C189.584 72.757 190.103 73.9966 190.945 74.7659C191.787 75.5353 192.872 75.9199 194.2 75.9199C194.91 75.9199 195.522 75.8345 196.035 75.6635C196.547 75.4925 197.004 75.3018 197.406 75.0914C197.807 74.881 198.175 74.6903 198.51 74.5193C198.845 74.3484 199.198 74.2628 199.566 74.2628C200.052 74.2628 200.42 74.4404 200.67 74.7955L202.446 76.9852C201.815 77.7086 201.134 78.2971 200.404 78.7508C199.674 79.2046 198.925 79.5596 198.155 79.8161C197.386 80.0726 196.617 80.2501 195.847 80.3487C195.078 80.4473 194.344 80.4967 193.648 80.4967C192.214 80.4967 190.87 80.2632 189.613 79.7963C188.357 79.3295 187.259 78.6357 186.319 77.7152C185.379 76.7945 184.635 75.6504 184.089 74.2826C183.544 72.9148 183.271 71.3235 183.271 69.5086C183.271 68.1408 183.504 66.8454 183.971 65.6223C184.438 64.3992 185.109 63.3274 185.984 62.4068C186.858 61.4862 187.917 60.7563 189.16 60.2171C190.403 59.6778 191.806 59.4082 193.371 59.4082C194.726 59.4082 195.966 59.6186 197.09 60.0395C198.215 60.4604 199.181 61.0719 199.99 61.8742C200.798 62.6764 201.43 63.6594 201.883 64.8233C202.338 65.9873 202.565 67.3057 202.565 68.7787C202.565 69.239 202.545 69.6138 202.505 69.9032C202.466 70.1925 202.394 70.4226 202.288 70.5936C202.183 70.7646 202.042 70.883 201.864 70.9487C201.687 71.0144 201.46 71.0473 201.183 71.0473H189.386Z" fill="#BEBEC0"/>
<path d="M220.832 62.1699C220.832 62.5907 220.76 62.9984 220.615 63.3929C220.471 63.7875 220.279 64.1097 220.043 64.3595L211.501 75.6435H219.032V80.1808H205.222C204.8 80.1808 204.458 79.8389 204.458 79.4172V77.6952C204.458 77.4453 204.524 77.1297 204.655 76.7483C204.787 76.3669 204.984 76.0118 205.248 75.683L213.868 64.2609H205.985L206.723 59.7236H220.069C220.49 59.7236 220.832 60.0655 220.832 60.4873V62.1699Z" fill="#BEBEC0"/>
<path d="M204.339 62.6517C204.264 62.8057 204.225 62.9747 204.225 63.1459C204.226 63.7561 204.713 64.2521 205.318 64.2683L205.351 64.2687L211.586 64.261C212.463 64.2433 212.768 62.7304 212.502 59.7222L207.456 59.7028H206.83C206.827 59.7026 206.82 59.7029 206.817 59.7028C206.214 59.677 205.668 59.9619 205.39 60.4979L205.372 60.5325L204.339 62.6517Z" fill="#BEBEC0"/>
<path d="M221.553 78.5736C221.628 78.7276 221.668 78.8965 221.668 79.0678C221.667 79.6779 221.18 80.174 220.574 80.1901L220.542 80.1905L214.306 80.1829C213.43 80.1652 213.125 78.6523 213.39 75.6441L218.436 75.6247H219.063C219.066 75.6245 219.073 75.6247 219.075 75.6247C219.678 75.5988 220.225 75.8837 220.503 76.4198L220.52 76.4544L221.553 78.5736Z" fill="#BEBEC0"/>
<path d="M95.1852 50.872C95.9862 50.4643 97.0571 49.92 98.398 49.2392C99.6497 48.6042 101.181 49.1008 101.818 50.3484C102 50.7057 102.095 51.1011 102.094 51.502L102.05 78.5264L113.326 86.974C114.449 87.8151 114.675 89.4041 113.831 90.5232C113.599 90.8319 113.298 91.0834 112.953 91.2587L108.2 93.6724C106.947 94.3078 105.44 94.1767 104.317 93.3345L94.0757 85.6683C92.532 84.5129 91.6243 82.7002 91.6261 80.7761L91.6745 56.5892C91.674 54.1773 93.0301 51.9689 95.1852 50.872Z" fill="url(#paint0_linear_1761_11282)"/>
<path d="M91.6745 56.9414C91.667 70.8848 94.0829 72.5732 102.059 78.5447L113.323 86.9746C114.447 87.8152 114.673 89.4041 113.83 90.5236C113.597 90.8327 113.297 91.0846 112.951 91.26L108.2 93.6727C106.947 94.3081 105.44 94.177 104.317 93.3348L94.0757 85.6686C92.532 84.5132 91.6243 82.7006 91.6261 80.7764L91.6745 56.9414Z" fill="url(#paint1_linear_1761_11282)"/>
<path d="M125.772 89.1282C124.971 89.5359 123.9 90.0802 122.559 90.761C121.308 91.396 119.776 90.8994 119.139 89.6518C118.957 89.2945 118.862 88.8991 118.863 88.4982L118.907 61.4738L107.631 53.0261C106.508 52.185 106.282 50.596 107.126 49.4769C107.359 49.1683 107.659 48.9167 108.004 48.7415L112.757 46.3278C114.01 45.6924 115.517 45.8235 116.64 46.6657L126.882 54.3319C128.425 55.4873 129.333 57.2999 129.331 59.2241L129.283 83.411C129.283 85.8228 127.927 88.0313 125.772 89.1282Z" fill="url(#paint2_linear_1761_11282)"/>
<path d="M129.283 83.0591C129.291 69.1157 126.875 67.4272 118.898 61.4558L107.634 53.0259C106.511 52.1853 106.284 50.5964 107.127 49.4769C107.36 49.1678 107.661 48.9159 108.006 48.7404L112.757 46.3278C114.01 45.6924 115.517 45.8235 116.641 46.6657L126.882 54.3319C128.426 55.4873 129.333 57.2999 129.331 59.2241L129.283 83.0591Z" fill="url(#paint3_linear_1761_11282)"/>
</g>
<defs>
<linearGradient id="paint0_linear_1761_11282" x1="93.4975" y1="72.1907" x2="108.482" y2="57.4562" gradientUnits="userSpaceOnUse">
<stop offset="0.03151" stop-color="#383838"/>
<stop offset="0.269051" stop-color="#585858"/>
<stop offset="0.676679" stop-color="#737373"/>
<stop offset="1" stop-color="#333333"/>
</linearGradient>
<linearGradient id="paint1_linear_1761_11282" x1="91.5884" y1="71.8105" x2="113.915" y2="90.7385" gradientUnits="userSpaceOnUse">
<stop stop-color="#8E8E8E"/>
<stop offset="0.505208" stop-color="#7C7C7C"/>
<stop offset="1" stop-color="#737373"/>
</linearGradient>
<linearGradient id="paint2_linear_1761_11282" x1="127.46" y1="67.8095" x2="112.476" y2="82.544" gradientUnits="userSpaceOnUse">
<stop offset="0.03151" stop-color="#717171"/>
<stop offset="0.269051" stop-color="#303030"/>
<stop offset="0.676679" stop-color="#626262"/>
<stop offset="1" stop-color="#888888"/>
</linearGradient>
<linearGradient id="paint3_linear_1761_11282" x1="129.369" y1="68.19" x2="107.042" y2="49.262" gradientUnits="userSpaceOnUse">
<stop stop-color="#747474"/>
<stop offset="0.505208" stop-color="#7D7D7D"/>
<stop offset="1" stop-color="#939393"/>
</linearGradient>
<clipPath id="clip0_1761_11282">
<rect width="130.2" height="49" fill="white" transform="translate(91.525 45.5)"/>
</clipPath>
</defs>
</svg>
