<svg width="314" height="140" viewBox="0 0 314 140" fill="none" xmlns="http://www.w3.org/2000/svg">
<rect width="313.25" height="140" transform="translate(0.25)" fill="#17171E"/>
<path d="M82.4319 75.5791L61.8008 87.4993L57.9059 85.2523L57.89 85.2364L41.1728 75.5791C40.0286 74.8333 39.0979 73.8166 38.4413 72.6724C37.6764 71.3529 37.2621 69.8358 37.2621 68.2645C37.2621 66.8494 37.9728 65.6797 39.0055 64.9849C39.1457 64.8988 39.2828 64.8191 39.4294 64.7426C40.5386 64.1785 41.9282 64.1339 43.168 64.8542L47.6716 67.3529L50.6995 69.1346L51.4836 69.6254L61.7976 75.5759L72.086 69.6318L82.4287 75.5759L82.4319 75.5791Z" fill="#707070"/>
<path d="M63.9585 53.0335C61.329 51.5164 58.043 53.4159 58.043 56.4502C58.043 59.4844 59.5091 62.1138 61.9123 63.7361L72.0892 69.6356L72.1147 69.6261L82.4287 63.666L63.9585 53.0335Z" fill="#D7D7D7"/>
<path d="M61.912 63.7352C59.5088 62.1129 58.0426 59.3815 58.0426 56.4493C58.0426 55.0055 58.798 53.8007 59.8721 53.1186C59.8211 53.1473 59.9231 53.0899 59.8721 53.1186L43.7733 62.1639L41.1884 63.7257L39.4258 64.7392C40.535 64.1751 41.9247 64.1304 43.1645 64.8507L47.598 67.375L51.4832 69.622L61.7972 75.5725L72.0857 69.6284L61.9088 63.7288V63.7352H61.912Z" fill="#BEBEC0"/>
<path d="M110.454 70.4982C109.836 69.9946 109.141 69.5739 108.366 69.2425C107.592 68.911 106.786 68.6465 105.947 68.452L103.869 67.9325C103.413 67.8242 102.964 67.6903 102.518 67.5309C102.072 67.3716 101.664 67.1772 101.294 66.9413C100.927 66.7054 100.634 66.4186 100.424 66.0808C100.21 65.7429 100.105 65.3413 100.105 64.8792C100.111 64.3246 100.274 63.8306 100.593 63.3971C100.911 62.9637 101.367 62.6226 101.966 62.3677C102.566 62.1159 103.283 61.9884 104.121 61.9884C105.313 61.9884 106.279 62.2529 107.028 62.7788C107.777 63.3047 108.197 64.0409 108.299 64.9875H112.162C112.14 63.7382 111.79 62.6322 111.114 61.6697C110.435 60.7071 109.504 59.9518 108.315 59.4067C107.13 58.8617 105.75 58.5908 104.175 58.5908C102.601 58.5908 101.233 58.8617 100.009 59.4067C98.7823 59.9518 97.8134 60.7135 97.1026 61.6952C96.3919 62.6768 96.0381 63.821 96.0381 65.1246C96.0381 66.7118 96.5672 67.9835 97.6222 68.9397C98.6803 69.8958 100.121 70.6066 101.947 71.0783L104.468 71.7285C105.262 71.9293 105.957 72.1588 106.553 72.4169C107.149 72.6719 107.611 72.9906 107.943 73.3699C108.274 73.7492 108.443 74.2273 108.452 74.8041C108.446 75.4384 108.255 75.993 107.879 76.4647C107.503 76.9364 106.986 77.3061 106.327 77.5674C105.667 77.832 104.899 77.9627 104.029 77.9627C103.158 77.9627 102.435 77.8384 101.762 77.5834C101.087 77.3316 100.542 76.9491 100.124 76.436C99.7066 75.9228 99.4676 75.2822 99.4102 74.5109H95.4612C95.5186 75.9834 95.9042 77.2296 96.615 78.2559C97.3258 79.279 98.3138 80.0598 99.5792 80.5921C100.844 81.1244 102.339 81.3921 104.064 81.3921C105.788 81.3921 107.353 81.1148 108.602 80.5634C109.855 80.012 110.811 79.2439 111.477 78.2591C112.14 77.2742 112.472 76.1332 112.472 74.8328C112.472 73.8735 112.29 73.0352 111.93 72.3213C111.57 71.6074 111.082 70.9986 110.464 70.4918L110.454 70.4982Z" fill="#BEBEC0"/>
<path d="M123.33 77.9359C123.126 77.971 122.9 77.9901 122.655 77.9901C122.33 77.9901 122.033 77.9391 121.769 77.8371C121.501 77.7351 121.287 77.5471 121.125 77.2698C120.962 76.9925 120.883 76.5909 120.883 76.0619V67.4691H124.162V64.4381H120.883V60.4541H116.965V64.4381H114.607V67.4691H116.965V76.712C116.959 77.7511 117.182 78.618 117.641 79.3096C118.1 80.0012 118.722 80.5144 119.509 80.8427C120.296 81.1709 121.179 81.3207 122.161 81.2921C122.715 81.2761 123.187 81.2283 123.573 81.1391C123.958 81.0498 124.258 80.9733 124.465 80.9L123.805 77.8371C123.697 77.8658 123.541 77.8977 123.334 77.9359H123.33Z" fill="#BEBEC0"/>
<path d="M138.814 65.4264C138.157 64.9962 137.434 64.6902 136.64 64.5022C135.847 64.3141 135.05 64.2217 134.25 64.2217C133.086 64.2217 132.028 64.3938 131.069 64.7348C130.11 65.079 129.297 65.589 128.634 66.2711C127.971 66.9531 127.493 67.7977 127.206 68.8081L130.865 69.3276C131.059 68.7571 131.435 68.2631 131.996 67.8455C132.554 67.428 133.316 67.2177 134.275 67.2177C135.184 67.2177 135.882 67.4408 136.363 67.8902C136.847 68.3364 137.09 68.9674 137.09 69.7834V69.8471C137.09 70.2232 136.949 70.4973 136.672 70.6758C136.395 70.8543 135.952 70.9817 135.346 71.0646C134.741 71.1475 133.95 71.2399 132.975 71.3419C132.169 71.428 131.384 71.5682 130.632 71.7594C129.88 71.9507 129.201 72.2311 128.602 72.5977C128.003 72.9642 127.531 73.455 127.184 74.0701C126.836 74.6821 126.664 75.4598 126.664 76.3968C126.664 77.4868 126.906 78.4016 127.394 79.1442C127.882 79.8868 128.545 80.4477 129.386 80.827C130.227 81.2063 131.174 81.3943 132.226 81.3943C133.093 81.3943 133.848 81.2732 134.492 81.031C135.139 80.7888 135.675 80.4669 136.105 80.0685C136.535 79.6701 136.867 79.2366 137.106 78.7745H137.236V81.0565H141.004V69.93C141.004 68.8272 140.803 67.9061 140.404 67.1698C140.003 66.4336 139.477 65.8503 138.817 65.4233L138.814 65.4264ZM137.093 75.0964C137.093 75.7084 136.937 76.2757 136.621 76.7952C136.306 77.3147 135.863 77.7322 135.286 78.0446C134.709 78.3601 134.027 78.5163 133.239 78.5163C132.452 78.5163 131.754 78.3314 131.225 77.9649C130.699 77.5984 130.435 77.0534 130.435 76.3299C130.435 75.8263 130.569 75.412 130.836 75.09C131.104 74.7681 131.467 74.5195 131.929 74.3379C132.392 74.1562 132.914 74.0287 133.498 73.949C133.756 73.914 134.065 73.8694 134.419 73.8184C134.773 73.7674 135.129 73.71 135.49 73.6462C135.85 73.5825 136.178 73.506 136.468 73.42C136.761 73.3339 136.969 73.2415 137.09 73.1395V75.0996L137.093 75.0964Z" fill="#BEBEC0"/>
<path d="M150.123 68.024C150.728 67.5937 151.433 67.3802 152.233 67.3802C153.179 67.3802 153.935 67.6479 154.499 68.1866C155.066 68.7252 155.423 69.3945 155.576 70.1945H159.321C159.235 68.9961 158.881 67.9507 158.26 67.0519C157.638 66.1531 156.807 65.4583 155.764 64.9643C154.722 64.4703 153.527 64.2217 152.175 64.2217C150.553 64.2217 149.148 64.585 147.959 65.3085C146.773 66.032 145.855 67.0424 145.205 68.3396C144.555 69.6336 144.23 71.1252 144.23 72.8144C144.23 74.5036 144.548 75.9793 145.189 77.2669C145.826 78.5545 146.741 79.5617 147.927 80.2916C149.112 81.0214 150.537 81.3848 152.198 81.3848C153.591 81.3848 154.802 81.1298 155.834 80.623C156.867 80.1131 157.68 79.4087 158.279 78.5004C158.878 77.5952 159.226 76.553 159.318 75.3769H155.573C155.458 75.9761 155.245 76.4829 154.936 76.9036C154.626 77.3211 154.241 77.643 153.782 77.8629C153.323 78.0828 152.807 78.1944 152.23 78.1944C151.414 78.1944 150.706 77.9777 150.104 77.541C149.501 77.1044 149.033 76.4797 148.701 75.6701C148.37 74.8574 148.204 73.8853 148.204 72.7538C148.204 71.6224 148.373 70.6758 148.708 69.8758C149.042 69.0758 149.514 68.4607 150.12 68.0304L150.123 68.024Z" fill="#BEBEC0"/>
<path d="M177.288 64.4368H172.708L166.735 71.114H166.464V58.8975H162.547V81.0613H166.464V75.4741L167.889 73.9443L172.979 81.0613H177.667L170.843 71.6144L177.288 64.4368Z" fill="#BEBEC0"/>
<path d="M207.209 75.1968H207.015L202.741 58.8975H198.811L194.55 75.1841H194.343L190.349 58.8975H186.03L192.287 81.0613H196.248L200.695 65.5109H200.87L205.307 81.0613H209.265L215.522 58.8975H211.203L207.209 75.1968Z" fill="#BEBEC0"/>
<path d="M227.796 65.4264C227.14 64.9962 226.416 64.6902 225.623 64.5022C224.829 64.3141 224.032 64.2217 223.232 64.2217C222.069 64.2217 221.011 64.3938 220.051 64.7348C219.092 65.079 218.279 65.589 217.616 66.2711C216.953 66.9531 216.475 67.7977 216.188 68.8081L219.847 69.3276C220.042 68.7571 220.418 68.2631 220.979 67.8455C221.537 67.428 222.298 67.2177 223.258 67.2177C224.166 67.2177 224.864 67.4408 225.345 67.8902C225.83 68.3364 226.072 68.9674 226.072 69.7834V69.8471C226.072 70.2232 225.932 70.4973 225.655 70.6758C225.377 70.8543 224.934 70.9817 224.329 71.0646C223.723 71.1475 222.933 71.2399 221.957 71.3419C221.151 71.428 220.367 71.5682 219.615 71.7594C218.863 71.9507 218.184 72.2311 217.584 72.5977C216.985 72.9642 216.514 73.455 216.166 74.0701C215.819 74.6821 215.647 75.4598 215.647 76.3968C215.647 77.4868 215.889 78.4016 216.376 79.1442C216.864 79.8868 217.527 80.4477 218.368 80.827C219.21 81.2063 220.157 81.3943 221.208 81.3943C222.075 81.3943 222.831 81.2732 223.474 81.031C224.121 80.7888 224.657 80.4669 225.087 80.0685C225.518 79.6701 225.849 79.2366 226.088 78.7745H226.219V81.0565H229.986V69.93C229.986 68.8272 229.785 67.9061 229.387 67.1698C228.985 66.4336 228.459 65.8503 227.8 65.4233L227.796 65.4264ZM226.075 75.0964C226.075 75.7084 225.919 76.2757 225.604 76.7952C225.288 77.3147 224.845 77.7322 224.268 78.0446C223.691 78.3601 223.009 78.5163 222.222 78.5163C221.435 78.5163 220.737 78.3314 220.208 77.9649C219.682 77.5984 219.417 77.0534 219.417 76.3299C219.417 75.8263 219.551 75.412 219.819 75.09C220.086 74.7681 220.45 74.5195 220.912 74.3379C221.374 74.1562 221.897 74.0287 222.48 73.949C222.738 73.914 223.047 73.8694 223.401 73.8184C223.755 73.7674 224.112 73.71 224.472 73.6462C224.832 73.5825 225.161 73.506 225.451 73.42C225.744 73.3339 225.951 73.2415 226.072 73.1395V75.0996L226.075 75.0964Z" fill="#BEBEC0"/>
<path d="M237.849 58.8975H233.932V81.0613H237.849V58.8975Z" fill="#BEBEC0"/>
<path d="M245.791 58.8975H241.874V81.0613H245.791V58.8975Z" fill="#BEBEC0"/>
<path d="M262.302 66.2331C261.597 65.5478 260.791 65.0411 259.876 64.7128C258.965 64.3845 257.996 64.2188 256.969 64.2188C255.382 64.2188 253.999 64.5821 252.823 65.3056C251.647 66.0291 250.732 67.0394 250.079 68.3366C249.425 69.6306 249.1 71.135 249.1 72.8433C249.1 74.5517 249.425 76.0911 250.075 77.3724C250.726 78.6536 251.653 79.6416 252.861 80.3365C254.069 81.0313 255.506 81.3819 257.173 81.3819C258.464 81.3819 259.612 81.1843 260.616 80.7922C261.62 80.4002 262.442 79.8424 263.089 79.1253C263.736 78.4082 264.173 77.5668 264.405 76.5979L260.746 76.1867C260.574 76.6552 260.316 77.0504 259.978 77.366C259.64 77.6847 259.239 77.9237 258.777 78.0863C258.314 78.2488 257.798 78.3285 257.228 78.3285C256.377 78.3285 255.634 78.1468 255 77.7803C254.365 77.417 253.871 76.8911 253.518 76.1995C253.177 75.5333 253.004 74.7365 252.992 73.8122H264.568V72.6107C264.568 71.1541 264.367 69.8952 263.962 68.8402C263.557 67.782 263.003 66.9119 262.302 66.2267V66.2331ZM253.004 71.1796C253.043 70.5294 253.205 69.9239 253.502 69.3661C253.836 68.7414 254.308 68.2378 254.914 67.8522C255.519 67.4665 256.224 67.2721 257.024 67.2721C257.773 67.2721 258.432 67.441 259 67.782C259.567 68.1199 260.007 68.5852 260.326 69.1717C260.644 69.7581 260.804 70.4274 260.813 71.1796H253.004Z" fill="#BEBEC0"/>
<path d="M275.825 77.8371C275.717 77.8658 275.561 77.8977 275.353 77.9359C275.149 77.971 274.923 77.9901 274.678 77.9901C274.353 77.9901 274.056 77.9391 273.792 77.8371C273.524 77.7351 273.31 77.5471 273.148 77.2698C272.985 76.9925 272.906 76.5909 272.906 76.0619V67.4691H276.185V64.4381H272.906V60.4541H268.988V64.4381H266.63V67.4691H268.988V76.712C268.982 77.7511 269.205 78.618 269.664 79.3096C270.123 80.0012 270.745 80.5144 271.532 80.8427C272.319 81.1709 273.202 81.3207 274.184 81.2921C274.738 81.2761 275.21 81.2283 275.596 81.1391C275.981 81.0498 276.281 80.9733 276.488 80.9L275.828 77.8371H275.825Z" fill="#BEBEC0"/>
</svg>
