<svg width="314" height="120" viewBox="0 0 314 120" fill="none" xmlns="http://www.w3.org/2000/svg">
<g clip-path="url(#clip0_2328_9356)">
<path d="M314 0H0.75V120H314V0Z" fill="#17171E"/>
<mask id="mask0_2328_9356" style="mask-type:luminance" maskUnits="userSpaceOnUse" x="64" y="25" width="187" height="70">
<path d="M250.691 25.9189H64.0591V94.08H250.691V25.9189Z" fill="white"/>
</mask>
<g mask="url(#mask0_2328_9356)">
<path d="M126.125 41.2206C126.125 32.7951 119.197 25.9189 110.707 25.9189C106.316 25.9189 102.315 27.7589 99.5828 30.6644L64.7459 52.4549C64.0629 52.8422 63.8678 53.8108 64.2581 54.4887C64.5509 54.9729 65.0387 55.1665 65.5267 55.1665C65.8193 55.1665 66.0145 55.0697 66.3073 54.9729L96.0699 36.2815C95.4843 37.8311 95.1916 39.4775 95.1916 41.3175C95.1916 45.1913 96.6552 48.6779 98.9972 51.3896L75.5775 74.5358C74.992 75.117 74.992 75.9886 75.5775 76.5696C75.8703 76.8601 76.2606 76.957 76.6509 76.957C77.0414 76.957 77.4317 76.8601 77.7245 76.5696L101.144 53.4234C103.779 55.457 107.097 56.7161 110.61 56.7161C112.659 56.7161 114.61 56.3287 116.367 55.6508L97.7288 85.6732C97.3383 86.3511 97.5335 87.2227 98.2166 87.707C98.4118 87.9006 98.7045 87.9007 98.9972 87.9007C99.4852 87.9007 99.9731 87.6101 100.266 87.2227L122.71 50.9053C124.857 48.1937 126.125 44.9008 126.125 41.2206ZM103.291 51.2927L110.122 44.6103C110.707 44.0292 110.707 43.1575 110.122 42.5765C109.536 41.9954 108.658 41.9954 108.072 42.5765L101.144 49.3558C99.29 47.2251 98.1191 44.4166 98.1191 41.3175C98.2166 34.4413 103.779 28.8244 110.707 28.8244C117.635 28.8244 123.198 34.4413 123.198 41.2206C123.198 48.0968 117.538 53.617 110.707 53.617C107.975 53.7139 105.34 52.7454 103.291 51.2927Z" fill="#BEBEC0"/>
<path d="M110.707 31.1494C105.048 31.1494 100.461 35.7011 100.461 41.3182C100.461 42.093 101.144 42.7709 101.925 42.7709C102.706 42.7709 103.389 42.093 103.389 41.3182C103.389 37.3475 106.609 34.0547 110.707 34.0547C111.488 34.0547 112.171 33.3768 112.171 32.602C112.171 31.8273 111.488 31.1494 110.707 31.1494Z" fill="#BEBEC0"/>
<path d="M135.415 89.3383C140.098 89.3383 142.439 87.5633 142.439 84.0132C142.439 80.7167 140.508 79.0685 136.645 79.0685H134.312C132.081 79.0685 130.965 78.0965 130.965 76.1524C130.965 73.9547 132.613 72.8559 135.91 72.8559C138.023 72.8559 139.988 73.194 141.805 73.8702V71.7148C139.988 71.2077 138.023 70.9541 135.91 70.9541C131.05 70.9541 128.62 72.6868 128.62 76.1524C128.62 79.4489 130.517 81.0971 134.312 81.0971H136.645C138.944 81.0971 140.094 82.0691 140.094 84.0132C140.094 86.2954 138.534 87.4365 135.415 87.4365C133.209 87.4365 131.155 87.0984 129.253 86.4222V88.5776C131.155 89.0847 133.209 89.3383 135.415 89.3383ZM149.717 89.2115L153.343 79.2587L157.159 89.2115H159.302L162.776 75.8988H160.291L158.161 86.3334L154.459 75.8988H152.342L148.88 86.3334L146.522 75.8988H144.151L147.524 89.2115H149.717ZM175.709 89.2115V80.0321C175.709 77.2766 173.731 75.8988 169.775 75.8988C168.406 75.8988 167.002 76.1101 165.565 76.5327V78.4346C167.002 78.0119 168.406 77.8006 169.775 77.8006C172.167 77.8006 173.363 78.5656 173.363 80.0955V81.3507C172.205 81.1816 171.047 81.0971 169.889 81.0971C166.288 81.0971 164.488 82.4622 164.488 85.1924C164.488 87.8718 166.073 89.2115 169.242 89.2115C170.806 89.2115 172.251 88.772 173.578 87.8929L174.39 89.2115H175.709ZM169.242 87.3097C167.636 87.3097 166.833 86.5912 166.833 85.1543C166.833 83.7174 167.852 82.9989 169.889 82.9989C171.047 82.9989 172.205 83.0834 173.363 83.2525V86.0165C172.239 86.8786 170.865 87.3097 169.242 87.3097ZM181.858 94.029V88.5776C182.855 89.0002 183.886 89.2115 184.951 89.2115C189.245 89.2115 191.392 86.8829 191.392 82.2255C191.392 78.0077 189.258 75.8988 184.989 75.8988C183.104 75.8988 181.279 76.0805 179.512 76.444V94.029H181.858ZM184.939 87.1829C183.806 87.1829 182.779 86.9547 181.858 86.4983V78.1556C182.745 77.9528 183.781 77.8513 184.964 77.8513C187.711 77.8513 189.085 79.3009 189.085 82.2002C189.085 85.522 187.703 87.1829 184.939 87.1829ZM204.325 89.2115V87.4365H196.628L204.578 77.8006V75.8988H194.181V77.8006H201.979L193.928 87.4365V89.2115H204.325ZM213.453 89.1988C217.68 89.1988 219.793 86.9843 219.793 82.5552C219.793 78.1176 217.68 75.8988 213.453 75.8988C209.227 75.8988 207.114 78.1176 207.114 82.5552C207.131 86.9843 209.244 89.1988 213.453 89.1988ZM213.453 87.3097C210.791 87.3097 209.459 85.708 209.459 82.5044C209.459 79.3686 210.791 77.8006 213.453 77.8006C216.116 77.8006 217.447 79.3686 217.447 82.5044C217.447 85.708 216.116 87.3097 213.453 87.3097ZM225.308 89.2115V79.5376C226.517 78.4134 227.793 77.8513 229.137 77.8513C231.106 77.8513 232.091 78.8403 232.091 80.8182V89.2115H234.437V80.8562C234.437 77.5513 232.776 75.8988 229.454 75.8988C227.823 75.8988 226.326 76.4651 224.966 77.5978L224.547 75.8988H222.962V89.2115H225.308ZM244.466 89.2115C246.148 89.2115 247.576 89.0425 248.751 88.7044V86.8026C247.576 87.1407 246.232 87.3097 244.719 87.3097C241.541 87.3097 239.952 85.9489 239.952 83.2271H249.296C249.372 82.6186 249.41 82.048 249.41 81.5155C249.41 77.771 247.517 75.8988 243.73 75.8988C239.648 75.8988 237.606 78.0669 237.606 82.403C237.606 86.942 239.893 89.2115 244.466 89.2115ZM247.153 81.2746H239.952C240.104 78.9417 241.363 77.7753 243.73 77.7753C245.962 77.7753 247.103 78.9417 247.153 81.2746Z" fill="#BEBEC0"/>
<path d="M135.415 89.3383C140.098 89.3383 142.439 87.5633 142.439 84.0132C142.439 80.7167 140.508 79.0685 136.645 79.0685H134.312C132.081 79.0685 130.965 78.0965 130.965 76.1524C130.965 73.9547 132.613 72.8559 135.91 72.8559C138.023 72.8559 139.988 73.194 141.805 73.8702V71.7148C139.988 71.2077 138.023 70.9541 135.91 70.9541C131.05 70.9541 128.62 72.6868 128.62 76.1524C128.62 79.4489 130.517 81.0971 134.312 81.0971H136.645C138.944 81.0971 140.094 82.0691 140.094 84.0132C140.094 86.2954 138.534 87.4365 135.415 87.4365C133.209 87.4365 131.155 87.0984 129.253 86.4222V88.5776C131.155 89.0847 133.209 89.3383 135.415 89.3383ZM149.717 89.2115L153.343 79.2587L157.159 89.2115H159.302L162.776 75.8988H160.291L158.161 86.3334L154.459 75.8988H152.342L148.88 86.3334L146.522 75.8988H144.151L147.524 89.2115H149.717ZM175.709 89.2115V80.0321C175.709 77.2766 173.731 75.8988 169.775 75.8988C168.406 75.8988 167.002 76.1101 165.565 76.5327V78.4346C167.002 78.0119 168.406 77.8006 169.775 77.8006C172.167 77.8006 173.363 78.5656 173.363 80.0955V81.3507C172.205 81.1816 171.047 81.0971 169.889 81.0971C166.288 81.0971 164.488 82.4622 164.488 85.1924C164.488 87.8718 166.073 89.2115 169.242 89.2115C170.806 89.2115 172.251 88.772 173.578 87.8929L174.39 89.2115H175.709ZM169.242 87.3097C167.636 87.3097 166.833 86.5912 166.833 85.1543C166.833 83.7174 167.852 82.9989 169.889 82.9989C171.047 82.9989 172.205 83.0834 173.363 83.2525V86.0165C172.239 86.8786 170.865 87.3097 169.242 87.3097ZM181.858 94.029V88.5776C182.855 89.0002 183.886 89.2115 184.951 89.2115C189.245 89.2115 191.392 86.8829 191.392 82.2255C191.392 78.0077 189.258 75.8988 184.989 75.8988C183.104 75.8988 181.279 76.0805 179.512 76.444V94.029H181.858ZM184.939 87.1829C183.806 87.1829 182.779 86.9547 181.858 86.4983V78.1556C182.745 77.9528 183.781 77.8513 184.964 77.8513C187.711 77.8513 189.085 79.3009 189.085 82.2002C189.085 85.522 187.703 87.1829 184.939 87.1829ZM204.325 89.2115V87.4365H196.628L204.578 77.8006V75.8988H194.181V77.8006H201.979L193.928 87.4365V89.2115H204.325ZM213.453 89.1988C217.68 89.1988 219.793 86.9843 219.793 82.5552C219.793 78.1176 217.68 75.8988 213.453 75.8988C209.227 75.8988 207.114 78.1176 207.114 82.5552C207.131 86.9843 209.244 89.1988 213.453 89.1988ZM213.453 87.3097C210.791 87.3097 209.459 85.708 209.459 82.5044C209.459 79.3686 210.791 77.8006 213.453 77.8006C216.116 77.8006 217.447 79.3686 217.447 82.5044C217.447 85.708 216.116 87.3097 213.453 87.3097ZM225.308 89.2115V79.5376C226.517 78.4134 227.793 77.8513 229.137 77.8513C231.106 77.8513 232.091 78.8403 232.091 80.8182V89.2115H234.437V80.8562C234.437 77.5513 232.776 75.8988 229.454 75.8988C227.823 75.8988 226.326 76.4651 224.966 77.5978L224.547 75.8988H222.962V89.2115H225.308ZM244.466 89.2115C246.148 89.2115 247.576 89.0425 248.751 88.7044V86.8026C247.576 87.1407 246.232 87.3097 244.719 87.3097C241.541 87.3097 239.952 85.9489 239.952 83.2271H249.296C249.372 82.6186 249.41 82.048 249.41 81.5155C249.41 77.771 247.517 75.8988 243.73 75.8988C239.648 75.8988 237.606 78.0669 237.606 82.403C237.606 86.942 239.893 89.2115 244.466 89.2115ZM247.153 81.2746H239.952C240.104 78.9417 241.363 77.7753 243.73 77.7753C245.962 77.7753 247.103 78.9417 247.153 81.2746Z" fill="#BEBEC0"/>
</g>
</g>
<defs>
<clipPath id="clip0_2328_9356">
<rect width="314" height="120" fill="white"/>
</clipPath>
</defs>
</svg>
