<svg width="314" height="140" viewBox="0 0 314 140" fill="none" xmlns="http://www.w3.org/2000/svg">
<rect width="313.25" height="140" transform="translate(0.25)" fill="#17171E"/>
<g clip-path="url(#clip0_1761_11236)">
<path fill-rule="evenodd" clip-rule="evenodd" d="M59.4362 68.25C59.4362 75.9825 53.1688 82.25 45.4364 82.25C37.704 82.25 31.4365 75.9825 31.4365 68.25C31.4365 60.5175 37.704 54.25 45.4364 54.25C53.1688 54.25 59.4362 60.5175 59.4362 68.25ZM53.8363 62.5604C53.8363 62.7976 53.7895 63.0326 53.6988 63.2517C53.608 63.4709 53.4749 63.6701 53.3071 63.8378C53.1394 64.0056 52.9402 64.1387 52.7211 64.2294C52.5019 64.3202 52.267 64.367 52.0297 64.367C51.7925 64.367 51.5576 64.3202 51.3384 64.2294C51.1192 64.1387 50.9201 64.0056 50.7523 63.8378C50.5846 63.6701 50.4515 63.4709 50.3607 63.2517C50.2699 63.0326 50.2232 62.7976 50.2232 62.5604C50.2232 62.0813 50.4135 61.6218 50.7523 61.283C51.0911 60.9442 51.5506 60.7538 52.0297 60.7538C52.5089 60.7538 52.9684 60.9442 53.3071 61.283C53.6459 61.6218 53.8363 62.0813 53.8363 62.5604ZM45.3468 62.5604C47.1421 62.5604 48.5981 61.5894 48.5981 60.3921C48.5981 59.1937 47.1421 58.2238 45.3456 58.2238C43.5503 58.2238 42.0943 59.1948 42.0943 60.3921C42.0943 61.5894 43.5503 62.5593 45.3456 62.5593L45.3468 62.5604Z" fill="#BEBEC0"/>
<path d="M190.172 75.2109C190.172 73.7415 189.657 72.5823 188.627 71.7333C187.595 70.8709 185.71 70.0578 182.97 69.2917C180.23 68.5156 178.23 67.6722 176.969 66.7605C175.175 65.4748 174.276 63.7869 174.276 61.6981C174.276 59.6709 175.107 58.0268 176.768 56.7645C178.442 55.4888 180.575 54.8516 183.17 54.8516C184.929 54.8516 186.499 55.192 187.881 55.8708C189.275 56.5517 190.354 57.4981 191.118 58.7122C191.881 59.9263 192.263 61.2804 192.263 62.7733H190.009C190.009 60.9645 189.391 59.5141 188.153 58.421C186.916 57.3167 185.256 56.7634 183.17 56.7634C181.145 56.7634 179.532 57.2192 178.333 58.1298C177.132 59.028 176.532 60.2063 176.532 61.6623C176.532 63.0096 177.072 64.1084 178.15 64.9584C179.23 65.8085 180.957 66.56 183.334 67.2164C185.71 67.8604 187.511 68.5335 188.735 69.238C189.959 69.9301 190.881 70.7612 191.499 71.7333C192.118 72.7044 192.427 73.8512 192.427 75.1751C192.427 77.2628 191.59 78.9383 189.918 80.2005C188.256 81.4628 186.062 82.0933 183.334 82.0933C181.467 82.0933 179.751 81.7607 178.187 81.0932C176.635 80.4256 175.453 79.4904 174.64 78.2887C173.841 77.0869 173.441 75.7082 173.441 74.1548H175.677C175.677 76.0252 176.374 77.4991 177.768 78.5788C179.163 79.6607 181.019 80.2005 183.334 80.2005C185.396 80.2005 187.05 79.7447 188.299 78.8341C189.547 77.9247 190.172 76.7173 190.172 75.2109ZM199.502 70.9314V81.7304H197.265V55.2167H206.286C209.037 55.2167 211.208 55.92 212.796 57.329C214.396 58.7368 215.197 60.6733 215.197 63.1373C215.197 65.626 214.427 67.5501 212.888 68.9098C211.36 70.2583 209.14 70.9314 206.231 70.9314H199.502ZM199.502 69.0386H206.286C208.456 69.0386 210.111 68.5212 211.25 67.4896C212.391 66.4581 212.961 65.0189 212.961 63.1743C212.961 61.3408 212.391 59.8837 211.25 58.804C210.123 57.7109 208.517 57.152 206.431 57.1285H199.502V69.0375V69.0386ZM232.002 74.3004H219.981L217.252 81.7304H214.906L224.927 55.2167H227.055L237.076 81.7304H234.748L232.002 74.3004ZM220.672 72.3885H231.293L225.982 57.9461L220.672 72.3885ZM259.519 73.4626C259.215 76.2548 258.215 78.3906 256.517 79.8724C254.833 81.3541 252.584 82.0944 249.77 82.0944C247.806 82.0944 246.066 81.6016 244.551 80.6194C243.047 79.636 241.883 78.245 241.059 76.4496C240.235 74.6397 239.816 72.5767 239.803 70.2572V66.8165C239.803 64.4612 240.216 62.3724 241.041 60.5512C241.865 58.7312 243.047 57.329 244.587 56.3456C246.139 55.3488 247.921 54.8516 249.934 54.8516C252.771 54.8516 255.008 55.6232 256.645 57.1644C258.293 58.6943 259.252 60.8122 259.519 63.5204H257.263C256.705 59.0157 254.262 56.7645 249.934 56.7645C247.534 56.7645 245.617 57.6628 244.187 59.4592C242.768 61.2557 242.059 63.7376 242.059 66.9072V70.1485C242.059 73.2084 242.75 75.6477 244.132 77.4688C245.527 79.29 247.406 80.2005 249.77 80.2005C252.11 80.2005 253.875 79.6416 255.062 78.525C256.25 77.396 256.984 75.7082 257.263 73.4626H259.519ZM279.579 69.0196H267.193V79.8365H281.433V81.7293H264.956V55.2178H281.343V57.1285H267.193V67.1256H279.579V69.0184V69.0196Z" fill="#BEBEC0"/>
<path d="M190.172 75.2109C190.172 73.7415 189.657 72.5823 188.627 71.7333C187.595 70.8709 185.71 70.0578 182.97 69.2917C180.23 68.5156 178.23 67.6722 176.969 66.7605C175.175 65.4748 174.276 63.7869 174.276 61.6981C174.276 59.6709 175.107 58.0268 176.768 56.7645C178.442 55.4888 180.575 54.8516 183.17 54.8516C184.929 54.8516 186.499 55.192 187.881 55.8708C189.275 56.5517 190.354 57.4981 191.118 58.7122C191.881 59.9263 192.263 61.2804 192.263 62.7733H190.009C190.009 60.9645 189.391 59.5141 188.153 58.421C186.916 57.3167 185.256 56.7634 183.17 56.7634C181.145 56.7634 179.532 57.2192 178.333 58.1298C177.132 59.028 176.532 60.2063 176.532 61.6623C176.532 63.0096 177.072 64.1084 178.15 64.9584C179.23 65.8085 180.957 66.56 183.334 67.2164C185.71 67.8604 187.511 68.5335 188.735 69.238C189.959 69.9301 190.881 70.7612 191.499 71.7333C192.118 72.7044 192.427 73.8512 192.427 75.1751C192.427 77.2628 191.59 78.9383 189.918 80.2005C188.256 81.4628 186.062 82.0933 183.334 82.0933C181.467 82.0933 179.751 81.7607 178.187 81.0932C176.635 80.4256 175.453 79.4904 174.64 78.2887C173.841 77.0869 173.441 75.7082 173.441 74.1548H175.677C175.677 76.0252 176.374 77.4991 177.768 78.5788C179.163 79.6607 181.019 80.2005 183.334 80.2005C185.396 80.2005 187.05 79.7447 188.299 78.8341C189.547 77.9247 190.172 76.7173 190.172 75.2109Z" fill="#BEBEC0"/>
<path d="M84.125 74.7741C84.125 73.7415 83.761 72.953 83.0341 72.4064C82.3062 71.8487 80.9969 71.2652 79.1052 70.6592C77.2136 70.0388 75.7161 69.4317 74.6141 68.837C71.6069 67.2108 70.1028 65.0189 70.1028 62.2626C70.1028 60.8312 70.5026 59.5567 71.3034 58.4389C72.1154 57.31 73.2746 56.4296 74.7776 55.7991C76.2918 55.1674 77.9897 54.8516 79.8679 54.8516C81.7596 54.8516 83.4452 55.1988 84.9236 55.8898C86.4031 56.5696 87.5488 57.5351 88.3619 58.785C89.1862 60.036 89.5984 61.4562 89.5984 63.0466H84.1429C84.1429 61.8325 83.7621 60.8917 82.9972 60.2242C82.2334 59.5444 81.1604 59.205 79.7783 59.205C78.4456 59.205 77.4084 59.4895 76.6681 60.0596C75.9289 60.6184 75.5593 61.3588 75.5593 62.2816C75.5593 63.144 75.9894 63.8664 76.8507 64.4488C77.7243 65.0312 79.0022 65.5778 80.6878 66.0874C83.7913 67.0226 86.0525 68.1818 87.4715 69.5661C88.8906 70.9493 89.5995 72.673 89.5995 74.7372C89.5995 77.032 88.7326 78.8352 86.9989 80.1468C85.2652 81.4448 82.9311 82.0944 79.9967 82.0944C77.9595 82.0944 76.1048 81.7248 74.4304 80.9834C72.7583 80.2308 71.4792 79.2048 70.5944 77.9056C69.7209 76.6064 69.2841 75.1012 69.2841 73.3898H74.7586C74.7586 76.3152 76.5057 77.7791 79.9967 77.7791C81.2937 77.7791 82.3062 77.5181 83.0341 76.9951C83.7621 76.4608 84.125 75.7205 84.125 74.7741ZM113.933 74.082L117.496 55.2167H122.935L117.06 81.7304H111.568L107.258 63.993L102.949 81.7304H97.4562L91.5819 55.2167H97.0194L100.602 74.045L104.967 55.2167H109.587L113.933 74.082ZM140.049 76.2671H130.484L128.665 81.7304H122.863L132.72 55.2167H137.776L147.688 81.7304H141.886L140.049 76.2671ZM131.956 71.842H138.575L135.249 61.9176L131.956 71.842ZM155.617 72.3885V81.7293H150.162V55.2178H160.491C162.479 55.2178 164.225 55.5818 165.73 56.3098C167.245 57.0378 168.409 58.076 169.221 59.4234C170.034 60.7596 170.439 62.2828 170.439 63.9941C170.439 66.5925 169.549 68.6444 167.766 70.1496C165.996 71.6426 163.541 72.3896 160.401 72.3896L155.617 72.3885ZM155.617 67.9634H160.491C161.934 67.9634 163.031 67.6229 163.783 66.9442C164.547 66.2632 164.929 65.2922 164.929 64.03C164.929 62.7308 164.547 61.6813 163.783 60.8794C163.019 60.0786 161.964 59.6653 160.619 59.6407H155.617V67.9623V67.9634Z" fill="#F4F4F4"/>
<path d="M84.125 74.7741C84.125 73.7415 83.761 72.953 83.0341 72.4064C82.3062 71.8487 80.9969 71.2652 79.1052 70.6592C77.2136 70.0388 75.7161 69.4317 74.6141 68.837C71.6069 67.2108 70.1028 65.0189 70.1028 62.2626C70.1028 60.8312 70.5026 59.5567 71.3034 58.4389C72.1154 57.31 73.2746 56.4296 74.7776 55.7991C76.2918 55.1674 77.9897 54.8516 79.8679 54.8516C81.7596 54.8516 83.4452 55.1988 84.9236 55.8898C86.4031 56.5696 87.5488 57.5351 88.3619 58.785C89.1862 60.036 89.5984 61.4562 89.5984 63.0466H84.1429C84.1429 61.8325 83.7621 60.8917 82.9972 60.2242C82.2334 59.5444 81.1604 59.205 79.7783 59.205C78.4456 59.205 77.4084 59.4895 76.6681 60.0596C75.9289 60.6184 75.5593 61.3588 75.5593 62.2816C75.5593 63.144 75.9894 63.8664 76.8507 64.4488C77.7243 65.0312 79.0022 65.5778 80.6878 66.0874C83.7913 67.0226 86.0525 68.1818 87.4715 69.5661C88.8906 70.9493 89.5995 72.673 89.5995 74.7372C89.5995 77.032 88.7326 78.8352 86.9989 80.1468C85.2652 81.4448 82.9311 82.0944 79.9967 82.0944C77.9595 82.0944 76.1048 81.7248 74.4304 80.9834C72.7583 80.2308 71.4792 79.2048 70.5944 77.9056C69.7209 76.6064 69.2841 75.1012 69.2841 73.3898H74.7586C74.7586 76.3152 76.5057 77.7791 79.9967 77.7791C81.2937 77.7791 82.3062 77.5181 83.0341 76.9951C83.7621 76.4608 84.125 75.7205 84.125 74.7741ZM113.933 74.082L117.496 55.2167H122.935L117.06 81.7304H111.568L107.258 63.993L102.949 81.7304H97.4562L91.5819 55.2167H97.0194L100.602 74.045L104.967 55.2167H109.587L113.933 74.082ZM140.049 76.2671H130.484L128.665 81.7304H122.863L132.72 55.2167H137.776L147.688 81.7304H141.886L140.049 76.2671ZM131.956 71.842H138.575L135.249 61.9176L131.956 71.842ZM155.617 72.3885V81.7293H150.162V55.2178H160.491C162.479 55.2178 164.225 55.5818 165.73 56.3098C167.245 57.0378 168.409 58.076 169.221 59.4234C170.034 60.7596 170.439 62.2828 170.439 63.9941C170.439 66.5925 169.549 68.6444 167.766 70.1496C165.996 71.6426 163.541 72.3896 160.401 72.3896L155.617 72.3885ZM155.617 67.9634H160.491C161.934 67.9634 163.031 67.6229 163.783 66.9442C164.547 66.2632 164.929 65.2922 164.929 64.03C164.929 62.7308 164.547 61.6813 163.783 60.8794C163.019 60.0786 161.964 59.6653 160.619 59.6407H155.617V67.9623V67.9634Z" fill="#F4F4F4"/>
</g>
<defs>
<clipPath id="clip0_1761_11236">
<rect width="250.877" height="28" fill="white" transform="translate(31.4364 54.25)"/>
</clipPath>
</defs>
</svg>
